<svg xmlns="http://www.w3.org/2000/svg" xmlns:xlink="http://www.w3.org/1999/xlink" version="1.1" id="Layer_1" x="0px" y="0px" viewBox="0 0 78 78" style="enable-background:new 0 0 78 78;" xml:space="preserve">
<style type="text/css">
	.st0{fill-rule:evenodd;clip-rule:evenodd;fill:#ffffff;}
	.st1{fill:#ffffff;}
</style>
<g id="Group_1271" transform="translate(-173.232 -49.287)">
	<path id="Path_1033" class="st0" d="M212.2,50.1H212v-0.8h0.2l0,0c21.5,0,39,17.5,39,39s-17.5,39-39,39H212v-0.8h0.2   c21.1,0,38.2-17.1,38.2-38.2l0,0C250.5,67.2,233.3,50.1,212.2,50.1 M212,124.6c20-0.1,36.2-16.4,36.1-36.5   C248,68.2,231.9,52.1,212,52v0.6c19.7,0,35.7,16,35.7,35.7l0,0c0,19.7-16,35.7-35.7,35.7V124.6z M212,113.8   c14.2,0,25.6-11.5,25.6-25.6l0,0c0-14.2-11.5-25.6-25.6-25.6v0.6c13.8,0,25.1,11.2,25.1,25.1l0,0c0,13.8-11.2,25.1-25.1,25.1V113.8   z M212,50.1c-21,0.1-38,17.2-38,38.2l0,0c0,21,17,38.1,38,38.2v0.8c-21.5-0.3-38.8-17.9-38.5-39.5c0.3-21.2,17.4-38.3,38.5-38.5   L212,50.1z M212,52L212,52c-20,0-36.3,16.2-36.3,36.3l0,0c0,20,16.3,36.3,36.3,36.3V124c-19.7,0-35.7-16-35.7-35.7   s16-35.7,35.7-35.7l0,0V52z M212,62.5L212,62.5c-14.2,0-25.6,11.5-25.6,25.6l0,0c0,14.2,11.5,25.6,25.6,25.6c0,0,0,0,0,0v-0.6   c-13.8,0-25.1-11.2-25.1-25.1l0,0l0,0l0,0c0-13.8,11.2-25.1,25.1-25.1V62.5z" fill="#ffffff"/>
	<path id="Path_1034" class="st0" d="M212.2,50.1H212v-0.8h0.2l0,0c21.5,0,39,17.5,39,39s-17.5,39-39,39H212v-0.8h0.2   c21.1,0,38.2-17.1,38.2-38.2l0,0C250.5,67.2,233.3,50.1,212.2,50.1 M212,124.6c20-0.1,36.2-16.4,36.1-36.5   C248,68.2,231.9,52.1,212,52v0.6c19.7,0,35.7,16,35.7,35.7l0,0c0,19.7-16,35.7-35.7,35.7V124.6z M212,113.8   c14.2,0,25.6-11.5,25.6-25.6l0,0c0-14.2-11.5-25.6-25.6-25.6v0.6c13.8,0,25.1,11.2,25.1,25.1l0,0c0,13.8-11.2,25.1-25.1,25.1V113.8   z M212,50.1c-21,0.1-38,17.2-38,38.2l0,0c0,21,17,38.1,38,38.2v0.8c-21.5-0.3-38.8-17.9-38.5-39.5c0.3-21.2,17.4-38.3,38.5-38.5   L212,50.1z M212,52L212,52c-20,0-36.3,16.2-36.3,36.3l0,0c0,20,16.3,36.3,36.3,36.3V124c-19.7,0-35.7-16-35.7-35.7   s16-35.7,35.7-35.7l0,0V52z M212,62.5L212,62.5c-14.2,0-25.6,11.5-25.6,25.6l0,0c0,14.2,11.5,25.6,25.6,25.6c0,0,0,0,0,0v-0.6   c-13.8,0-25.1-11.2-25.1-25.1l0,0l0,0l0,0c0-13.8,11.2-25.1,25.1-25.1V62.5z" fill="#ffffff"/>
	<path id="Path_1035" class="st1" d="M212.7,118.5c0,0.1,0,0.3,0,0.4c0.1,0,0.3,0,0.4,0c0.2,0,0.4-0.1,0.6-0.1l0.2,0l0,0.2   c0,0.2-0.1,0.3-0.1,0.5c0,0.2,0,0.3,0,0.5l0,0.2l-0.2,0c-0.2,0-0.4-0.1-0.6-0.1c-0.1,0-0.3,0-0.4,0c0,0.1,0,0.3,0,0.4   c0,0.2,0.1,0.4,0.1,0.6l0,0.2l-0.2,0c-0.2,0-0.3,0-0.5,0c-0.2,0-0.3,0-0.5,0l-0.2,0l0-0.2c0-0.2,0.1-0.4,0.1-0.6l0,0   c0-0.1,0-0.3,0-0.4c-0.1,0-0.3,0-0.4,0c-0.2,0-0.4,0.1-0.6,0.1l-0.2,0l0-0.2c0-0.2,0-0.3,0-0.5c0-0.2,0-0.3,0-0.5l0-0.2l0.2,0   c0.2,0,0.4,0.1,0.6,0.1c0.1,0,0.3,0,0.4,0c0-0.1,0-0.3,0-0.4c0-0.2-0.1-0.4-0.1-0.6l0-0.2l0.2,0c0.2,0,0.3,0.1,0.5,0.1   c0.2,0,0.3,0,0.5,0l0.2,0l0,0.2C212.8,118.1,212.7,118.3,212.7,118.5 M230.2,66.3c-0.1-0.1-0.3-0.2-0.4-0.3l-0.2-0.1l0.2-0.1   c0.1-0.1,0.3-0.2,0.4-0.4c0.1-0.1,0.2-0.2,0.3-0.3c-0.1-0.1-0.2-0.1-0.3-0.2c-0.2-0.1-0.3-0.2-0.5-0.3l-0.2-0.1l0.2-0.1   c0.1-0.1,0.2-0.2,0.3-0.3c0.1-0.1,0.2-0.3,0.3-0.4l0.1-0.2l0.1,0.2c0.1,0.1,0.2,0.3,0.4,0.4c0.1,0.1,0.2,0.2,0.3,0.3   c0.1-0.1,0.1-0.2,0.2-0.3c0.1-0.2,0.2-0.3,0.3-0.5l0.1-0.2l0.1,0.1c0.1,0.1,0.2,0.2,0.4,0.3c0.1,0.1,0.3,0.2,0.4,0.3l0.2,0.1   l-0.1,0.1c-0.1,0.1-0.3,0.2-0.4,0.4c-0.1,0.1-0.2,0.2-0.3,0.3c0.1,0.1,0.2,0.2,0.3,0.2c0.2,0.1,0.3,0.2,0.5,0.3l0.2,0.1l-0.1,0.1   c-0.2,0.2-0.4,0.5-0.6,0.7l-0.1,0.2l-0.1-0.2c-0.1-0.1-0.3-0.3-0.4-0.4c-0.1-0.1-0.2-0.2-0.3-0.3c-0.1,0.1-0.1,0.2-0.2,0.3   c-0.1,0.2-0.2,0.3-0.3,0.5l-0.1,0.2l-0.1-0.2C230.4,66.6,230.3,66.4,230.2,66.3L230.2,66.3z M193.5,65.5c-0.1,0.1-0.3,0.3-0.4,0.4   l-0.1,0.2l-0.1-0.2c-0.1-0.1-0.1-0.3-0.2-0.4c-0.1-0.1-0.2-0.3-0.3-0.4l-0.1-0.1l0.2-0.1c0.2-0.1,0.3-0.2,0.5-0.3   c0.1-0.1,0.2-0.1,0.4-0.2c-0.1-0.1-0.2-0.2-0.3-0.3c-0.1-0.1-0.3-0.3-0.4-0.4l-0.1-0.1l0.2-0.1c0.3-0.1,0.6-0.3,0.8-0.6l0.1-0.1   l0.1,0.2c0.1,0.2,0.2,0.3,0.3,0.5c0.1,0.1,0.1,0.2,0.2,0.3c0.1-0.1,0.2-0.2,0.3-0.3l0,0c0.1-0.1,0.3-0.3,0.4-0.4l0.1-0.1l0.1,0.2   c0.1,0.1,0.2,0.3,0.3,0.4c0.1,0.1,0.2,0.2,0.3,0.4l0.1,0.1l-0.2,0.1c-0.2,0.1-0.3,0.2-0.5,0.3c-0.1,0.1-0.2,0.1-0.4,0.2   c0.1,0.1,0.2,0.2,0.3,0.3c0.1,0.1,0.3,0.3,0.4,0.4l0.2,0.1l-0.2,0.1c-0.1,0.1-0.3,0.2-0.4,0.2l0,0c-0.1,0.1-0.3,0.2-0.4,0.3   l-0.1,0.1l-0.1-0.2c-0.1-0.2-0.2-0.3-0.3-0.5c-0.1-0.1-0.1-0.2-0.2-0.3C193.7,65.4,193.6,65.4,193.5,65.5L193.5,65.5z M199.6,114.4   c0.4-0.2,0.9-0.2,1.4,0c0.5,0.2,0.9,0.5,1.1,1c0.2,0.5,0.2,1-0.1,1.5l0,0c0,0.1-0.1,0.2-0.1,0.2c-0.1,0.1-0.1,0.2-0.2,0.2l-0.1,0.1   l-0.1,0l-0.5-0.2l-0.2-0.1l0.1-0.1c0.1-0.1,0.1-0.1,0.2-0.2c0-0.1,0.1-0.1,0.1-0.2c0.1-0.2,0.1-0.4,0.1-0.7c0-0.2-0.1-0.4-0.2-0.5   l0,0c-0.1-0.1-0.1-0.1-0.2-0.2l0,0c-0.1-0.1-0.1-0.1-0.2-0.1l0,0c-0.2-0.1-0.5-0.1-0.7,0c-0.2,0.2-0.4,0.4-0.5,0.7l-1,2.3   c-0.1,0.1-0.1,0.3-0.1,0.5c0,0.1,0.1,0.2,0.2,0.2c0.1,0,0.2,0,0.3,0c0.1-0.1,0.2-0.1,0.2-0.3l0,0l0.4-0.9l0.1-0.1l0.1,0.1l0.5,0.2   l0.1,0.1l-0.1,0.1l-0.4,1c0,0.1-0.1,0.2-0.1,0.3c0,0,0,0,0,0c0,0,0,0,0.1,0l0,0c0.1,0,0.1-0.1,0.2-0.1l0,0c0.2-0.1,0.4-0.2,0.6-0.2   c0.2,0,0.4,0,0.6,0.1l0,0c0.2,0.1,0.4,0.3,0.5,0.5c0.1,0.2,0.1,0.5,0,0.7l0,0c0,0,0,0.1-0.1,0.1s0,0.1-0.1,0.1l-0.1,0.1l-0.1,0   l-0.5-0.2l-0.2-0.1l0.1-0.1c0,0,0-0.1,0.1-0.1s0-0.1,0-0.1l0,0l0,0c0-0.1,0-0.1,0-0.2c0,0-0.1-0.1-0.1-0.1l0,0c0,0-0.1,0-0.1,0   c-0.1,0-0.2,0.1-0.4,0.1l0,0c-0.1,0.1-0.3,0.1-0.5,0.1l0,0c-0.1,0-0.3,0-0.4,0l0,0c-0.1-0.1-0.3-0.2-0.3-0.3c0-0.1-0.1-0.2-0.1-0.2   c-0.1,0-0.2,0.1-0.4,0.1c-0.2,0-0.4,0-0.6-0.1l0,0c-0.3-0.1-0.5-0.3-0.6-0.6c-0.1-0.3-0.1-0.6,0-0.9l0,0l0,0l1-2.3   C198.9,115.1,199.2,114.7,199.6,114.4L199.6,114.4z M196.1,112.3c0.5-0.1,0.9,0,1.3,0.3l0,0c0.4,0.2,0.7,0.6,0.8,1.1   c0.1,0.5,0,1-0.2,1.4l0,0l0,0l-1.2,2c-0.2,0.4-0.5,0.6-0.8,0.7c-0.4,0-0.8-0.1-1.1-0.3l0,0c-0.1,0-0.2-0.1-0.4-0.3   s-0.3-0.2-0.4-0.3l0,0c-0.1-0.1-0.2-0.1-0.4-0.2l0,0c-0.1,0-0.3-0.1-0.4-0.1l-0.2,0l0.1-0.2l0.3-0.5l0-0.1h0.1c0.1,0,0.2,0,0.3,0   c0.1,0,0.2,0.1,0.3,0.1l0,0c0.1,0.1,0.3,0.2,0.4,0.3c0.2,0.2,0.4,0.3,0.6,0.5c0.1,0.1,0.3,0.1,0.4,0.1l0,0c0.1,0,0.2-0.1,0.3-0.3v0   l0.6-1c-0.1,0-0.3,0-0.4,0c-0.2-0.1-0.5-0.1-0.7-0.3l0,0l0,0c-0.4-0.2-0.6-0.6-0.8-1l0,0c-0.1-0.5-0.1-0.9,0.2-1.3l0,0l0,0   C195.2,112.6,195.6,112.4,196.1,112.3L196.1,112.3z M196.8,115c0.2-0.1,0.4-0.2,0.6-0.4l0,0l0,0c0.1-0.2,0.2-0.5,0.2-0.8   c-0.1-0.3-0.2-0.5-0.4-0.6l0,0l0,0c-0.2-0.1-0.5-0.2-0.7-0.1c-0.2,0.1-0.5,0.2-0.6,0.4l0,0c-0.1,0.2-0.2,0.5-0.1,0.7   c0.1,0.2,0.2,0.5,0.4,0.6l0,0C196.3,115,196.5,115,196.8,115L196.8,115z M194.5,110.6l0.4,0.4l0.1,0.1l0,0.1   c-0.2,0.5-0.4,1-0.6,1.5c-0.2,0.4-0.5,0.8-0.8,1.2l0,0c-0.4,0.5-0.9,0.8-1.5,1c-0.6,0.1-1.1,0-1.6-0.4l0,0l0,0   c-0.4-0.4-0.7-0.9-0.6-1.4c0.1-0.6,0.3-1.2,0.8-1.7l0,0l0,0c0.3-0.3,0.7-0.7,1-0.9c0.4-0.3,0.9-0.6,1.4-0.9l0.1,0l0.1,0.1l0.4,0.4   l0.2,0.1l-0.2,0.1c-0.5,0.2-0.9,0.5-1.3,0.8c-0.4,0.3-0.7,0.6-1,1l0,0l0,0c-0.3,0.3-0.5,0.7-0.6,1.2c-0.1,0.3,0.1,0.6,0.3,0.8l0,0   l0,0c0.2,0.2,0.6,0.3,0.9,0.2c0.4-0.2,0.8-0.4,1.1-0.8l0,0c0.3-0.4,0.6-0.8,0.8-1.2c0.2-0.4,0.4-0.9,0.6-1.4l0.1-0.2L194.5,110.6z    M187.2,109.8c0,0.2,0.1,0.4,0.2,0.6l0,0l0,0c0.1,0.2,0.4,0.3,0.6,0.3c0.3,0,0.6-0.2,0.8-0.4l0,0l0.1-0.1l0.1,0.1l0.4,0.4l0.1,0.1   l-0.1,0.1c-0.3,0.3-0.8,0.5-1.3,0.5c-0.5,0-0.9-0.3-1.3-0.7l0,0l0,0c-0.3-0.3-0.5-0.7-0.5-1.1c0-0.4,0.2-0.8,0.5-1l0,0   c0.2-0.2,0.4-0.3,0.6-0.3c0.2,0,0.3,0,0.5,0c0-0.2,0-0.3,0.1-0.5c0.1-0.3,0.3-0.5,0.5-0.7l0,0c0.4-0.4,0.8-0.6,1.3-0.6   c0.5,0,0.9,0.3,1.2,0.7c0.3,0.4,0.5,0.8,0.5,1.3c0,0.5-0.2,0.9-0.6,1.2c-0.1,0.1-0.2,0.2-0.3,0.2c-0.1,0.1-0.2,0.1-0.3,0.2l-0.1,0   l-0.1-0.1l-0.4-0.4l-0.1-0.1l0.2-0.1c0.1,0,0.2-0.1,0.3-0.1c0.1-0.1,0.2-0.1,0.3-0.2c0.2-0.2,0.4-0.4,0.4-0.7   c0-0.3-0.1-0.5-0.3-0.7c-0.1-0.2-0.4-0.3-0.6-0.3c-0.3,0-0.6,0.2-0.8,0.4c-0.2,0.2-0.4,0.4-0.4,0.6c0,0.2,0,0.4,0.2,0.6l0.1,0.1   l-0.1,0.1l-0.3,0.3l-0.1,0.1l-0.1-0.1c-0.1-0.2-0.3-0.3-0.5-0.3c-0.2,0-0.4,0.1-0.5,0.2C187.3,109.4,187.2,109.6,187.2,109.8   L187.2,109.8z M185,107c0.2,0,0.5,0,0.7-0.2c0,0,0.1-0.1,0.1-0.1s0.1-0.1,0.1-0.1l0.1-0.1l0.1,0.1l0.3,0.5l0.1,0.1l-0.1,0.1   c0,0-0.1,0-0.1,0.1s-0.1,0.1-0.2,0.1l0,0c-0.4,0.2-0.8,0.3-1.2,0.2c-0.4-0.1-0.8-0.4-1-0.8l0,0c-0.2-0.4-0.4-0.8-0.3-1.2   c0.1-0.4,0.3-0.7,0.6-1l0,0l1.9-1.2l0,0h0c0.4-0.3,0.9-0.4,1.4-0.4c0.5,0.1,0.9,0.4,1.1,0.8l0,0l0,0c0.3,0.4,0.4,0.9,0.3,1.4   c-0.1,0.5-0.4,0.9-0.9,1.2l0,0c-0.1,0-0.2,0.1-0.2,0.1c-0.1,0-0.2,0.1-0.3,0.1l-0.1,0l-0.1-0.1l-0.3-0.5l-0.1-0.2l0.2-0.1   c0.1,0,0.2-0.1,0.3-0.1l0,0c0.1,0,0.1-0.1,0.2-0.1c0.3-0.2,0.5-0.4,0.6-0.7c0.1-0.3,0-0.5-0.1-0.8l0,0c-0.1-0.2-0.3-0.4-0.6-0.4   c-0.3,0-0.6,0.1-0.8,0.2l-2,1.3l0,0c-0.2,0.1-0.3,0.3-0.3,0.5c0,0.2,0,0.4,0.2,0.6l0,0l0,0C184.6,106.7,184.8,106.9,185,107   L185,107z M186.5,102.4c-0.2,0.2-0.4,0.3-0.7,0.4c-0.5,0.2-1.1,0.3-1.6,0.2c-0.6-0.1-1.1-0.4-1.5-0.9l0,0c0,0-0.2-0.2-0.5-0.5   c-0.1-0.1-0.2-0.2-0.3-0.3l0,0c-0.1-0.1-0.1-0.1-0.2-0.1c-0.1,0-0.2-0.1-0.2-0.1c-0.1,0-0.2,0-0.2,0l-0.1,0l0-0.1l-0.2-0.5   l-0.1-0.1l0.2,0c0.3-0.1,0.6,0,0.9,0.1c0.3,0.1,0.6,0.4,0.8,0.6l0,0l0.5,0.6l0,0c0.2,0.3,0.5,0.5,0.8,0.6c0-0.1-0.1-0.1-0.1-0.2v0   c-0.1-0.2-0.1-0.4-0.1-0.6c0-0.2,0.1-0.3,0.2-0.5c-0.2-0.1-0.3-0.1-0.5-0.3c-0.2-0.1-0.3-0.3-0.4-0.5l0,0c-0.3-0.7,0-1.6,0.7-2   c0.1,0,0.1,0,0.2-0.1l0,0c0.2-0.1,0.5-0.2,0.8-0.2l0,0c0.3,0,0.6,0,0.8,0l0.1,0l0,0.1l0.2,0.6l0.1,0.3l-0.3-0.1   c-0.2-0.1-0.5-0.1-0.7-0.1c-0.2,0-0.5,0.1-0.7,0.2l0,0c-0.2,0.1-0.4,0.2-0.6,0.4l0,0c-0.1,0.2-0.1,0.3,0,0.5l0,0   c0.1,0.2,0.2,0.3,0.4,0.4c0.2,0.1,0.4,0.1,0.6,0l0,0l0.5-0.2l0.1-0.1l0.1,0.1l0.2,0.5l0.1,0.1l-0.1,0.1l-0.5,0.2   c-0.2,0.1-0.3,0.2-0.4,0.4c-0.1,0.2-0.1,0.3,0,0.5l0,0c0.1,0.2,0.2,0.3,0.4,0.3c0.2,0.1,0.4,0,0.6-0.1c0.2-0.1,0.5-0.2,0.7-0.4   c0.2-0.2,0.4-0.4,0.5-0.6l0.1-0.3l0.1,0.3l0.2,0.6l0,0.1l0,0.1C186.9,102,186.7,102.2,186.5,102.4L186.5,102.4z M185,95.1L185,95.1   c0.2,0.5,0.1,1-0.2,1.4c-0.3,0.4-0.7,0.6-1.2,0.7l0,0l-3.4,0.8l-0.1,0l0-0.1l-0.1-0.6l0-0.1l0.1,0l3.4-0.8l0,0   c0.3,0,0.6-0.2,0.8-0.4c0.1-0.2,0.2-0.5,0.1-0.7v0c-0.1-0.5-0.6-0.8-1.1-0.7c0,0-0.1,0-0.1,0l0,0c-0.1,0-0.2,0.1-0.3,0.1   c-0.1,0.1-0.2,0.2-0.3,0.3l0,0c-0.1,0.1-0.2,0.2-0.2,0.3c-0.1,0.1-0.2,0.1-0.3,0.2l-0.1,0l0-0.1l-0.1-0.6l0-0.1l0.1,0   c0.1,0,0.1,0,0.2-0.1c0.1,0,0.1-0.1,0.2-0.2l0,0c0.1-0.2,0.2-0.3,0.4-0.4c0.2-0.1,0.3-0.2,0.5-0.2h0c0.4-0.1,0.9,0,1.2,0.2   C184.6,94.2,184.9,94.6,185,95.1L185,95.1z M178.8,91.5L178.8,91.5 M181.1,89.3L181.1,89.3 M182.8,92.9c-0.5,0.1-0.9,0.2-1.4,0.3   l0,0c-0.6,0.1-1.3-0.1-1.8-0.4c-0.5-0.3-0.8-0.8-0.8-1.4l0,0c-0.1-0.6,0.2-1.1,0.6-1.5c0.5-0.4,1.1-0.6,1.7-0.6l0,0   c0.5,0,0.9,0,1.4,0.1c0.5,0.1,1.1,0.2,1.6,0.3l0.1,0l0,0.1l0,0.6l0,0.2l-0.2-0.1c-0.5-0.2-1-0.3-1.5-0.4c-0.5-0.1-0.9-0.1-1.4-0.1   c-0.5,0-0.9,0.1-1.3,0.4c-0.3,0.2-0.4,0.5-0.4,0.8l0,0c0,0.3,0.2,0.6,0.5,0.8c0.4,0.2,0.9,0.3,1.3,0.2h0c0.5,0,1-0.1,1.4-0.3   c0.5-0.1,0.9-0.3,1.4-0.5l0.2-0.1l0,0.2l0,0.6l0,0.1l-0.1,0C183.8,92.6,183.3,92.8,182.8,92.9L182.8,92.9z M180.5,86.8   c-0.2,0.1-0.4,0.2-0.6,0.1c-0.3,0-0.6-0.2-0.8-0.4l0,0c-0.2-0.3-0.2-0.6-0.2-1l0,0c0-0.3,0.2-0.6,0.4-0.9l0,0   c0.2-0.2,0.5-0.3,0.9-0.3l0,0c0.2,0,0.3,0.1,0.5,0.2c0,0,0.1,0.1,0.1,0.1c0.1-0.4,0.3-0.7,0.6-0.9c0.4-0.3,0.9-0.4,1.4-0.3l0,0   c0.6,0,1.1,0.3,1.4,0.8c0.4,0.6,0.5,1.3,0.4,2l0,0v0l0,0c0,0.6-0.3,1.3-0.7,1.8c-0.4,0.4-1,0.6-1.5,0.6l0,0c-0.3,0-0.6-0.1-0.9-0.2   c-0.3-0.1-0.5-0.3-0.7-0.5l0,0l0-0.1l0.1-0.6l0-0.3l0.2,0.2c0.2,0.2,0.4,0.4,0.6,0.5c0.2,0.1,0.5,0.2,0.8,0.2   c0.4,0.1,0.8-0.1,1-0.3c0.3-0.4,0.5-0.8,0.5-1.3c0.1-0.4,0-0.9-0.3-1.3c-0.3-0.3-0.7-0.5-1.1-0.5c-0.3,0-0.5,0-0.7,0.2   c-0.1,0.1-0.2,0.1-0.2,0.2c0.2-0.1,0.3-0.1,0.5-0.1l0,0c0.3,0,0.5,0.2,0.7,0.4c0.2,0.3,0.3,0.6,0.2,1v0l0,0v0   c0,0.3-0.2,0.7-0.4,0.9c-0.2,0.2-0.5,0.3-0.8,0.3l0,0c-0.2,0-0.5-0.1-0.6-0.3l0,0c-0.1-0.1-0.2-0.2-0.2-0.3   C180.7,86.7,180.6,86.7,180.5,86.8L180.5,86.8z M181.3,85.5c-0.1,0.1-0.2,0.2-0.2,0.3c0,0.1,0,0.3,0.1,0.4c0.1,0.1,0.2,0.2,0.4,0.2   c0.1,0,0.3,0,0.4-0.1l0,0c0.1-0.1,0.2-0.2,0.2-0.3c0-0.1,0-0.2-0.1-0.3c-0.1-0.1-0.2-0.1-0.3-0.2C181.6,85.4,181.4,85.4,181.3,85.5   L181.3,85.5z M180.5,85.7L180.5,85.7 M179.7,85.3c-0.1,0.1-0.2,0.2-0.2,0.3v0l0,0c0,0.1,0,0.3,0.1,0.4l0,0c0.1,0.1,0.2,0.2,0.4,0.2   h0c0.1,0,0.3,0,0.4-0.1c0.1-0.1,0.2-0.2,0.2-0.3l0,0l0,0c0-0.1,0-0.2-0.1-0.3l0,0c-0.1-0.1-0.2-0.2-0.4-0.2   C179.9,85.2,179.8,85.2,179.7,85.3L179.7,85.3z M181.2,82c-0.1,0-0.1,0-0.2,0l0,0c-0.4-0.1-0.7-0.4-0.9-0.7   c-0.2-0.4-0.2-0.9-0.1-1.3l0,0c0.1-0.4,0.3-0.8,0.7-1.1c0.3-0.2,0.8-0.3,1.1-0.2l0,0l2.2,0.6l0,0c0.5,0.1,1,0.4,1.3,0.8   c0.2,0.4,0.3,0.9,0.1,1.4c-0.1,0.5-0.4,0.9-0.9,1.2c-0.4,0.2-1,0.3-1.5,0.1c-0.1,0-0.2-0.1-0.3-0.1l0,0c-0.1,0-0.2-0.1-0.3-0.1   l-0.1-0.1l0-0.1l0.2-0.6l0-0.2l0.2,0.1c0.1,0,0.2,0.1,0.2,0.1c0.1,0,0.1,0.1,0.2,0.1l0,0c0.3,0.1,0.6,0.1,0.9,0   c0.2-0.1,0.4-0.3,0.5-0.6c0.1-0.2,0.1-0.5-0.1-0.7c-0.2-0.2-0.4-0.4-0.7-0.4l-2.3-0.6l0,0c-0.2-0.1-0.4,0-0.6,0.1   c-0.2,0.1-0.3,0.3-0.3,0.5l0,0c-0.1,0.2-0.1,0.5,0,0.7l0,0c0.1,0.2,0.3,0.3,0.6,0.4l0,0c0.1,0,0.1,0,0.1,0s0.1,0,0.1,0l0.2,0l0,0.2   l-0.2,0.6l0,0.1l-0.1,0C181.3,82,181.2,82,181.2,82L181.2,82z M183.1,76.2c-0.2,0-0.4,0-0.6-0.1l0,0c-0.3-0.1-0.5-0.4-0.6-0.7   c-0.1-0.3,0-0.7,0.1-1l0,0l0,0c0.1-0.3,0.4-0.5,0.6-0.7c0.3-0.1,0.6-0.1,0.9,0l0,0c0.2,0.1,0.3,0.2,0.4,0.3l0,0c0,0,0,0.1,0.1,0.1   c0.2-0.3,0.5-0.5,0.8-0.7l0,0c0.5-0.1,1-0.1,1.4,0.1l0,0c0.5,0.2,0.9,0.7,1.1,1.3c0.1,0.7,0,1.3-0.3,1.9l0,0l0,0   c-0.3,0.6-0.7,1.1-1.3,1.4c-0.5,0.3-1.1,0.3-1.6,0l0,0c-0.3-0.1-0.6-0.3-0.8-0.5c-0.2-0.2-0.4-0.5-0.5-0.7l0-0.1l0-0.1l0.2-0.5   L183.1,76.2l0.2,0.3c0.1,0.2,0.3,0.5,0.4,0.7c0.2,0.2,0.4,0.4,0.7,0.5l0,0c0.3,0.2,0.8,0.2,1.1,0c0.4-0.2,0.7-0.6,0.9-1l0,0v0l0,0   c0.2-0.4,0.3-0.9,0.2-1.3c-0.1-0.4-0.5-0.7-0.9-0.9l0,0c-0.2-0.1-0.5-0.2-0.8-0.1c-0.1,0-0.2,0.1-0.3,0.1c0.2,0,0.3,0,0.5,0.1l0,0   c0.3,0.1,0.5,0.4,0.5,0.7c0.1,0.7-0.2,1.3-0.8,1.7c-0.3,0.1-0.6,0.1-0.9,0l0,0c-0.2-0.1-0.4-0.3-0.5-0.5c-0.1-0.1-0.1-0.2-0.1-0.4   C183.3,76.2,183.2,76.2,183.1,76.2L183.1,76.2z M184.2,75.2c-0.1,0-0.2,0.1-0.3,0.3l0,0c-0.1,0.1-0.1,0.2,0,0.4   c0.1,0.1,0.2,0.2,0.3,0.3l0,0c0.2,0.1,0.5,0.1,0.6-0.2c0,0,0,0,0-0.1l0,0c0.1-0.1,0.1-0.2,0-0.4c0-0.1-0.1-0.2-0.2-0.2l0,0   C184.6,75.2,184.4,75.2,184.2,75.2L184.2,75.2z M183.5,75.2L183.5,75.2 M182.6,74.8L182.6,74.8 M182.8,74.5c-0.1,0-0.2,0.1-0.3,0.3   l0,0c-0.1,0.1-0.1,0.2,0,0.4c0.1,0.1,0.2,0.2,0.3,0.3l0,0c0.1,0.1,0.2,0.1,0.4,0c0.1-0.1,0.2-0.1,0.3-0.3l0,0   c0.1-0.1,0.1-0.2,0-0.4c-0.1-0.1-0.2-0.2-0.3-0.3l0,0C183.1,74.5,183,74.5,182.8,74.5L182.8,74.5z M187,73.2   c-0.4-0.2-0.9-0.4-1.3-0.7l0,0l0,0c-0.5-0.3-0.9-0.8-1.1-1.4c-0.2-0.5-0.1-1.1,0.3-1.6l0,0c0.3-0.5,0.8-0.8,1.4-0.8   c0.6,0,1.2,0.2,1.7,0.6l0,0c0.4,0.3,0.7,0.6,1,0.9c0.4,0.4,0.7,0.8,1,1.3l0.1,0.1l-0.1,0.1l-0.3,0.5l-0.1,0.2l-0.1-0.2   c-0.3-0.4-0.6-0.8-0.9-1.2c-0.3-0.4-0.7-0.7-1.1-0.9c-0.4-0.3-0.8-0.5-1.2-0.5c-0.3,0-0.6,0.1-0.8,0.4l0,0l0,0   c-0.2,0.3-0.2,0.6-0.1,0.9c0.2,0.4,0.5,0.8,0.9,1l0,0l0,0c0.4,0.3,0.8,0.5,1.3,0.7c0.5,0.2,0.9,0.4,1.4,0.5l0.2,0l-0.1,0.2   l-0.3,0.5l-0.1,0.1l-0.1,0C188,73.6,187.5,73.4,187,73.2L187,73.2z M238.8,75c-0.1,0.1-0.3,0.3-0.4,0.4l0,0   c-0.4,0.2-0.8,0.3-1.3,0.2c-0.5-0.1-0.9-0.5-1.1-0.9l0,0l0,0l0,0c-0.3-0.4-0.4-0.9-0.3-1.4c0.2-0.5,0.5-0.8,0.9-1l3-1.8l0.1-0.1   l0.1,0.1l0.3,0.5l0.1,0.1l-0.1,0.1l-3,1.8h0c-0.3,0.1-0.5,0.4-0.6,0.6l0,0c-0.1,0.3,0,0.5,0.1,0.7v0c0.1,0.2,0.3,0.4,0.6,0.5   c0.3,0.1,0.5,0,0.7-0.1l0,0c0.1-0.1,0.2-0.1,0.3-0.2c0.1-0.1,0.1-0.3,0.2-0.4l0,0c0-0.1,0.1-0.2,0.2-0.3c0.1-0.1,0.1-0.2,0.2-0.2   l0.1-0.1l0.1,0.1l0.3,0.5l0.1,0.1l-0.1,0.1c-0.1,0-0.1,0.1-0.1,0.1c0,0.1-0.1,0.1-0.1,0.2C239,74.6,238.9,74.8,238.8,75L238.8,75z    M238.5,77.2c-0.1,0.2-0.1,0.5,0,0.8l0,0c0.1,0.3,0.3,0.5,0.6,0.6c0.4,0,0.8,0,1.1-0.2c0.3-0.1,0.5-0.3,0.7-0.5   c0.1-0.3,0.2-0.5,0.3-0.8c0-0.4,0.1-0.7,0.3-1c0.2-0.3,0.4-0.5,0.7-0.6l0,0c0,0,0.1,0,0.1-0.1l0,0c0.1,0,0.1,0,0.2-0.1l0.1,0l0,0.1   l0.2,0.5l0.1,0.1l-0.1,0c0,0-0.1,0-0.2,0.1l0,0l0,0c-0.2,0.1-0.3,0.2-0.4,0.3c-0.1,0.2-0.2,0.5-0.2,0.8c-0.1,0.4-0.2,0.8-0.4,1.1   c-0.2,0.3-0.5,0.5-0.9,0.7c-0.5,0.2-1.1,0.3-1.6,0.2c-0.5-0.2-0.9-0.5-1.1-1c-0.2-0.4-0.2-0.9,0-1.4c0.2-0.6,0.7-1,1.3-1.1   c0.1,0,0.3,0,0.4,0h0.1l0,0.1l0.2,0.5l0.1,0.2l-0.2,0c-0.1,0-0.2,0-0.3,0l0,0c-0.1,0-0.2,0-0.3,0.1l0,0   C238.9,76.8,238.6,77,238.5,77.2L238.5,77.2z M239.9,83.3c-0.4-0.3-0.7-0.7-0.8-1.1l0,0c-0.1-0.5-0.1-1,0.2-1.4   c0.3-0.4,0.7-0.7,1.2-0.8l3.4-0.9l0.1,0l0,0.1l0.1,0.6l0,0.1l-0.1,0l-2.2,0.6l1.3,1l0.1,0.1l0.2,0.7l-0.2,0.1l-0.8-0.6   c0,0.3,0,0.7-0.2,1c-0.2,0.4-0.6,0.7-1,0.8l0,0C240.8,83.6,240.3,83.5,239.9,83.3L239.9,83.3z M241.6,82.2c0.1-0.2,0.2-0.5,0.1-0.7   c-0.1-0.3-0.2-0.5-0.4-0.6c-0.2-0.1-0.5-0.2-0.7-0.1l0,0c-0.2,0.1-0.5,0.2-0.6,0.4c-0.1,0.2-0.2,0.5-0.1,0.7l0,0   c0.1,0.2,0.2,0.5,0.4,0.6l0,0c0.2,0.1,0.5,0.2,0.7,0.1C241.3,82.6,241.5,82.4,241.6,82.2L241.6,82.2z M243.6,84.2c0,0,0.1,0,0.2,0   c0.4-0.1,0.8,0.1,1.2,0.4c0.3,0.3,0.5,0.7,0.5,1.2l0,0l0,0c0.1,0.4,0,0.8-0.3,1.2c-0.2,0.3-0.6,0.6-1,0.6h0l-2.2,0.2   c-0.5,0.1-1,0-1.5-0.3l0,0c-0.4-0.3-0.6-0.7-0.6-1.2l0,0c-0.1-0.5,0.1-1,0.3-1.4c0.3-0.4,0.8-0.7,1.3-0.7h0c0.1,0,0.2,0,0.3,0   c0.1,0,0.2,0,0.3,0l0.1,0l0,0.1l0.1,0.6l0,0.2l-0.2,0c-0.1,0-0.2,0-0.3,0c-0.1,0-0.2,0-0.2,0c-0.3,0-0.6,0.1-0.8,0.4   c-0.2,0.2-0.3,0.5-0.2,0.8c0,0.2,0.1,0.5,0.3,0.6c0.3,0.1,0.5,0.2,0.8,0.2l2.4-0.2c0.2,0,0.4-0.1,0.5-0.3c0.1-0.2,0.2-0.4,0.1-0.6   l0,0c0-0.2-0.1-0.5-0.3-0.6c-0.2-0.1-0.4-0.2-0.7-0.1l0,0c-0.1,0-0.1,0-0.2,0s-0.1,0-0.1,0l-0.2,0l0-0.2l-0.1-0.6l0-0.1l0.1,0   C243.5,84.2,243.6,84.2,243.6,84.2L243.6,84.2z M244.6,93.5L244.6,93.5 M242.8,88.8c0.4-0.1,0.8-0.2,1.2-0.1c0.5,0,0.9,0.2,1.3,0.5   c0.3,0.3,0.4,0.7,0.4,1.1l0,0c0,0.2-0.1,0.3-0.2,0.5c-0.1,0.1-0.2,0.2-0.3,0.3c0.1,0.1,0.2,0.2,0.2,0.3c0.1,0.2,0.1,0.4,0.1,0.6   l0,0c0,0.2-0.1,0.4-0.2,0.5c-0.1,0.1-0.2,0.2-0.3,0.3c0.1,0.1,0.2,0.2,0.2,0.4c0.1,0.2,0.1,0.4,0.1,0.6l0,0c0,0.3-0.2,0.6-0.5,0.9   c-0.3,0.2-0.7,0.3-1.1,0.3l0,0c-0.2,0-0.4-0.1-0.6-0.2c-0.2-0.1-0.4-0.2-0.6-0.3l-0.1,0l0-0.1l0.1-0.6l0-0.2l0.2,0.1   c0.2,0.1,0.4,0.2,0.6,0.3l0,0c0.2,0.1,0.4,0.1,0.6,0.1l0,0c0.2,0,0.4,0,0.5-0.1l0,0c0.1-0.1,0.2-0.2,0.2-0.4l0,0   c0-0.1,0-0.3-0.1-0.4c-0.1-0.1-0.3-0.2-0.4-0.2l0,0l-0.9-0.1l-0.1,0l0-0.1l0-0.4l0-0.1l0.1,0l0.9,0.1l0,0c0.2,0,0.3,0,0.5-0.1l0,0   c0.1-0.1,0.2-0.2,0.2-0.4l0,0c0-0.1,0-0.3-0.1-0.4l0,0c-0.1-0.1-0.3-0.2-0.4-0.2l0,0l-0.9-0.1l-0.1,0l0-0.1l0-0.4l0-0.1l0.1,0   l0.9,0.1c0.2,0,0.3,0,0.5-0.1c0.1-0.1,0.2-0.2,0.2-0.3c0-0.2,0-0.3-0.2-0.4c-0.3-0.1-0.5-0.2-0.8-0.2l0,0c-0.5-0.1-0.9,0-1.3,0.3   c-0.3,0.3-0.5,0.7-0.6,1.2l0,0c-0.1,0.7-0.3,1.5-0.6,2.1c-0.3,0.5-0.9,0.8-1.4,0.7h-0.1l0-0.1l0.1-0.6l0-0.1h0.1   c0.5,0,0.9-0.3,1-0.7c0.3-0.9,0.5-1.8,0.5-2.8c0-0.1,0-0.3,0-0.4l0,0c0-0.1,0-0.3,0-0.4l0-0.1l0.1,0l0.4,0l0.1,0l0,0.1l0,0.4   C242.4,89.1,242.6,88.9,242.8,88.8L242.8,88.8z M242.7,96.6l0.2-0.6l0-0.1l0.1,0h0l0,0c0.5,0.1,0.9,0.4,1.2,0.8   c0.2,0.4,0.3,0.9,0.1,1.4l0,0v0l0,0l0,0c-0.1,0.4-0.4,0.8-0.7,1c-0.4,0.2-0.9,0.3-1.3,0.1h0l-2-0.6l0,0c-0.5-0.1-0.9-0.4-1.2-0.8   c-0.2-0.4-0.3-1-0.1-1.4l0,0l0,0l0,0c0.1-0.5,0.4-0.9,0.8-1.1c0.4-0.2,0.9-0.3,1.3-0.2l0,0c0.4,0.1,0.8,0.4,1,0.8   c0.2,0.4,0.3,0.9,0.1,1.4l0,0l0,0l0,0c-0.1,0.2-0.2,0.4-0.3,0.6c-0.1,0.1-0.2,0.2-0.2,0.3l0.8,0.2c0.2,0.1,0.5,0.1,0.8,0   c0.2-0.1,0.3-0.3,0.4-0.5l0,0c0.1-0.3,0-0.5-0.1-0.8c-0.2-0.2-0.4-0.4-0.7-0.5l-0.1,0L242.7,96.6z M239.7,97.4   c0.1,0.2,0.4,0.4,0.6,0.5l0,0c0.2,0.1,0.5,0,0.7-0.1c0.2-0.1,0.4-0.3,0.4-0.6l0,0c0.1-0.2,0-0.5-0.1-0.7c-0.1-0.2-0.3-0.4-0.6-0.5   l0,0c-0.2-0.1-0.5,0-0.7,0.1c-0.2,0.1-0.4,0.3-0.5,0.6l0,0C239.6,96.9,239.6,97.2,239.7,97.4L239.7,97.4z M240.1,99.6l2,0.9   c0.4,0.1,0.7,0.4,0.8,0.8c0.1,0.3,0.1,0.7-0.1,1c-0.1,0.2-0.2,0.4-0.4,0.5l0,0c-0.1,0.1-0.2,0.2-0.4,0.2c0.1,0.1,0.1,0.2,0.1,0.4   c0,0.2,0,0.4-0.1,0.6l0,0c-0.1,0.2-0.2,0.3-0.3,0.4c-0.1,0.1-0.3,0.2-0.5,0.3l-0.1,0l-0.1,0l-0.6-0.3l0-0.3c0.2,0,0.3-0.1,0.5-0.2   c0.1-0.1,0.2-0.2,0.3-0.3l0,0c0.1-0.1,0.1-0.2,0-0.3l0,0c-0.1-0.1-0.2-0.2-0.4-0.3l-0.4-0.2l-0.1-0.1l0.1-0.1l0.2-0.5l0.1-0.1   l0.1,0.1l0.4,0.2c0.1,0.1,0.3,0.1,0.5,0.1c0.1-0.1,0.3-0.2,0.3-0.3l0,0c0.1-0.1,0.1-0.3,0-0.4c-0.1-0.2-0.2-0.3-0.4-0.3l-1.1-0.5   c0,0.1,0,0.3,0,0.4c0,0.2-0.1,0.5-0.2,0.7l0,0l0,0l0,0c-0.2,0.5-0.5,0.8-1,1.1c-0.4,0.2-0.9,0.2-1.4,0l0,0l0,0   c-0.4-0.2-0.7-0.5-0.9-1c-0.1-0.5-0.1-1,0.2-1.5l0,0v0v0l0,0c0.2-0.5,0.5-0.9,1-1.1C239,99.3,239.6,99.3,240.1,99.6L240.1,99.6   L240.1,99.6z M239.9,101.6L239.9,101.6L239.9,101.6L239.9,101.6L239.9,101.6c0.1-0.3,0.2-0.5,0.1-0.8c-0.1-0.2-0.3-0.5-0.5-0.6l0,0   l0,0c-0.2-0.1-0.5-0.1-0.8,0c-0.3,0.1-0.5,0.3-0.6,0.6c-0.1,0.3-0.2,0.6-0.1,0.8c0.1,0.2,0.3,0.4,0.5,0.5l0,0   c0.2,0.1,0.5,0.1,0.7,0C239.5,102.1,239.7,101.9,239.9,101.6L239.9,101.6z M237.8,103.9c0.4,0.2,0.9,0.4,1.3,0.6l0,0h0l0,0   c0.5,0.3,0.9,0.8,1.2,1.4c0.2,0.5,0.1,1.1-0.2,1.6l0,0l0,0l0,0l0,0c-0.3,0.5-0.8,0.8-1.4,0.8c-0.6,0-1.2-0.2-1.7-0.6l0,0h0l0,0   c-0.4-0.3-0.7-0.6-1.1-0.9c-0.4-0.4-0.7-0.8-1-1.2l-0.1-0.1l0.1-0.1l0.3-0.5l0.1-0.2l0.1,0.2c0.3,0.4,0.6,0.8,0.9,1.2   c0.3,0.3,0.7,0.6,1.1,0.9l0,0c0.4,0.3,0.8,0.4,1.3,0.5c0.3,0,0.6-0.1,0.8-0.4l0,0c0.2-0.3,0.2-0.6,0.1-0.9c-0.2-0.4-0.5-0.7-0.9-1   c-0.4-0.3-0.8-0.5-1.3-0.7c-0.5-0.2-0.9-0.3-1.4-0.4l-0.2,0l0.1-0.2l0.3-0.5l0.1-0.1l0.1,0C236.8,103.5,237.3,103.7,237.8,103.9z    M234.8,109.4L234.8,109.4L234.8,109.4c0.3-0.3,0.7-0.6,1.1-0.6c0.4-0.1,0.8,0.1,1.1,0.4h0l0,0c0.3,0.3,0.5,0.7,0.5,1.1   c0,0.5-0.2,0.9-0.5,1.2l0,0l0,0l0,0c-0.2,0.2-0.4,0.3-0.6,0.4c-0.2,0.1-0.4,0.1-0.6,0.1c0,0.2,0,0.4-0.1,0.6   c-0.1,0.2-0.2,0.5-0.4,0.7l0,0l0,0l0,0c-0.2,0.3-0.6,0.4-0.9,0.4c-0.4,0-0.7-0.1-1-0.4l0,0l0,0l0,0c-0.2-0.2-0.4-0.5-0.4-0.8   c0-0.2,0-0.4,0-0.6c-0.2,0-0.4,0-0.5,0c-0.3-0.1-0.6-0.2-0.8-0.5c-0.4-0.3-0.6-0.8-0.5-1.3c0.1-0.5,0.3-1,0.7-1.4l0,0l0,0l0,0   c0.4-0.4,0.8-0.7,1.3-0.8c0.5-0.1,1,0,1.3,0.4l0,0c0.1,0.1,0.2,0.2,0.2,0.2c0.1,0.1,0.1,0.1,0.2,0.2l0,0.1l-0.1,0.1l-0.4,0.4   l-0.1,0.1l-0.1-0.2c0-0.1-0.1-0.1-0.1-0.2c0,0,0-0.1-0.1-0.1l0,0c-0.2-0.2-0.5-0.3-0.8-0.3c-0.3,0-0.6,0.2-0.8,0.4l0,0l0,0l0,0l0,0   c-0.3,0.2-0.4,0.5-0.4,0.9c0,0.3,0.1,0.6,0.4,0.8l0,0l0,0l0,0c0.2,0.2,0.4,0.3,0.6,0.4c0.2,0,0.3,0,0.4-0.2l0.3-0.3l0.1-0.1   l0.1,0.1l0.4,0.4l0.1,0.1l-0.1,0.1l-0.3,0.3l0,0c-0.1,0.1-0.2,0.3-0.2,0.5c0,0.2,0.1,0.4,0.3,0.5l0,0c0.1,0.1,0.3,0.2,0.4,0.2   c0.2,0,0.3-0.1,0.5-0.2l0,0l0,0c0.1-0.1,0.2-0.2,0.2-0.4c0-0.1,0-0.3,0-0.4c0,0-0.1-0.1-0.1-0.1l0,0c-0.1,0-0.1-0.1-0.2-0.1l0,0   l0,0l0,0c-0.3-0.3-0.4-0.7-0.4-1C234.3,110.2,234.5,109.7,234.8,109.4L234.8,109.4z M235.9,111.3c0.2,0,0.4-0.1,0.6-0.3l0,0l0,0   l0,0c0.2-0.2,0.3-0.4,0.3-0.6c0-0.2-0.1-0.4-0.3-0.6l0,0l0,0l0,0c-0.1-0.1-0.3-0.2-0.5-0.2c-0.2,0-0.4,0.1-0.5,0.3l0,0l0,0   c-0.2,0.2-0.3,0.4-0.3,0.6c0,0.2,0.1,0.4,0.2,0.6C235.5,111.2,235.7,111.3,235.9,111.3L235.9,111.3z M230.4,111.4   c0.2,0.2,0.4,0.4,0.6,0.7l0,0l1.2,1.8c0.3,0.3,0.4,0.7,0.4,1.2c-0.1,0.4-0.3,0.7-0.6,0.9c-0.3,0.2-0.7,0.3-1.1,0.2   c0,0.2-0.1,0.3-0.1,0.5c-0.1,0.2-0.3,0.4-0.5,0.5l0,0l0,0c-0.3,0.2-0.7,0.3-1.1,0.2c-0.4-0.1-0.7-0.4-0.9-0.8l0,0l0,0l0,0l-1.2-1.8   c-0.2-0.2-0.3-0.5-0.4-0.8c-0.1-0.3-0.2-0.5-0.2-0.8l0-0.1l0.1,0l0.5-0.3l0.2-0.1l0,0.2c0.1,0.3,0.1,0.5,0.2,0.8   c0.1,0.2,0.2,0.4,0.3,0.6l1.3,1.8v0c0.1,0.2,0.3,0.3,0.5,0.4c0.1,0.1,0.3,0,0.4-0.1l0,0c0.1-0.1,0.2-0.2,0.3-0.4   c0-0.2-0.1-0.4-0.2-0.6l-0.9-1.2l-0.1-0.1l0.1-0.1l0.5-0.3l0.1-0.1l0.1,0.1l0.9,1.2l0,0l0,0l0,0c0.1,0.2,0.3,0.3,0.5,0.4   c0.2,0,0.3,0,0.5-0.1l0,0c0.1-0.1,0.2-0.2,0.2-0.4c0-0.2-0.1-0.4-0.2-0.6l-1.3-1.8c-0.1-0.2-0.3-0.4-0.5-0.5   c-0.2-0.2-0.4-0.4-0.7-0.5l-0.2-0.1l0.2-0.1l0.5-0.3l0.1,0l0.1,0C229.9,111.1,230.2,111.3,230.4,111.4L230.4,111.4z M202.9,62.5   l-0.6,0.2l-0.1,0l-0.1-0.1c-0.3-0.4-0.6-0.8-0.9-1.3c-0.2-0.4-0.4-0.8-0.6-1.3c-0.2-0.6-0.2-1.2-0.1-1.9l0,0   c0.2-0.5,0.6-0.9,1.2-1.1l0,0c0.5-0.2,1.1-0.1,1.6,0.2c0.5,0.4,0.9,0.9,1,1.5c0.1,0.4,0.2,0.9,0.3,1.4c0.1,0.5,0.1,1.1,0,1.6v0.1   l-0.1,0l-0.6,0.2l-0.2,0.1l0-0.2c0-0.5,0-1,0-1.5c0-0.5-0.1-0.9-0.3-1.4l0,0c-0.1-0.4-0.4-0.8-0.7-1.1c-0.2-0.2-0.6-0.3-0.9-0.2   l0,0l0,0c-0.3,0.1-0.5,0.3-0.6,0.6c-0.1,0.5-0.1,0.9,0.1,1.3l0,0c0.2,0.5,0.4,0.9,0.6,1.3c0.2,0.4,0.5,0.8,0.9,1.2l0.1,0.2   L202.9,62.5z M205.8,59.5l0.4,0c-0.2-0.1-0.4-0.3-0.5-0.5c-0.2-0.3-0.3-0.7-0.4-1.1c-0.1-0.5,0-0.9,0.2-1.3c0.2-0.3,0.6-0.6,1-0.6   l0,0c0.2,0,0.4,0,0.5,0.1c0.1,0,0.2,0.1,0.3,0.2c0.1-0.1,0.2-0.2,0.3-0.3l0,0c0.2-0.1,0.3-0.2,0.5-0.2l0,0c0.2,0,0.4,0,0.6,0.1   c0.1,0,0.2,0.1,0.4,0.2c0.1-0.1,0.2-0.2,0.3-0.3c0.2-0.1,0.4-0.2,0.6-0.2l0,0c0.3,0,0.7,0.1,0.9,0.3c0.3,0.3,0.5,0.6,0.5,1l0,0l0,0   c0,0.2,0,0.4,0,0.6c0,0.2-0.1,0.5-0.2,0.7l0,0.1l-0.1,0l-0.6,0.1l-0.2,0l0.1-0.2c0.1-0.2,0.1-0.4,0.2-0.6c0-0.2,0-0.4,0-0.6   c0-0.2-0.1-0.4-0.2-0.5c-0.1-0.1-0.3-0.1-0.4-0.1l0,0c-0.1,0-0.3,0.1-0.4,0.2c-0.1,0.1-0.1,0.3-0.1,0.5l0,0l0.1,0.9l0,0.1l-0.1,0   l-0.4,0.1l-0.1,0l0-0.1l-0.1-0.9c0-0.2-0.1-0.3-0.2-0.4c-0.1-0.1-0.3-0.1-0.4-0.1l0,0c-0.1,0-0.3,0.1-0.4,0.2   c-0.1,0.1-0.1,0.3-0.1,0.5l0.1,0.9l0,0.1l-0.1,0l-0.4,0.1l-0.1,0l0-0.1l-0.1-0.9c0-0.2-0.1-0.3-0.2-0.5c-0.1-0.1-0.2-0.1-0.3-0.1   c-0.2,0-0.3,0.1-0.4,0.2c-0.1,0.3-0.1,0.6,0,0.9c0,0.5,0.2,0.9,0.6,1.2c0.4,0.3,0.8,0.4,1.3,0.3c0.7-0.1,1.5,0,2.2,0.2   c0.6,0.2,0.9,0.7,1,1.3l0,0.1l-0.1,0l-0.6,0.1l-0.1,0l0-0.1c-0.1-0.4-0.5-0.8-0.9-0.8c-0.9-0.1-1.9-0.1-2.8,0.1   c-0.1,0-0.2,0-0.4,0.1s-0.2,0-0.4,0.1l-0.1,0l0-0.1l-0.1-0.4l0-0.1L205.8,59.5z M213.4,59.4c0.1,0.5,0.2,1,0.3,1.4l0.1,0.2l-0.2,0   l-0.6,0l-0.1,0l0-0.1c-0.2-0.5-0.3-1-0.3-1.6l0,0c-0.1-0.5-0.1-0.9-0.1-1.4c0-0.6,0.2-1.2,0.6-1.7c0.7-0.7,1.9-0.8,2.6,0   c0.1,0.1,0.2,0.2,0.2,0.3c0.3,0.5,0.5,1.2,0.4,1.8c0,0.5-0.1,0.9-0.3,1.4c-0.2,0.5-0.3,1-0.6,1.5l0,0.1l-0.1,0l-0.6,0l-0.2,0   l0.1-0.2c0.2-0.4,0.4-0.9,0.6-1.4c0.1-0.5,0.2-0.9,0.3-1.4c0.1-0.5,0-0.9-0.2-1.3c-0.2-0.5-0.8-0.6-1.3-0.4   c-0.1,0.1-0.2,0.2-0.3,0.3c-0.3,0.4-0.4,0.8-0.4,1.3C213.3,58.4,213.3,58.9,213.4,59.4L213.4,59.4z M219.7,61.5   c-0.4,0.3-0.9,0.4-1.4,0.3l0,0c-0.5-0.1-0.9-0.4-1.2-0.8c-0.3-0.4-0.3-0.9-0.2-1.3l0,0c0-0.1,0.1-0.3,0.1-0.4l0,0   c0.1-0.1,0.1-0.2,0.2-0.3l0.1-0.1l0.1,0l0.6,0.1l0.2,0l-0.1,0.2c-0.1,0.2-0.2,0.4-0.3,0.6v0c-0.1,0.3,0,0.6,0.1,0.8l0,0   c0.1,0.2,0.4,0.4,0.6,0.4h0c0.3,0.1,0.6,0,0.8-0.2c0.3-0.3,0.4-0.6,0.5-1c0.1-0.3,0.1-0.6,0-0.9c-0.1-0.3-0.3-0.5-0.5-0.7l0,0   c-0.3-0.2-0.5-0.5-0.7-0.8c-0.1-0.3-0.1-0.6-0.1-0.9c0-0.1,0-0.1,0-0.2l0,0c0-0.1,0-0.1,0.1-0.2l0-0.1l0.1,0l0.6,0.1l0.2,0   l-0.1,0.1c0,0.1,0,0.1-0.1,0.2l0,0.1c-0.1,0.2,0,0.4,0,0.5c0.1,0.2,0.3,0.4,0.5,0.6c0.3,0.3,0.5,0.6,0.7,1c0.1,0.4,0.1,0.7,0,1.1   C220.4,60.6,220.2,61.1,219.7,61.5L219.7,61.5z M222.2,63L222.2,63c-0.5-0.1-0.9-0.5-1.1-0.9c-0.1-0.5-0.1-1,0.1-1.4l1.3-3.3l0-0.1   l0.1,0.1l0.5,0.2l0.1,0.1l0,0.1l-1.3,3.3l0,0c-0.1,0.3-0.2,0.6-0.1,0.9c0.1,0.2,0.3,0.4,0.6,0.5l0,0c0.2,0.1,0.5,0.1,0.8,0   c0.2-0.1,0.4-0.3,0.5-0.6l0,0c0.1-0.1,0.1-0.2,0.1-0.4c0-0.2-0.1-0.3-0.1-0.4c0-0.1-0.1-0.2-0.1-0.3c0-0.1,0-0.2,0-0.3l0-0.1   l0.1,0.1l0.5,0.2l0.1,0l0,0.1c0,0.1,0,0.1,0,0.2c0,0.1,0,0.2,0.1,0.2l0,0c0.1,0.2,0.1,0.4,0.1,0.6c0,0.2,0,0.4-0.1,0.5l0,0   c-0.2,0.4-0.5,0.7-0.9,0.9l0,0C223.2,63.2,222.6,63.2,222.2,63L222.2,63z" fill="#ffffff"/>
	<path id="Path_1036" class="st0" d="M210.2,92.6c-0.2,0.2-0.4,0.3-0.6,0.4l0,0c-0.1,0-0.1,0-0.2,0.1c-0.1,0-0.3,0-0.4-0.1   c-0.2-0.1-0.3-0.4-0.2-0.7c0-0.1,0.1-0.2,0.2-0.2h0c0.2,0,0.5,0,0.6,0.2l0,0l0,0c-0.1-0.4,0-0.7,0.3-0.8c0.1,0,0.3,0,0.4,0   c0.2,0.1,0.3,0.3,0.2,0.7C210.3,92.4,210.2,92.5,210.2,92.6 M221.1,85c0.2,0.1,0.3,0.2,0.4,0.4c0,0,0.1,0.1,0.1,0.1   c0,0.1,0.1,0.2,0.1,0.2c0-0.1,0.1-0.1,0.1-0.2c0,0,0.1-0.1,0.1-0.1c0.1-0.1,0.2-0.1,0.3-0.2c0.1,0,0.1,0,0.2-0.1h0l0,0   c0.1,0.1,0.1,0.2,0.2,0.3c0,0,0,0.1,0,0.1c0,0.1,0.1,0.2,0.1,0.3c0.1-0.1,0.2-0.1,0.3-0.2l0.1,0c0-1.1-0.8-2-1.9-2s-2,0.8-2,1.9   c0,0,0,0,0,0c0.1,0.1,0.1,0.1,0.2,0.2c0-0.1,0-0.2,0.1-0.2c0-0.1,0.1-0.2,0.2-0.3c0,0,0.1-0.1,0.1-0.1c0,0,0.1-0.1,0.1-0.1l0,0l0,0   c0,0,0,0,0.1,0c0.1,0.1,0.2,0.1,0.3,0.2c0,0,0.1,0.1,0.1,0.1c0.1,0.1,0.1,0.1,0.1,0.2c0,0,0,0.1,0,0.1c0-0.1,0.1-0.2,0.1-0.3   C220.7,85.3,220.8,85.2,221.1,85C221,85,221,85,221.1,85L221.1,85L221.1,85z M220.2,91.2c0-1.1-0.8-2-2-2.1s-2,0.8-2.1,2   c0,0,0,0,0,0c0.1,0.1,0.1,0.1,0.2,0.2c0-0.1,0-0.2,0.1-0.2c0-0.1,0.1-0.2,0.2-0.3c0,0,0.1-0.1,0.1-0.1c0,0,0.1-0.1,0.1-0.1l0,0l0,0   c0,0,0,0,0.1,0c0.1,0.1,0.2,0.2,0.3,0.3c0,0,0.1,0.1,0.1,0.1c0.1,0.1,0.1,0.1,0.1,0.2c0,0,0,0.1,0.1,0.1c0-0.1,0.1-0.2,0.1-0.3   c0.1-0.2,0.3-0.3,0.4-0.5c0,0,0,0,0,0l0,0l0,0c0.2,0.1,0.3,0.2,0.4,0.4c0,0,0.1,0.1,0.1,0.1c0,0.1,0.1,0.2,0.1,0.3   c0-0.1,0.1-0.1,0.1-0.2c0,0,0.1-0.1,0.1-0.1c0.1-0.1,0.2-0.1,0.3-0.2c0.1,0,0.1,0,0.2-0.1l0,0l0,0c0.1,0.1,0.1,0.2,0.2,0.3   c0,0,0,0.1,0.1,0.1c0,0.1,0.1,0.2,0.1,0.3C219.9,91.4,220,91.3,220.2,91.2L220.2,91.2z M214.4,80.4c0.2,0,0.3,0,0.5,0   c-0.1-0.3-0.1-0.6-0.1-1c0.3,0,0.6,0,0.9,0.1c0-0.3,0-0.6,0-0.8c-0.3,0.1-0.6,0.1-0.9,0.1c0-0.3,0.1-0.6,0.1-0.9   c-0.2,0-0.3,0-0.5,0c-0.1,0-0.2,0-0.4,0c0.1,0.3,0.1,0.6,0.1,0.9c-0.3,0-0.6-0.1-0.9-0.1c0.1,0.3,0.1,0.6,0,0.9   c0.3-0.1,0.6-0.1,0.9-0.1c0,0.3,0,0.6-0.1,0.9C214.2,80.4,214.3,80.4,214.4,80.4L214.4,80.4z M221.4,80.4c0.1,0,0.3,0,0.4,0   c-0.1-0.3-0.1-0.6-0.1-1c0.3,0,0.6,0.1,0.9,0.1c0-0.3,0-0.6,0-0.8c-0.3,0.1-0.6,0.1-0.9,0.1c0-0.3,0.1-0.6,0.1-0.9   c-0.1,0-0.3,0-0.4,0c-0.1,0-0.3,0-0.4,0c0.1,0.3,0.1,0.6,0.1,0.9c-0.3,0-0.6-0.1-0.9-0.1c0.1,0.3,0.1,0.6,0,0.9   c0.3-0.1,0.6-0.1,0.9-0.1c0,0.3,0,0.6-0.1,0.9C221.1,80.4,221.3,80.4,221.4,80.4L221.4,80.4z M221.5,72.9c0.1,0,0.2,0,0.4,0   c-0.1-0.3-0.1-0.6-0.1-1c0.3,0,0.6,0.1,0.9,0.1c0-0.3,0-0.6,0-0.8c-0.3,0.1-0.6,0.1-0.9,0.1c0-0.3,0.1-0.6,0.1-0.9   c-0.1,0-0.2,0-0.4,0c-0.2,0-0.3,0-0.5,0c0.1,0.3,0.1,0.6,0.1,0.9c-0.3,0-0.6-0.1-0.9-0.1c0.1,0.3,0.1,0.6,0,0.9   c0.3-0.1,0.6-0.1,0.9-0.1c0,0.3-0.1,0.6-0.1,0.9C221.2,72.9,221.4,72.9,221.5,72.9L221.5,72.9z M214.5,72.9c0.1,0,0.3,0,0.4,0   c-0.1-0.3-0.1-0.6-0.1-1c0.3,0,0.6,0.1,0.9,0.1c0-0.3,0-0.6,0-0.8c-0.3,0.1-0.6,0.1-0.9,0.1c0-0.3,0.1-0.6,0.1-0.9   c-0.1,0-0.3,0-0.4,0c-0.1,0-0.3,0-0.4,0c0.1,0.3,0.1,0.6,0.1,0.9c-0.3,0-0.6-0.1-0.9-0.1c0.1,0.3,0.1,0.6,0,0.9   c0.3-0.1,0.6-0.1,0.9-0.1c0,0.3-0.1,0.6-0.1,0.9C214.2,72.9,214.4,72.9,214.5,72.9L214.5,72.9z M212.2,98.6c-1.3-3.2-3.8-3-6.8-2.9   c-0.2,0-0.3,0-0.5,0c-1.1,0.1-2.2,0-3.2-0.4c-0.8-0.3-1.3-1.1-1.3-2l0-0.3V68.4H224v13.3l0,0v0.5l0,0v11l0,0.3   c-0.1,0.7-0.4,1.3-0.9,1.7c-0.9,0.5-2,0.7-3,0.6c-0.5,0-0.9,0-1.3,0C215.2,95.6,214.1,95.6,212.2,98.6L212.2,98.6z M212.2,76.6v5.1   h4.6v-5.1H212.2z M216.8,69.2h-4.6v5h4.6V69.2z M223.7,74.2v-5h-4.6v5H223.7z M223.7,81.7v-5.1h-4.6v5.1H223.7z M206.4,95   c2.5-0.1,4.6,0.1,5.8,2.8V82.2h-5.8v5.2l3.5-4.9l0.4,0.4l-0.8,1.1l1.1,0.8l-0.3,0.4l-0.6-0.4l-0.3,0.3l0.6,0.5l-0.3,0.5l-0.6-0.4   l-0.3,0.3l0.6,0.5l-0.4,0.5l-1-0.8l-1.3,1.8l1.6,2.3l0.4,0.6c0.1,0,0.2,0,0.3,0l0,0h0l0,0c0.2,0,0.3,0.2,0.3,0.4c0,0,0,0,0,0   l0.2-0.1v0h0c0.2-0.1,0.4-0.1,0.6-0.1c0.2,0,0.4,0.2,0.5,0.3c0-0.1,0.1-0.2,0.2-0.2c0,0,0.1,0,0.1,0c0.2,0,0.4,0.2,0.4,0.4   c0,0.2-0.1,0.3-0.3,0.4c0,0-0.1,0-0.1,0c0,0,0,0-0.1,0c0.1,0.4-0.1,0.7-0.7,1.1l0,0c0,0,0,0,0.1,0c0.2,0,0.4,0.2,0.4,0.4   c0,0.2-0.1,0.3-0.3,0.4c0,0-0.1,0-0.1,0c0,0-0.1,0-0.1,0c-0.2,0-0.3-0.2-0.3-0.4c0-0.1,0-0.1,0-0.2c-0.2,0.1-0.3,0.2-0.5,0.3h0   c-0.2,0.1-0.4,0.1-0.5,0.1c-0.1,0-0.1,0-0.2-0.1c0,0.1-0.1,0.3-0.3,0.3c0,0-0.1,0-0.1,0h0c-0.2,0-0.4-0.2-0.4-0.4c0,0,0,0,0,0   c0-0.2,0.1-0.3,0.3-0.4l0,0c0,0,0,0,0,0c-0.2-0.4-0.2-0.8,0.1-1.1c0,0,0.1-0.1,0.1-0.1c0,0-0.1,0-0.1,0c-0.2-0.1-0.3-0.3-0.2-0.5   l0,0c0-0.1,0-0.2,0.1-0.3l0,0l-0.1-0.1l-1.8-2.5L206.4,95z M217.3,86.3c0,0,0-0.1,0.1-0.1C217.4,86.1,217.3,86.2,217.3,86.3   L217.3,86.3z M217.3,86.2L217.3,86.2c0,0.2-0.1,0.3-0.1,0.4L217.3,86.2C217.3,86.2,217.3,86.2,217.3,86.2L217.3,86.2z M216.6,86.5   v-0.6c0,0,0,0,0,0c0,0.1,0,0.2,0,0.4C216.7,86.3,216.6,86.4,216.6,86.5L216.6,86.5z M216.9,86.3C216.9,86.4,216.9,86.4,216.9,86.3   c-0.1,0.1-0.1,0.1,0,0.2c0,0,0,0,0,0V86.3z M216.9,86.5v-0.2c0,0,0,0,0,0C217,86.4,217,86.4,216.9,86.5   C216.9,86.5,216.9,86.5,216.9,86.5L216.9,86.5z M217.3,86.2c-0.1,0.2,0,0.5-0.1,0.7c0.1-0.1,0.1-0.2,0.1-0.3V86.2z M217,85.9   L217,85.9c0-0.1,0-0.2-0.1-0.3c0,0,0-0.1,0-0.1c-0.1-0.1-0.1-0.2-0.2-0.3l0,0h0c-0.1,0-0.1,0-0.2,0.1c-0.1,0-0.2,0.1-0.3,0.2   c0,0-0.1,0.1-0.1,0.1c0,0-0.1,0.1-0.1,0.2c0-0.1-0.1-0.2-0.1-0.2c0,0-0.1-0.1-0.1-0.1c-0.1-0.2-0.3-0.3-0.4-0.4l0,0l0,0   c0,0,0,0,0,0c-0.2,0.1-0.3,0.3-0.4,0.4c-0.1,0.1-0.1,0.2-0.1,0.3c0,0,0-0.1-0.1-0.1c0-0.1-0.1-0.1-0.1-0.2c0,0,0-0.1-0.1-0.1   c-0.1-0.1-0.2-0.2-0.3-0.2c0,0,0,0-0.1,0l0,0l0,0c0,0-0.1,0.1-0.1,0.1c0,0-0.1,0.1-0.1,0.1c-0.1,0.1-0.1,0.2-0.2,0.3   c0,0.1-0.1,0.1-0.1,0.2c0-0.1-0.1-0.1-0.2-0.2c0-1.1,0.9-1.9,1.9-1.9c1.1,0,1.9,0.9,1.9,1.9c0,0,0,0,0,0.1c0,0-0.1,0-0.1,0   C217.2,85.8,217.1,85.9,217,85.9L217,85.9z M216.6,85.9v0.6c0,0,0,0.1-0.1,0.1l0,0.1V86C216.5,86,216.5,85.9,216.6,85.9L216.6,85.9   z M216.1,86.3v-0.2c0,0,0,0,0,0L216.1,86.3C216.1,86.3,216.1,86.3,216.1,86.3L216.1,86.3z M216.1,86.3   C216.1,86.3,216.1,86.2,216.1,86.3c0.1-0.1,0.1-0.2,0-0.2h0V86.3z M216.5,86C216.5,86,216.5,86.1,216.5,86c-0.1,0-0.1,0-0.1-0.1   c0,0.1,0,0.2,0.1,0.3c0,0.1,0,0.2,0,0.3c0,0.1,0,0.1,0,0.2c0,0,0,0,0.1,0v-0.1c0,0,0,0,0,0l0-0.1L216.5,86z M216.5,86.8v-0.1   C216.5,86.8,216.5,86.8,216.5,86.8L216.5,86.8z M216.1,86.1v0.2C216,86.3,216,86.2,216.1,86.1C216,86.1,216.1,86.1,216.1,86.1   L216.1,86.1z M215.3,86.7v-0.9c0,0,0-0.1,0-0.1c0,0,0,0.2,0.1,0.2c0-0.1,0.1-0.1,0.1-0.2c0,0.2,0,0.4-0.1,0.6c0,0,0,0.1,0,0.1   C215.4,86.4,215.4,86.6,215.3,86.7c0.1-0.1,0.1-0.1,0.1-0.1C215.4,86.7,215.4,86.9,215.3,86.7C215.3,86.7,215.3,86.7,215.3,86.7   L215.3,86.7z M215.3,85.6v-0.1C215.4,85.5,215.4,85.5,215.3,85.6C215.3,85.6,215.3,85.6,215.3,85.6z M215.9,86.2   C215.9,86.3,215.9,86.3,215.9,86.2c-0.1,0.1-0.1,0.1,0,0.2c0,0,0,0,0,0V86.2z M215.9,86.4v-0.2c0,0,0,0,0,0   C216,86.3,216,86.3,215.9,86.4C215.9,86.4,215.9,86.4,215.9,86.4L215.9,86.4z M215.3,85.5v0.1c0,0,0,0,0,0L215.3,85.5   C215.3,85.4,215.3,85.4,215.3,85.5L215.3,85.5z M215.3,85.8v0.9c0,0,0-0.1,0-0.1V86C215.3,85.9,215.3,85.9,215.3,85.8L215.3,85.8z    M215.3,86.5C215.3,86.6,215.3,86.6,215.3,86.5l0-0.6l0,0c0,0,0,0,0,0V86.5z M215.3,85.6C215.3,85.6,215.3,85.6,215.3,85.6l0-0.1   c0,0,0,0,0,0V85.6z M215.3,85.5v0.1C215.3,85.6,215.2,85.5,215.3,85.5C215.2,85.5,215.3,85.5,215.3,85.5L215.3,85.5z M215.3,86v0.5   c0,0,0-0.1,0-0.1L215.3,86C215.2,86,215.3,86,215.3,86L215.3,86z M215.2,86c0,0,0-0.1,0-0.1c0,0.2,0,0.4,0,0.5V86z M214.5,86.1   v-0.1C214.5,86,214.5,86,214.5,86.1C214.6,86,214.5,86.1,214.5,86.1C214.5,86.1,214.5,86.1,214.5,86.1L214.5,86.1z M214.7,86.2   C214.7,86.2,214.7,86.2,214.7,86.2C214.7,86.2,214.7,86.2,214.7,86.2c0,0.1,0,0.1,0,0.1L214.7,86.2z M214.7,86.3v-0.1   C214.7,86.2,214.7,86.2,214.7,86.3C214.7,86.3,214.7,86.3,214.7,86.3C214.7,86.3,214.7,86.3,214.7,86.3L214.7,86.3z M214.5,85.9   v0.1C214.5,86,214.5,86,214.5,85.9L214.5,85.9L214.5,85.9C214.5,85.9,214.5,85.9,214.5,85.9L214.5,85.9z M214.1,86.4v-0.2l0.1,0.1   c0-0.1,0-0.2,0-0.4v0.6C214.2,86.5,214.1,86.5,214.1,86.4L214.1,86.4z M214.2,86.9v-0.1V86.9C214.1,86.9,214.1,86.9,214.2,86.9   L214.2,86.9z M214.5,85.9C214.5,85.9,214.5,85.9,214.5,85.9C214.5,85.9,214.5,85.9,214.5,85.9C214.4,85.9,214.4,85.9,214.5,85.9   C214.5,86,214.5,86,214.5,85.9C214.5,86,214.5,86,214.5,85.9C214.5,86,214.5,86,214.5,85.9L214.5,85.9z M214.2,86.9   c0.1-0.2,0.1-0.4,0.1-0.7c0-0.1,0-0.1,0-0.2c0,0-0.1,0-0.1,0c0-0.1,0-0.1,0-0.2c0,0,0,0,0,0.1v0.6c0,0,0,0,0,0.1   C214.2,86.7,214.2,86.7,214.2,86.9L214.2,86.9L214.2,86.9C214.2,86.9,214.2,86.9,214.2,86.9L214.2,86.9z M213.7,86.2   C213.7,86.2,213.7,86.2,213.7,86.2C213.6,86.2,213.6,86.2,213.7,86.2l-0.1,0.1c0,0,0,0,0.1,0V86.2z M214.1,86.2v0.2   C214,86.3,214,86.2,214.1,86.2L214.1,86.2z M213.7,86.4v-0.1c0,0,0.1,0,0.1,0c0,0,0,0.1,0.1,0.1c0,0.1,0,0.1,0,0.1   C213.8,86.4,213.8,86.3,213.7,86.4L213.7,86.4z M213.6,86.2C213.6,86.2,213.6,86.2,213.6,86.2C213.5,86.2,213.5,86.2,213.6,86.2   C213.6,86.3,213.6,86.3,213.6,86.2c0,0.1,0,0.1,0,0.2L213.6,86.2z M213.3,86.6c0,0,0-0.1,0.1-0.1c0-0.1,0-0.2,0-0.2   c0,0.1,0,0.2,0,0.4c0,0.1,0,0.2,0.1,0.3c0,0.1,0.1,0.2,0,0.1c0-0.1-0.1-0.2-0.1-0.1c0,0.2,0.1,0.5,0.2,0.7c0,0,0.1,0,0.2-0.1   c0.2,0,0.3-0.1,0.5-0.1l0.3-0.1l0.2,0c0.2,0,0.4,0,0.6,0h0c0.2,0,0.4,0,0.6,0c0.1,0,0.1,0,0.2,0c0.1,0,0.3,0,0.4,0.1   c0.1,0,0.3,0.1,0.4,0.1c0.1,0,0.2,0.1,0.2,0.1c0.1-0.1,0.1-0.3,0.1-0.4c0-0.1,0-0.2,0.1-0.3c0.1-0.4,0.2-0.7,0.4-1.1   c-0.1,0-0.3,0.1-0.4,0.2c-0.1,0.1-0.2,0.1-0.2,0.2l0,0l-0.1,0.1v-0.1l0,0v-0.1l0,0l0-0.1c0,0,0-0.1,0-0.1c0-0.1,0-0.1,0-0.2   c0-0.1-0.1-0.2-0.2-0.3c-0.1,0-0.1,0-0.1,0.1c-0.1,0-0.2,0.1-0.2,0.1c-0.1,0.1-0.1,0.1-0.2,0.2c0,0-0.1,0.1-0.1,0.1l-0.1,0.1l0-0.1   l0-0.1c0-0.1-0.1-0.3-0.2-0.4c-0.1-0.1-0.2-0.3-0.4-0.3c0,0,0,0-0.1,0.1c-0.1,0.1-0.2,0.2-0.3,0.4c-0.1,0.1-0.1,0.3-0.2,0.4l0,0.2   l-0.1-0.2c0,0,0,0,0,0c0-0.1-0.1-0.3-0.2-0.4v0c-0.1-0.1-0.2-0.2-0.3-0.3c0,0-0.1,0-0.1,0c0,0-0.1,0.1-0.1,0.1l-0.1,0.1   c-0.1,0.2-0.2,0.3-0.2,0.5v0l0,0.1l-0.1-0.1c-0.1-0.1-0.2-0.2-0.3-0.3c-0.1,0-0.1-0.1-0.2-0.1C213.3,85.9,213.3,86.2,213.3,86.6   L213.3,86.6z M223,86.3c0,0,0-0.1,0.1-0.1C223.1,86.2,223,86.2,223,86.3L223,86.3z M223,86.2L223,86.2c0,0.2-0.1,0.3-0.1,0.4   L223,86.2C223,86.2,223,86.2,223,86.2L223,86.2z M222.3,86.5v-0.6c0,0,0,0,0,0c0,0.1,0,0.2,0,0.4C222.4,86.3,222.3,86.4,222.3,86.5   L222.3,86.5z M222.6,86.4C222.6,86.4,222.5,86.4,222.6,86.4c-0.1,0.1-0.1,0.1,0,0.2c0,0,0,0,0,0V86.4z M222.6,86.5v-0.2   c0,0,0,0,0,0C222.7,86.4,222.7,86.4,222.6,86.5C222.6,86.5,222.6,86.5,222.6,86.5L222.6,86.5z M223,86.2c-0.1,0.2,0,0.5-0.1,0.7   c0.1-0.1,0.1-0.2,0.1-0.3V86.2z M222.3,85.9v0.6c0,0,0,0-0.1,0.1l0,0.1V86C222.2,86,222.2,85.9,222.3,85.9L222.3,85.9z M221.8,86.3   v-0.2c0,0,0,0,0,0L221.8,86.3C221.8,86.3,221.8,86.3,221.8,86.3L221.8,86.3z M221.8,86.3C221.8,86.3,221.8,86.2,221.8,86.3   c0.1-0.1,0.1-0.2,0-0.2h0V86.3z M222.2,86C222.2,86.1,222.2,86.1,222.2,86c-0.1,0-0.1,0-0.1-0.1c0,0.1,0,0.2,0.1,0.3   c0,0.1,0,0.2,0,0.3c0,0.1,0,0.2,0,0.2c0,0,0,0,0,0v-0.1c0,0,0,0,0,0l0-0.1L222.2,86z M222.2,86.8v-0.1   C222.2,86.8,222.2,86.8,222.2,86.8L222.2,86.8z M221.8,86.1v0.2C221.7,86.3,221.7,86.2,221.8,86.1   C221.7,86.1,221.7,86.1,221.8,86.1L221.8,86.1z M221,86.7v-0.9l0-0.1c0,0,0,0.2,0.1,0.2c0-0.1,0.1-0.1,0.1-0.2   c0.1,0.2,0,0.4-0.1,0.6c0,0,0,0.1,0,0.1C221.1,86.4,221.1,86.6,221,86.7c0.1-0.1,0.1-0.1,0.1-0.1C221.1,86.7,221.1,86.9,221,86.7   L221,86.7z M221,85.6v-0.1C221,85.5,221.1,85.5,221,85.6C221.1,85.5,221,85.6,221,85.6L221,85.6z M221.6,86.2   C221.6,86.3,221.5,86.3,221.6,86.2c-0.1,0.1-0.1,0.1,0,0.2c0,0,0,0,0,0L221.6,86.2z M221.6,86.4v-0.2c0,0,0,0,0,0   S221.7,86.3,221.6,86.4C221.6,86.4,221.6,86.4,221.6,86.4L221.6,86.4z M221,85.5v0.1c0,0,0,0,0,0L221,85.5   C221,85.5,221,85.5,221,85.5L221,85.5z M221,85.9v0.9c0,0,0-0.1,0-0.1V86L221,85.9z M221,86.5C221,86.6,221,86.6,221,86.5l0-0.6   l0,0c0,0,0,0,0,0V86.5z M221,85.6C221,85.6,221,85.6,221,85.6l0-0.1c0,0,0,0,0,0V85.6z M221,85.5v0.1   C220.9,85.6,220.9,85.5,221,85.5C221,85.5,221,85.5,221,85.5z M221,86v0.5l0-0.1L221,86C220.9,86,221,86,221,86L221,86z M220.9,86   c0,0,0-0.1,0-0.1c0,0.2,0,0.4,0,0.5V86z M220.2,86.1V86C220.2,86,220.2,86,220.2,86.1C220.3,86,220.3,86.1,220.2,86.1   C220.2,86.1,220.2,86.1,220.2,86.1L220.2,86.1z M220.4,86.2C220.4,86.2,220.4,86.2,220.4,86.2C220.4,86.2,220.4,86.2,220.4,86.2   c0,0.1,0,0.1,0,0.1V86.2z M220.4,86.3v-0.1C220.4,86.2,220.4,86.2,220.4,86.3C220.5,86.3,220.4,86.3,220.4,86.3   C220.4,86.3,220.4,86.3,220.4,86.3L220.4,86.3z M220.2,86v0.1C220.2,86.1,220.2,86,220.2,86L220.2,86 M220.2,85.9   C220.2,85.9,220.2,85.9,220.2,85.9L220.2,85.9z M219.8,86.4v-0.2l0.1,0.1c0-0.1,0-0.2,0-0.4v0.6C219.9,86.5,219.8,86.5,219.8,86.4   L219.8,86.4z M219.9,86.9v-0.1V86.9C219.8,86.9,219.8,86.9,219.9,86.9L219.9,86.9z M220.2,85.9C220.2,85.9,220.2,85.9,220.2,85.9   C220.2,85.9,220.2,85.9,220.2,85.9C220.1,85.9,220.1,85.9,220.2,85.9C220.1,86,220.2,86,220.2,85.9L220.2,85.9   C220.2,86,220.2,86,220.2,85.9L220.2,85.9L220.2,85.9z M219.9,86.9c0.1-0.2,0.1-0.4,0.1-0.7c0-0.1,0-0.1,0-0.2c0,0-0.1,0-0.1,0   c0-0.1,0-0.1,0-0.2c0,0,0,0,0,0.1v0.6c0,0,0,0,0,0.1C219.9,86.7,219.9,86.7,219.9,86.9L219.9,86.9L219.9,86.9   C219.9,86.9,219.9,86.9,219.9,86.9L219.9,86.9z M219.4,86.2C219.4,86.2,219.4,86.3,219.4,86.2C219.3,86.2,219.3,86.2,219.4,86.2   l-0.1,0.1c0,0,0,0,0.1,0h0L219.4,86.2z M219.8,86.2v0.2C219.7,86.3,219.7,86.2,219.8,86.2L219.8,86.2z M219.4,86.4v-0.1   c0,0,0,0,0.1,0c0,0,0.1,0.1,0.1,0.1c0,0.1,0,0.1,0,0.1C219.5,86.4,219.4,86.3,219.4,86.4L219.4,86.4z M219.3,86.2   C219.3,86.2,219.3,86.2,219.3,86.2C219.2,86.2,219.2,86.2,219.3,86.2C219.3,86.3,219.3,86.3,219.3,86.2c0,0.1,0,0.1,0,0.2V86.2z    M219,86.6c0,0,0-0.1,0.1-0.1c0-0.1,0-0.2,0-0.2c0,0.1,0,0.2,0,0.4c0,0.1,0,0.2,0.1,0.3c0,0.1,0.1,0.2,0,0.1c0-0.1-0.1-0.1-0.1-0.1   c0,0.2,0.1,0.5,0.2,0.7c0,0,0.1,0,0.2-0.1c0.2,0,0.3-0.1,0.5-0.1l0.3-0.1l0.2,0c0.2,0,0.4,0,0.6,0h0c0.2,0,0.4,0,0.6,0   c0.1,0,0.1,0,0.2,0c0.1,0,0.3,0,0.4,0.1c0.1,0,0.3,0.1,0.4,0.1c0.1,0,0.2,0.1,0.2,0.1c0.1-0.1,0.1-0.3,0.1-0.4c0-0.1,0-0.2,0.1-0.3   c0.1-0.4,0.2-0.7,0.4-1.1c-0.1,0-0.3,0.1-0.4,0.2c-0.1,0.1-0.2,0.1-0.2,0.2l0,0l-0.1,0.1v-0.1l0,0v-0.1l0,0l0-0.1l0,0   c0,0,0,0,0-0.1c0-0.1,0-0.1,0-0.2c0-0.1-0.1-0.2-0.2-0.3c-0.1,0-0.1,0-0.1,0.1c-0.1,0-0.2,0.1-0.2,0.1c-0.1,0.1-0.1,0.1-0.2,0.2   c0,0-0.1,0.1-0.1,0.1l-0.1,0.1l0-0.1l0-0.1c0-0.1-0.1-0.3-0.2-0.4c-0.1-0.1-0.2-0.3-0.4-0.3c0,0,0,0-0.1,0.1   c-0.1,0.1-0.2,0.2-0.3,0.4c-0.1,0.1-0.1,0.3-0.2,0.4l0,0.2l-0.1-0.2c0,0,0,0,0,0c0-0.1-0.1-0.3-0.2-0.4v0c-0.1-0.1-0.2-0.2-0.3-0.3   c0,0-0.1,0-0.1,0c0,0-0.1,0.1-0.1,0.1l-0.1,0.1c-0.1,0.2-0.2,0.3-0.2,0.5v0l0,0.1l-0.1-0.1c-0.1-0.1-0.2-0.2-0.3-0.3   c-0.1,0-0.1-0.1-0.2-0.1C219,86,219,86.3,219,86.6L219,86.6z M220.2,91.8c0,0,0-0.1,0.1-0.1C220.2,91.7,220.2,91.7,220.2,91.8   L220.2,91.8z M220.2,91.7L220.2,91.7c0,0.2-0.1,0.3-0.1,0.5L220.2,91.7C220.1,91.7,220.1,91.7,220.2,91.7L220.2,91.7z M219.4,92   v-0.6c0,0,0,0,0,0c0,0.1,0,0.3,0,0.4C219.5,91.8,219.4,91.9,219.4,92L219.4,92z M219.7,91.9C219.7,91.9,219.7,91.9,219.7,91.9   c-0.1,0.1-0.1,0.2,0,0.2c0,0,0,0,0,0L219.7,91.9z M219.7,92.1v-0.2c0,0,0,0,0,0C219.8,91.9,219.8,91.9,219.7,92.1   C219.8,92,219.7,92,219.7,92.1L219.7,92.1z M220.1,91.8c-0.1,0.2,0,0.5-0.1,0.8c0.1-0.1,0.1-0.2,0.1-0.4V91.8z M219.4,91.4V92   c0,0,0,0.1-0.1,0.1l0,0.1v-0.6C219.3,91.5,219.3,91.4,219.4,91.4L219.4,91.4z M218.9,91.8v-0.2c0,0,0,0,0,0L218.9,91.8   C218.9,91.8,218.9,91.8,218.9,91.8L218.9,91.8z M218.9,91.8C218.9,91.8,218.9,91.8,218.9,91.8c0.1-0.1,0.1-0.2,0-0.2c0,0,0,0,0,0   V91.8z M219.3,91.5C219.3,91.6,219.3,91.6,219.3,91.5c-0.1,0-0.1,0-0.1-0.1c0,0.1,0,0.3,0.1,0.3c0,0.1,0,0.2,0,0.3   c0,0.1,0,0.2,0,0.2c0,0,0,0,0.1,0v-0.1c0,0,0,0,0,0l0-0.1L219.3,91.5z M219.3,92.4v-0.1C219.3,92.3,219.3,92.3,219.3,92.4   L219.3,92.4z M218.9,91.6v0.2C218.8,91.8,218.8,91.7,218.9,91.6C218.8,91.7,218.8,91.6,218.9,91.6L218.9,91.6z M218.1,92.3v-0.9   c0,0,0-0.1,0-0.1c0,0,0,0.3,0.1,0.2c0-0.1,0.1-0.1,0.1-0.2c0,0.2,0,0.4-0.1,0.6c0,0,0,0.1,0,0.1C218.2,92,218.1,92.2,218.1,92.3   c0.1-0.1,0.1-0.1,0.1,0C218.2,92.2,218.2,92.4,218.1,92.3C218.1,92.3,218.1,92.3,218.1,92.3L218.1,92.3z M218.1,91.1v-0.1   C218.1,91,218.1,91,218.1,91.1C218.1,91,218.1,91.1,218.1,91.1L218.1,91.1z M218.7,91.8C218.7,91.8,218.6,91.8,218.7,91.8   c-0.1,0.1-0.1,0.2,0,0.2c0,0,0,0,0,0L218.7,91.8z M218.7,91.9v-0.2c0,0,0,0,0,0C218.8,91.8,218.8,91.8,218.7,91.9   C218.7,91.9,218.7,91.9,218.7,91.9L218.7,91.9z M218.1,90.9v0.1c0,0,0,0,0,0L218.1,90.9C218.1,90.9,218.1,90.9,218.1,90.9   L218.1,90.9z M218.1,91.4v0.9c0,0,0-0.1,0-0.1v-0.7C218.1,91.4,218.1,91.4,218.1,91.4L218.1,91.4z M218,92.1   C218,92.1,218,92.1,218,92.1l0-0.6l0,0.1c0,0,0,0,0,0L218,92.1z M218,91.1C218,91.1,218.1,91.1,218,91.1l0-0.1c0,0,0,0,0,0V91.1z    M218,90.9v0.1C218,91.1,218,91,218,90.9C218,91,218,91,218,90.9L218,90.9z M218,91.5v0.5c0,0,0-0.1,0-0.1L218,91.5   C218,91.5,218,91.5,218,91.5L218,91.5z M218,91.5c0,0,0-0.1,0-0.1c0,0.2,0,0.4,0,0.6V91.5z M217.2,91.6v-0.1   C217.3,91.5,217.3,91.5,217.2,91.6C217.3,91.5,217.3,91.6,217.2,91.6C217.3,91.6,217.2,91.6,217.2,91.6L217.2,91.6z M217.4,91.7   C217.4,91.7,217.4,91.7,217.4,91.7C217.4,91.7,217.4,91.8,217.4,91.7c0,0.1,0,0.1,0,0.1V91.7z M217.4,91.9v-0.1   C217.5,91.7,217.5,91.8,217.4,91.9C217.5,91.8,217.5,91.9,217.4,91.9C217.4,91.9,217.4,91.9,217.4,91.9L217.4,91.9z M217.2,91.5   v0.1C217.2,91.6,217.2,91.5,217.2,91.5L217.2,91.5L217.2,91.5C217.2,91.4,217.2,91.5,217.2,91.5L217.2,91.5z M216.8,91.9v-0.2   l0.1,0.1c0-0.1,0-0.3,0-0.4v0.7C216.9,92.1,216.8,92,216.8,91.9L216.8,91.9z M216.9,92.5v-0.1V92.5   C216.8,92.4,216.9,92.5,216.9,92.5L216.9,92.5z M217.2,91.4C217.2,91.4,217.2,91.4,217.2,91.4C217.2,91.4,217.2,91.4,217.2,91.4   C217.2,91.4,217.2,91.4,217.2,91.4C217.2,91.5,217.2,91.5,217.2,91.4L217.2,91.4C217.2,91.5,217.2,91.5,217.2,91.4   C217.2,91.5,217.2,91.5,217.2,91.4L217.2,91.4z M216.9,92.4c0.1-0.2,0.2-0.5,0.1-0.7c0-0.1,0-0.1,0-0.2l-0.1,0c0-0.1,0-0.1,0-0.2   c0,0,0,0,0,0.1v0.7c0,0,0,0,0,0.1c0,0.1,0,0.1,0,0.2L216.9,92.4L216.9,92.4C216.9,92.5,216.9,92.4,216.9,92.4L216.9,92.4z    M216.4,91.8C216.4,91.8,216.4,91.8,216.4,91.8C216.3,91.8,216.3,91.8,216.4,91.8l-0.1,0.1c0,0,0,0,0.1,0L216.4,91.8L216.4,91.8z    M216.8,91.7v0.2C216.7,91.9,216.7,91.8,216.8,91.7L216.8,91.7z M216.4,91.9v-0.1c0,0,0.1,0,0.1,0c0,0,0.1,0.1,0.1,0.1   c0,0.1,0,0.1,0,0.1C216.5,91.9,216.4,91.8,216.4,91.9L216.4,91.9z M216.3,91.7C216.3,91.7,216.2,91.7,216.3,91.7   C216.2,91.7,216.2,91.7,216.3,91.7C216.2,91.8,216.3,91.8,216.3,91.7c0,0.1,0,0.1,0,0.2V91.7z M216,92.1c0,0,0-0.1,0.1-0.1   c0-0.1,0-0.2,0-0.3c0,0.1,0,0.3,0,0.4c0,0.1,0,0.2,0.1,0.3c0,0.1,0.1,0.2,0,0.1c0-0.1-0.1-0.2-0.1-0.1c0,0.2,0.1,0.5,0.2,0.7   c0.1,0,0.1,0,0.2-0.1c0.2,0,0.3-0.1,0.5-0.1l0.3-0.1l0.2,0c0.2,0,0.4,0,0.6,0h0c0.2,0,0.4,0,0.6,0c0.1,0,0.1,0,0.2,0   c0.3,0,0.6,0.1,0.8,0.2c0.1,0,0.2,0.1,0.2,0.1c0.1-0.1,0.1-0.3,0.1-0.4c0-0.1,0-0.2,0.1-0.3c0.1-0.4,0.2-0.8,0.4-1.1   c-0.2,0-0.3,0.1-0.4,0.2c-0.1,0.1-0.2,0.1-0.2,0.2l0,0l-0.1,0.1v-0.1l0,0v0l0,0l0-0.1v-0.1c0,0,0-0.1,0-0.1c0-0.1,0-0.1,0-0.2   c0-0.1-0.1-0.2-0.2-0.3c-0.1,0-0.1,0-0.2,0.1c-0.1,0-0.2,0.1-0.3,0.2c-0.1,0.1-0.1,0.1-0.2,0.2c0,0-0.1,0.1-0.1,0.1l-0.1,0.1l0-0.1   l0-0.1c0-0.1-0.1-0.3-0.2-0.4c-0.1-0.1-0.2-0.3-0.4-0.4c0,0,0,0-0.1,0.1c-0.1,0.1-0.2,0.2-0.3,0.4c-0.1,0.1-0.1,0.3-0.2,0.4l0,0.2   l-0.1-0.2c0,0,0,0,0,0c0-0.2-0.1-0.3-0.2-0.4v0c-0.1-0.1-0.2-0.2-0.3-0.3c0,0-0.1,0-0.1,0c0,0-0.1,0.1-0.1,0.1l-0.1,0.1   c-0.1,0.2-0.2,0.4-0.3,0.6v0l0,0.1l-0.1-0.1c-0.1-0.1-0.2-0.2-0.3-0.3c-0.1,0-0.1-0.1-0.2-0.1C215.9,91.5,216,91.8,216,92.1   L216,92.1z M205.6,86.4l-0.2,0.2v0.1l0.2-0.2V86.4z M205.4,86.3v0.1l-0.1,0L205.4,86.3L205.4,86.3z M205.4,86.5v0.1l-0.1,0   L205.4,86.5L205.4,86.5z M205.3,86.1v0.1l-0.1,0L205.3,86.1L205.3,86.1z M205.3,86.3v0.1l-0.1,0L205.3,86.3L205.3,86.3z    M202.7,85.3l0.5-0.3l0,0l0.1-0.1l0,0l0,0l0.2,0.3l-0.6,0.5l0.3,0.4l0.6-0.4l0,0l0,0l0.2,0.3l-0.6,0.5l0.3,0.5l1-0.8l0,0l0,0   l0.1,0.1l0.3-0.2v0.1l-0.2,0.2l0,0l0.1,0.1l0.2-0.1v0.1l-0.1,0.1l0,0l0.1,0.1l0,0l0,0l0.1,0v0.1l0,0l0,0l0.1,0.1l0,0l0,0l0.2-0.2   v0.1l-0.2,0.2l0,0l0.1,0.1l0.2-0.1v0.1l-0.1,0.1l0,0l0.2,0.2l0.4,0.6l-1.5,2.2l-0.4,0.5c-0.1,0-0.2,0-0.3,0l0,0l0,0l0,0h0l0,0   c-0.2,0-0.3,0.2-0.3,0.4h0l0,0l-0.2-0.1v0h0c-0.1,0-0.1,0-0.2-0.1l0,0c-0.1,0-0.1,0-0.2,0c-0.1,0-0.1,0-0.2,0   c-0.2,0-0.4,0.2-0.5,0.3v0l0,0c0-0.1-0.1-0.2-0.2-0.2c0,0-0.1,0-0.1,0h0c-0.2,0-0.4,0.2-0.4,0.4c0,0,0,0,0,0c0,0.2,0.1,0.3,0.2,0.3   c0,0,0.1,0,0.1,0h0c0,0,0,0,0.1,0l0,0h0c-0.1,0.4,0.1,0.7,0.7,1.1l0,0h0h0c0,0,0,0,0,0h0c-0.2,0-0.4,0.2-0.4,0.4   c0,0.2,0.1,0.3,0.2,0.3c0,0,0.1,0,0.1,0l0,0c0,0,0.1,0,0.1,0c0.1,0,0.2-0.2,0.2-0.3c0-0.1,0-0.1,0-0.2l0,0v0   c0.1,0.1,0.3,0.2,0.5,0.3h0c0.1,0,0.2,0.1,0.3,0.1h0c0.1,0,0.1,0,0.2,0c0.1,0,0.1,0,0.2,0l0,0h0c0,0.1,0.1,0.2,0.2,0.3   c0,0,0.1,0,0.1,0h0c0.2,0,0.4-0.2,0.4-0.4c0,0,0,0,0,0c0-0.2-0.1-0.3-0.2-0.3l0,0c0,0,0,0,0,0c0.2-0.3,0.1-0.8-0.1-1.1   c0,0-0.1-0.1-0.1-0.1c0,0,0.1,0,0.1,0c0.2-0.1,0.2-0.3,0.2-0.4l0,0c0-0.1,0-0.2-0.1-0.3l0,0l0.1-0.1l0.6-0.8l0,0l0.1-0.1l0,0   l0.1-0.1l0,0l0.2-0.3l0,0l0.8-1.1v0l0,0v-0.9l0,0v0l-0.5-0.7l-0.3,0.2v-0.1l0.2-0.2l-0.1-0.1l-0.2,0.1v-0.1l0.1-0.1l-0.1-0.1   l-0.1,0v-0.1l0,0v0l0,0l-0.1-0.1l-0.2,0.1v-0.1l0.1-0.1l-0.1-0.1l0,0l0,0l-0.1,0V86l0,0l0-0.1l0,0l-0.1-0.1l0,0l-1.6-2.2l-0.4,0.3   l0,0l0,0l0.1,0.2l-1,0.8L202.7,85.3z M203.2,82.9L203.2,82.9l-0.1-0.1l-0.4,0.3l0.4,0.5l0.2,0.3l0.4-0.3L203.2,82.9L203.2,82.9z    M209,72.7L209,72.7z M209.2,72.1v-2.3c-0.1-0.1-0.3-0.3-0.5-0.3c-0.2,0-0.4,0-0.5,0.1l0,0c-0.1,0.1-0.2,0.1-0.4,0.2   c-0.1,0-0.3,0-0.4-0.1V72c0.1,0.1,0.2,0.1,0.3,0.1c0,0,0.1,0,0.1,0h0h0h0h0l0,0h0h0l0,0h0l0,0c0.1,0,0.2-0.1,0.2-0.1   c0.1-0.1,0.2-0.1,0.3-0.1l0,0l0,0l0,0h0l0,0h0l0,0h0l0,0h0h0.2l0,0c0.1,0,0.2,0.1,0.3,0.1l0,0l0,0l0,0l0,0l0,0l0,0l0,0   C209.1,72,209.1,72.1,209.2,72.1L209.2,72.1z M209.2,72.5v-0.3c0-0.1-0.1-0.1-0.2-0.2l0,0l0,0l0,0c-0.1-0.1-0.2-0.1-0.3-0.2l0,0h0   l0,0h0l0,0h0l0,0h0l0,0l0,0h0l0,0c-0.1,0-0.3,0-0.4,0.1l0,0h0l0,0c0,0-0.1,0-0.1,0.1c-0.1,0.1-0.2,0.1-0.3,0.1l0,0h0l0,0h0h0h0h0   c-0.1,0-0.1,0-0.2,0h0l0,0l0,0l0,0l0,0l0,0l0,0l0,0l0,0l0,0l0,0h0l0,0l0,0l0,0l0,0l0,0l0,0l0,0l0,0l0,0l0,0l0,0l0,0l0,0l0,0l0,0   l0,0l0,0l0,0l0,0l0,0l0,0l0,0l0,0l0,0l0,0l0,0l0,0l0,0l0,0c0,0,0,0-0.1-0.1l0,0v-2.2l-0.2,0.1v0l0,0v0l0,1.9v0.2   c0.1,0.1,0.1,0.1,0.2,0.2h0l0,0l0,0l0,0h0l0,0l0,0l0,0h0l0,0h0l0,0h0l0,0h0l0,0c0,0,0.1,0,0.1,0c0.2,0,0.3,0,0.4-0.1l0,0   c0.1-0.1,0.2-0.1,0.3-0.2h0l0,0h0l0,0h0l0,0h0l0,0h0h0c0.1,0,0.2,0,0.2,0C209,72.2,209.1,72.3,209.2,72.5L209.2,72.5z M209.2,72.2   v0.2c0.1-0.2,0.3-0.3,0.4-0.4c0.1-0.1,0.3,0,0.5,0l0,0l0,0l0,0c0,0,0.1,0.1,0.1,0.1l0,0l0,0l0,0l0,0l0,0l0,0l0,0l0,0l0,0l0,0l0,0   l0,0l0,0l0,0l0,0l0,0l0,0l0,0c0.1,0.1,0.1,0.1,0.2,0.1l0,0h0h0h0h0c0,0,0.1,0,0.1,0l0,0h0c0.1,0,0.2-0.1,0.3-0.1l0,0l0,0l0,0l0,0   l0,0l0,0l0,0l0,0l0,0l0,0l0,0l0,0l0,0l0,0l0,0l0,0l0,0l0,0l0,0l0,0l0,0l0,0l0,0l0,0v-2.1l0,0v0l-0.1-0.1c0,0.3,0,0.7,0,1.1   c0,0.2,0,0.5,0,0.7v0.4l0,0v0l0,0v0l0,0v0l0,0v0l0,0l0,0l0,0c-0.1,0-0.1,0.1-0.2,0.1l0,0l0,0l0,0h0l0,0h0l0,0h0h0h0   c0,0-0.1,0-0.1,0h0c-0.1,0-0.1,0-0.2-0.1l0,0h0l0,0h0l0,0h0l0,0h0l0,0h0l0,0h0l0,0h0l0,0h0l0,0c0,0-0.1,0-0.1-0.1l0,0h0l0,0h0l0,0   h0h0c-0.1,0-0.1-0.1-0.2-0.1h0l0,0h0l0,0h0l0,0h0l0,0h0l0,0c-0.1,0-0.2,0-0.3,0l0,0l0,0h0l0,0C209.5,72,209.3,72.1,209.2,72.2   L209.2,72.2L209.2,72.2L209.2,72.2z M209.2,69.9v2.3c0.1-0.1,0.1-0.1,0.2-0.2l0,0l0,0l0,0l0,0l0,0l0,0l0,0l0,0l0,0l0,0l0,0l0,0l0,0   l0,0l0,0l0,0l0,0l0,0l0,0l0,0l0,0l0,0l0,0l0,0l0,0h0l0,0h0l0,0h0l0,0h0l0,0l0,0l0,0c0,0,0.1,0,0.1-0.1c0,0,0,0,0.1,0l0,0h0l0,0   c0.2,0,0.3,0,0.5,0.1c0.1,0.1,0.2,0.1,0.4,0.2c0.1,0,0.3,0,0.4-0.1l0,0h0l0,0h0c0-0.4,0-0.7,0-1.1c0-0.2,0-0.4,0-0.6v-0.1   c0-0.1,0-0.2,0-0.3v0c-0.1,0-0.2,0.1-0.3,0.1c-0.1,0-0.2,0-0.3-0.1c-0.2-0.1-0.4-0.2-0.6-0.2C209.5,69.6,209.4,69.7,209.2,69.9   L209.2,69.9z M209,72.5h0.2c-0.1-0.1-0.2-0.3-0.3-0.4h0h0l0,0c0,0,0,0-0.1,0c-0.2-0.1-0.5,0-0.6,0.2c0,0,0,0-0.1,0l0,0h0l0,0   c-0.1,0.1-0.2,0.1-0.4,0.1c0,0-0.1,0-0.1,0l0,0c0,0,0,0-0.1,0l0,0c-0.1,0-0.2-0.1-0.2-0.2l0,0l0,0l0-2.1h-0.1v2.1   c0.1,0.1,0.2,0.2,0.4,0.3c0.2,0,0.3,0,0.5-0.1c0.1,0,0.1-0.1,0.2-0.1c0.1-0.1,0.2-0.1,0.4-0.2l0,0c0.1,0,0.2,0,0.2,0.1   c0.1,0,0.1,0.1,0.2,0.2L209,72.5L209,72.5c-0.1,0-0.2,0-0.2,0.1l0,0c0,0,0,0,0,0c0,0.1,0.1,0.1,0.1,0.1h0.3l0,0h0.3   c0,0,0.1,0,0.1-0.1c0,0,0,0,0-0.1c0-0.1,0-0.1-0.1-0.1l0,0l0-0.1c0-0.1,0.1-0.1,0.1-0.2c0.1,0,0.2-0.1,0.3,0c0.1,0,0.2,0.1,0.3,0.2   c0.1,0.1,0.2,0.1,0.3,0.2c0.1,0,0.2,0,0.4,0c0.1-0.1,0.3-0.1,0.4-0.2V70h-0.1v2.1l0,0c-0.1,0.1-0.3,0.2-0.4,0.2h-0.1h0h0h0h0h0l0,0   h0l0,0h0l0,0h0h0l0,0c-0.1,0-0.2-0.1-0.3-0.2l0,0l0,0l0,0l0,0l0,0l0,0l0,0l0,0l0,0l0,0l0,0l0,0l0,0h0l0,0h0l0,0l0,0l0,0h0l0,0l0,0   h0l0,0h0l0,0h0l0,0h0l0,0h0l0,0h0l0,0h0l0,0h0l0,0h0l0,0h0h0h-0.1c-0.1,0-0.2,0-0.2,0c-0.1,0-0.1,0.1-0.2,0.1l0,0l0,0l0,0   c-0.1,0.1-0.2,0.2-0.2,0.3h0.2v0.1l-0.4,0L209,72.5z M207.6,71.1h0.4l0,0.1l0,0c0,0,0,0,0-0.1c0,0,0,0,0,0c0,0,0,0,0,0   c0,0,0,0-0.1,0h-0.1v0.2h0.1c0,0,0,0,0.1,0c0,0,0,0,0,0c0,0,0,0,0,0v0h0v0.2h0v-0.1c0,0,0,0,0,0c0,0,0,0,0,0c0,0,0,0,0,0h-0.1v0.2   c0,0,0,0,0,0h0.1c0,0,0.1,0,0.1,0c0,0,0,0,0.1,0c0,0,0,0,0-0.1l0,0l-0.1,0.2h-0.4v0h0c0,0,0,0,0,0c0,0,0,0,0,0c0,0,0,0,0,0   L207.6,71.1C207.7,71.2,207.7,71.1,207.6,71.1C207.7,71.1,207.6,71.1,207.6,71.1L207.6,71.1L207.6,71.1z M207.8,70.5L207.8,70.5   L207.8,70.5v-0.2v-0.1l-0.1,0.4c0,0,0,0.1,0,0.1c0,0,0,0,0,0v0h0.2v0c0,0,0,0,0,0c0,0,0,0,0,0c0,0,0,0,0,0L207.8,70.5L207.8,70.5z    M207.9,70.5L207.9,70.5L207.9,70.5L207.9,70.5l-0.1-0.2h0v-0.1l0,0h0l0.2,0.4c0,0,0,0,0,0.1c0,0,0,0,0,0v0h-0.2v0c0,0,0,0,0,0   c0,0,0,0,0,0C208,70.7,208,70.6,207.9,70.5L207.9,70.5z M209.8,70.3L209.8,70.3L209.8,70.3V70V70l-0.2,0.4c0,0,0,0.1,0,0.1   c0,0,0,0,0,0v0h0.1v0c0,0,0,0,0,0c0,0,0,0,0,0c0,0,0,0,0,0L209.8,70.3L209.8,70.3z M209.9,70.3L209.9,70.3L209.9,70.3L209.9,70.3   l-0.1-0.2V70l0,0h0L209.9,70.3c0.1,0.1,0.1,0.1,0.1,0.1c0,0,0,0,0,0v0h-0.2v0c0,0,0,0,0,0c0,0,0,0,0,0   C209.9,70.4,209.9,70.4,209.9,70.3L209.9,70.3z M210.6,71.5L210.6,71.5L210.6,71.5v-0.2v-0.1l-0.2,0.4c0,0,0,0.1,0,0.1c0,0,0,0,0,0   v0h0.1v0c0,0,0,0,0,0s0,0,0,0c0,0,0,0,0,0L210.6,71.5L210.6,71.5z M210.7,71.5L210.7,71.5L210.7,71.5L210.7,71.5l-0.1-0.2v-0.1l0,0   h0l0.2,0.4c0,0,0,0,0,0.1c0,0,0,0,0,0v0h-0.2v0c0,0,0,0,0,0c0,0,0,0,0,0C210.8,71.6,210.8,71.6,210.7,71.5L210.7,71.5z M208.8,69.9   l0,0.2h0C208.8,70.1,208.8,70,208.8,69.9c-0.1,0-0.1,0-0.2,0c0,0-0.1,0-0.1,0c0,0,0,0-0.1,0.1c0,0,0,0.1,0,0.1c0,0,0,0.1,0,0.1   c0,0,0,0.1,0.1,0.1c0,0,0.1,0,0.1,0c0,0,0.1,0,0.1,0c0,0,0.1-0.1,0.1-0.1h0c0,0,0,0.1-0.1,0.1c0,0-0.1,0-0.1,0   c-0.1,0-0.1,0-0.2-0.1c-0.1-0.1-0.1-0.2,0-0.3c0,0,0-0.1,0.1-0.1c0,0,0.1,0,0.1,0C208.7,69.9,208.7,70,208.8,69.9   C208.7,70,208.8,70,208.8,69.9C208.8,70,208.8,70,208.8,69.9C208.8,70,208.8,70,208.8,69.9L208.8,69.9z M210.3,70.9l0,0.2h0   C210.3,71.1,210.2,71,210.3,70.9c-0.1,0-0.1,0-0.2,0c0,0-0.1,0-0.1,0c0,0,0,0-0.1,0.1c0,0,0,0.1,0,0.1c0,0,0,0.1,0,0.1   c0,0,0,0.1,0.1,0.1c0,0,0.1,0,0.1,0c0,0,0.1,0,0.1,0c0,0,0.1-0.1,0.1-0.1l0,0c0,0,0,0.1-0.1,0.1c0,0-0.1,0-0.1,0   c-0.1,0-0.1,0-0.2-0.1c0-0.1,0-0.1,0-0.2c0,0,0-0.1,0-0.1c0,0,0-0.1,0.1-0.1c0,0,0.1,0,0.1,0C210.1,70.9,210.2,70.9,210.3,70.9   C210.2,71,210.2,71,210.3,70.9C210.2,71,210.2,71,210.3,70.9C210.2,70.9,210.3,70.9,210.3,70.9L210.3,70.9z M210.3,70.2   C210.3,70.2,210.3,70.2,210.3,70.2C210.3,70.2,210.3,70.2,210.3,70.2C210.3,70.2,210.3,70.2,210.3,70.2l0.1,0.4c0,0,0,0,0,0   s0,0,0,0c0,0,0,0,0,0h0v0h0.3v0c0,0,0,0,0,0h-0.1v-0.4h0.1c0,0,0,0,0,0v0c0,0-0.1,0-0.1,0L210.3,70.2L210.3,70.2z M210.6,70.2   C210.6,70.2,210.6,70.2,210.6,70.2c0.1,0,0.2,0.1,0.2,0.1c0,0,0.1,0.1,0.1,0.2c0,0.1,0,0.2-0.1,0.2c0,0-0.1,0-0.1,0c0,0,0,0-0.1,0   v0h0c0,0,0,0,0.1,0c0,0,0,0,0.1,0c0,0,0,0,0-0.1c0,0,0-0.1,0-0.1c0,0,0-0.1,0-0.1c0,0,0-0.1,0-0.1   C210.7,70.3,210.7,70.2,210.6,70.2C210.6,70.2,210.6,70.2,210.6,70.2L210.6,70.2z M209.4,70.9h0.2v0h0c0,0,0,0,0,0c0,0,0,0,0,0   c0,0,0,0,0,0v0.4c0,0,0,0,0,0c0,0,0,0,0,0s0,0,0,0h0v0h-0.2v0h0c0,0,0,0,0,0c0,0,0,0,0,0c0,0,0,0,0,0L209.4,70.9   C209.4,70.9,209.4,70.9,209.4,70.9C209.4,70.9,209.4,70.9,209.4,70.9C209.4,70.9,209.4,70.9,209.4,70.9L209.4,70.9L209.4,70.9z    M208.3,70.9h0.2l0.2,0.4l0.1-0.4h0.2v0h0c0,0,0,0,0,0s0,0,0,0s0,0,0,0v0.4l0,0c0,0,0,0,0,0h0v0h-0.2v0h0c0,0,0,0,0,0c0,0,0,0,0,0   c0,0,0,0,0,0v-0.4l-0.2,0.5h0l-0.2-0.5v0.4c0,0,0,0,0,0l0,0c0,0,0,0,0,0h0v0h-0.2v0h0c0,0,0,0,0,0c0,0,0,0,0,0c0,0,0,0,0,0   L208.3,70.9C208.4,71,208.4,70.9,208.3,70.9C208.3,70.9,208.3,70.9,208.3,70.9C208.3,70.9,208.3,70.9,208.3,70.9L208.3,70.9   L208.3,70.9z M203.1,72.8L203.1,72.8z M203.3,72.2v-2.3c-0.1-0.1-0.3-0.2-0.5-0.3c-0.2,0-0.4,0-0.5,0.1l0,0   c-0.1,0.1-0.2,0.1-0.4,0.2c-0.1,0-0.3,0-0.4-0.1V72c0,0,0.1,0,0.1,0.1l0,0l0,0l0,0l0,0l0,0l0,0l0,0l0,0l0,0l0,0l0,0l0,0l0,0l0,0   l0,0l0,0l0,0l0,0l0,0l0,0l0,0l0,0l0,0l0,0l0,0l0,0l0,0l0,0l0,0h0l0,0l0,0h0c0,0,0.1,0,0.1,0c0.1,0,0.2,0,0.3-0.1l0,0   c0,0,0.1,0,0.1-0.1c0.1-0.1,0.3-0.1,0.5-0.1h0c0,0,0.1,0,0.1,0c0,0,0.1,0,0.1,0l0,0h0l0,0h0l0,0c0.1,0.1,0.2,0.1,0.3,0.2l0,0l0,0   L203.3,72.2z M203.3,72.5v-0.3c-0.1-0.2-0.3-0.3-0.5-0.3c-0.1,0-0.2,0-0.2,0h0l0,0c-0.1,0-0.2,0.1-0.3,0.1c0,0-0.1,0.1-0.1,0.1l0,0   h0l0,0h0l0,0h0l0,0h0l0,0h0l0,0h0l0,0c-0.1,0-0.2,0.1-0.3,0c-0.1,0-0.2-0.1-0.3-0.1l0,0l0,0v0l0,0v-2.1l-0.1,0.1c0,0.4,0,0.7,0,1.1   s0,0.7,0,1.1c0.1,0.1,0.2,0.2,0.4,0.2h0c0.2,0,0.3-0.1,0.4-0.1c0.1-0.1,0.2-0.1,0.3-0.2l0,0h0l0,0h0l0,0h0l0,0h0l0,0h0l0,0   c0.1,0,0.2,0,0.3,0c0.1,0,0.2,0.1,0.2,0.2l0,0l0,0l0,0l0,0l0,0l0,0l0,0l0,0l0,0l0,0l0,0l0,0l0,0l0,0l0,0   C203.2,72.4,203.3,72.4,203.3,72.5L203.3,72.5z M203.3,72.2v0.2c0.1-0.2,0.3-0.3,0.4-0.4c0.1,0,0.3,0,0.4,0l0,0l0,0l0,0h0l0,0l0,0   l0,0h0l0,0h0l0,0h0l0,0l0,0l0,0l0,0l0,0l0,0l0,0l0,0l0,0l0,0l0,0l0,0l0,0l0,0l0,0l0,0l0,0l0,0c0.1,0.1,0.2,0.1,0.3,0.2h0   c0,0,0.1,0,0.1,0c0.2,0,0.3-0.1,0.5-0.2v-2.2l-0.1-0.1c0,0.2,0,0.3,0,0.5v0.1l0,0v0l0,0v0.2l0,0v0.6c0,0.2,0,0.5,0,0.7v0l0,0l0,0   c0,0,0,0-0.1,0l0,0h0l0,0h0l0,0c-0.1,0.1-0.2,0.1-0.3,0.1c-0.1,0-0.3-0.1-0.4-0.2c-0.1-0.1-0.3-0.1-0.4-0.1h0c0,0-0.1,0-0.1,0   C203.6,72,203.5,72.1,203.3,72.2L203.3,72.2z M203.3,69.9v2.3c0.1-0.1,0.3-0.2,0.4-0.3l0,0h0l0,0h0l0,0h0l0,0l0,0c0,0,0,0,0.1,0   l0,0h0h0c0.2,0,0.3,0,0.4,0.1c0,0,0.1,0,0.1,0.1l0,0h0l0,0l0,0c0.1,0.1,0.2,0.1,0.3,0.1c0.1,0,0.3,0,0.4-0.1c0-0.4,0-0.7,0-1.1   v-1.1c-0.1,0-0.2,0.1-0.3,0.1c-0.1,0-0.2,0-0.3-0.1c-0.2-0.1-0.4-0.2-0.6-0.2C203.7,69.6,203.5,69.7,203.3,69.9L203.3,69.9z    M203.1,72.5h0.2l0,0l0,0l0,0l0,0l0,0l0,0l0,0l0,0l0,0l0,0l0,0l0,0l0,0l0,0l0,0l0,0l0,0l0,0L203.1,72.5L203.1,72.5l0.1-0.1l0,0l0,0   l0,0l0,0l0,0l0,0l0,0c-0.1-0.1-0.2-0.2-0.3-0.3h0h0l0,0h0l0,0h0l0,0h0l0,0h0h0l0,0h0l0,0h0c-0.1,0-0.1,0-0.2,0h0c0,0,0,0-0.1,0l0,0   l0,0l0,0l0,0l0,0c-0.1,0-0.2,0.1-0.3,0.2c0,0-0.1,0.1-0.1,0.1l0,0h0l0,0h0l0,0h0l0,0h0l0,0h0l0,0h0l0,0h0l0,0h0l0,0l0,0h0l0,0h0   l0,0h0l0,0h0l0,0h0l0,0h0l0,0h0l0,0h0l0,0h0l0,0h0l0,0h0l0,0h0h0c0,0-0.1,0-0.1,0h-0.1h0l0,0c-0.1,0-0.3-0.1-0.4-0.2l0,0l0,0l0,0   l0,0l0-2.1h-0.1v2.2c0.1,0.1,0.2,0.2,0.4,0.3c0.2,0,0.3,0,0.5-0.1c0.1,0,0.1-0.1,0.2-0.1c0.1-0.1,0.2-0.1,0.4-0.2   c0.1,0,0.2,0,0.2,0.1c0.1,0,0.1,0.1,0.2,0.2L203.1,72.5L203.1,72.5c-0.1-0.1-0.1,0-0.1,0c0,0,0,0,0,0c0,0,0,0,0,0   c0,0,0.1,0.1,0.1,0.1h0.3l0,0h0.3c0,0,0.1,0,0.1-0.1c0,0,0,0,0-0.1c0,0,0,0,0-0.1c0,0-0.1-0.1-0.1-0.1l0,0l0-0.1   c0-0.1,0.1-0.1,0.1-0.2c0.1,0,0.2-0.1,0.3,0c0.1,0,0.2,0.1,0.3,0.2c0.1,0.1,0.2,0.1,0.3,0.2c0.1,0,0.2,0,0.4-0.1   c0.1-0.1,0.3-0.1,0.4-0.2V70h-0.1v2.1l0,0l0,0c-0.1,0.1-0.2,0.1-0.3,0.2l0,0h0l0,0h0l0,0c-0.2,0.1-0.5,0-0.6-0.1   c-0.1-0.1-0.3-0.2-0.5-0.1h0l0,0h0c0,0-0.1,0-0.1,0c0,0,0,0-0.1,0l0,0h0l0,0c-0.1,0.1-0.2,0.2-0.3,0.3l0,0l0,0h0.2v0.1L203.1,72.5   L203.1,72.5z M201.8,70.3h0.2v0h0c0,0,0,0,0,0l0,0v0.5l0,0h0.1c0,0,0.1,0,0.1,0c0,0,0,0,0.1,0c0,0,0-0.1,0.1-0.1l0,0l-0.1,0.2h-0.4   v0h0c0,0,0,0,0,0l0,0c0,0,0,0,0,0L201.8,70.3C201.8,70.4,201.8,70.4,201.8,70.3C201.8,70.4,201.8,70.3,201.8,70.3   C201.8,70.3,201.8,70.3,201.8,70.3L201.8,70.3L201.8,70.3z M202.5,70.9L202.5,70.9L202.5,70.9l0.4,0l0,0h0L203,71l0,0   c0,0,0-0.1-0.1-0.1c0,0-0.1,0-0.1,0c0,0,0,0,0,0s0,0,0,0v0.4c0,0,0,0,0,0s0,0,0,0c0,0,0,0,0,0c0,0,0,0,0,0v0h-0.2v0c0,0,0,0,0,0   c0,0,0,0,0,0c0,0,0,0,0,0v-0.4c0,0,0,0,0,0c0,0,0,0,0,0c0,0,0,0,0,0C202.6,70.9,202.6,70.9,202.5,70.9c0,0.1,0,0.1,0,0.1   c0,0,0,0,0,0.1l0,0L202.5,70.9z M202.6,70h0.2v0h0c0,0,0,0,0,0c0,0,0,0,0,0c0,0,0,0,0,0v0.4c0,0,0,0,0,0c0,0,0,0,0,0s0,0,0,0h0v0   h-0.2v0h0c0,0,0,0,0,0c0,0,0,0,0,0s0,0,0,0L202.6,70C202.7,70,202.7,70,202.6,70C202.7,70,202.7,70,202.6,70   C202.7,70,202.7,70,202.6,70L202.6,70L202.6,70z M202,71.5L202,71.5C202,71.4,202,71.4,202,71.5L202,71.5l-0.1-0.3c0,0,0,0,0.1,0   c0,0,0,0,0,0v0c0,0,0,0,0,0h-0.2v0h0c0,0,0,0,0,0c0,0,0,0,0,0.1v0.4c0,0,0,0,0,0.1c0,0,0,0-0.1,0h0v0h0.2v0h0c0,0,0,0,0,0   c0,0,0,0,0-0.1L202,71.5L202,71.5L202,71.5z M202.3,71.7h-0.1l-0.2-0.2v-0.1c0,0,0,0,0.1,0c0,0,0-0.1,0-0.1c0,0,0-0.1,0-0.1   c0,0,0,0-0.1,0v0c0,0,0.1,0,0.1,0c0,0,0.1,0,0.1,0c0,0,0,0.1,0,0.1c0,0,0,0.1,0,0.1c0,0-0.1,0-0.1,0.1l0.1,0.2   C202.2,71.6,202.2,71.7,202.3,71.7C202.3,71.7,202.3,71.7,202.3,71.7L202.3,71.7z M204.4,70.4h0.4l0.1,0.1l0,0c0,0,0,0,0-0.1   c0,0,0,0,0,0c0,0,0,0,0,0c0,0-0.1,0-0.1,0h-0.1v0.2h0.1c0,0,0,0,0.1,0c0,0,0,0,0,0c0,0,0,0,0-0.1v0h0v0.2h0v-0.1c0,0,0,0,0,0   c0,0,0,0,0,0s0,0,0,0h-0.1v0.2c0,0,0,0,0,0c0,0,0,0,0,0h0.1c0,0,0.1,0,0.1,0c0,0,0,0,0.1,0c0,0,0,0,0-0.1l0,0l-0.1,0.2h-0.4v0h0   c0,0,0,0,0,0c0,0,0,0,0,0L204.4,70.4C204.5,70.4,204.5,70.4,204.4,70.4C204.5,70.4,204.5,70.4,204.4,70.4L204.4,70.4L204.4,70.4z    M204,70.6L204,70.6L204,70.6c-0.1,0-0.1,0-0.1,0v-0.2h0.1v0h-0.1c0,0,0,0,0,0v-0.2c0,0,0,0,0.1,0c0,0,0,0,0,0v0h-0.3v0h0   c0,0,0,0,0,0c0,0,0,0,0,0.1v0.4c0,0,0,0,0,0.1c0,0,0,0,0,0h0v0L204,70.6L204,70.6z M204.1,70.3C204.1,70.3,204.1,70.3,204.1,70.3   c0.1,0.1,0.1,0.1,0.1,0.1c0,0,0,0.1,0,0.1c0,0,0,0-0.1,0.1c0,0-0.1,0-0.1,0v0c0,0,0.1,0,0.1,0c0,0,0-0.1,0-0.1   C204.1,70.4,204.1,70.4,204.1,70.3C204.1,70.4,204,70.4,204.1,70.3C204,70.4,204,70.3,204.1,70.3L204.1,70.3   C204,70.3,204,70.3,204.1,70.3C204,70.3,204.1,70.3,204.1,70.3c0-0.1,0-0.1,0-0.1c0,0,0-0.1,0-0.1c0,0,0,0-0.1,0v0c0,0,0,0,0.1,0   c0,0,0.1,0,0.1,0.1c0,0,0,0.1,0,0.1C204.2,70.2,204.2,70.3,204.1,70.3C204.1,70.3,204.1,70.3,204.1,70.3L204.1,70.3z M204.9,71.2   v0.2h0C204.9,71.3,204.9,71.3,204.9,71.2C204.8,71.3,204.8,71.3,204.9,71.2c-0.1,0-0.1,0-0.2,0c0,0,0,0-0.1,0c0,0,0,0,0,0.1   c0,0,0,0,0,0c0,0,0.1,0.1,0.1,0.1c0,0,0.1,0,0.1,0.1c0,0,0,0,0,0c0,0,0,0,0,0.1c0,0,0,0.1-0.1,0.1c0,0-0.1,0-0.1,0h0c0,0,0,0-0.1,0   c0,0,0,0,0,0c0,0,0,0,0,0c0,0,0,0,0,0h0v-0.2h0c0,0,0,0.1,0,0.1c0,0,0,0,0.1,0c0,0,0,0,0.1,0c0,0,0.1,0,0.1,0c0,0,0,0,0-0.1   c0,0,0,0,0,0c0,0,0,0,0,0c0,0,0,0-0.1,0c0,0-0.1,0-0.1-0.1c0,0,0,0,0,0c0,0,0,0,0-0.1c0,0,0-0.1,0-0.1c0,0,0.1,0,0.1,0   C204.7,71.2,204.8,71.2,204.9,71.2C204.8,71.2,204.8,71.2,204.9,71.2C204.8,71.2,204.9,71.2,204.9,71.2   C204.9,71.2,204.9,71.2,204.9,71.2L204.9,71.2z M203.9,71.3L203.9,71.3L203.9,71.3V71v-0.1l-0.2,0.4c0,0,0,0.1,0,0.1s0,0,0,0v0h0.1   v0c0,0,0,0,0,0c0,0,0,0,0,0c0,0,0,0,0,0L203.9,71.3L203.9,71.3z M204,71.3L204,71.3L204,71.3L204,71.3l-0.1-0.2v-0.1l0,0h0   L204,71.3c0.1,0.1,0.1,0.1,0.1,0.1c0,0,0,0,0,0v0H204v0c0,0,0,0,0,0c0,0,0,0,0,0C204,71.4,204,71.3,204,71.3L204,71.3z M203.1,76.9   L203.1,76.9z M203.3,76.3V74c-0.1-0.1-0.3-0.2-0.5-0.3c-0.2,0-0.4,0-0.5,0.1c-0.1,0.1-0.2,0.1-0.4,0.2c-0.1,0-0.3,0-0.4-0.1v2.2   l0,0l0,0l0,0l0,0l0,0l0,0l0,0c0.1,0.1,0.2,0.1,0.3,0.1c0.1,0,0.3,0,0.4-0.1l0,0h0l0,0l0,0l0,0l0,0l0,0c0.1-0.1,0.2-0.1,0.4-0.1h0   c0.1,0,0.1,0,0.2,0c0.1,0,0.1,0,0.2,0.1l0,0h0l0,0h0l0,0c0,0,0.1,0.1,0.1,0.1l0,0l0,0l0,0l0,0l0,0l0,0l0,0l0,0l0,0l0,0l0,0l0,0l0,0   l0,0l0,0l0,0l0,0l0,0l0,0l0,0l0,0l0,0l0,0l0,0l0,0l0,0l0,0l0,0l0,0l0,0l0,0l0,0l0,0l0,0l0,0l0,0l0,0l0,0l0,0l0,0l0,0l0,0l0,0l0,0   l0,0l0,0L203.3,76.3z M203.3,76.6v-0.3l0,0l0,0l0,0l0,0c-0.1-0.2-0.3-0.3-0.5-0.3c-0.2,0-0.3,0-0.5,0.1l0,0h0c0,0,0,0-0.1,0   c-0.1,0.1-0.2,0.1-0.3,0.1h-0.1c-0.1,0-0.2-0.1-0.3-0.1l0,0v-2.2l-0.1,0.1v0.1l0,2v0c0.1,0.1,0.2,0.2,0.3,0.2l0,0h0h0   c0,0,0,0,0.1,0c0.1,0,0.2,0,0.3-0.1l0,0h0l0,0h0l0,0h0l0,0h0l0,0h0l0,0h0l0,0h0l0,0h0l0,0h0l0,0c0,0,0.1,0,0.1-0.1l0,0   c0.1-0.1,0.3-0.2,0.4-0.2h0c0.1,0,0.2,0,0.2,0C203.1,76.2,203.2,76.4,203.3,76.6L203.3,76.6z M203.3,76.3v0.2   c0.1-0.2,0.2-0.3,0.4-0.4l0,0h0l0,0l0,0h0l0,0h0l0,0h0l0,0h0h0l0,0c0.2-0.1,0.4,0,0.6,0.1l0,0c0.1,0.1,0.1,0.1,0.2,0.1l0,0h0l0,0h0   l0,0c0.1,0,0.1,0,0.2,0c0.2,0,0.3-0.1,0.5-0.2v-2.2l-0.1-0.1c0,0.3,0,0.7,0,1.1c0,0.2,0,0.4,0,0.6l0,0v0l0,0v0.4l0,0v0l0,0v0l0,0   c-0.1,0.1-0.2,0.1-0.4,0.1l0,0h0h0l0,0h0l0,0c-0.1,0-0.2-0.1-0.3-0.2c-0.1,0-0.1-0.1-0.2-0.1l0,0l0,0l0,0h0l0,0c-0.1,0-0.2,0-0.3,0   C203.7,76.1,203.5,76.2,203.3,76.3L203.3,76.3z M203.3,74v2.3l0,0l0,0l0,0l0,0l0,0l0,0l0,0l0,0l0,0l0,0l0,0l0,0l0,0l0,0l0,0l0,0   l0,0l0,0l0,0l0,0l0,0l0,0l0,0l0,0c0.1-0.1,0.2-0.2,0.4-0.2l0,0h0l0,0h0h0h0l0,0h0l0,0c0.2,0,0.4,0,0.5,0.1c0,0,0.1,0,0.1,0.1l0,0   l0,0l0,0h0l0,0l0,0l0,0c0.1,0,0.2,0.1,0.2,0.1c0.1,0,0.2,0,0.3-0.1l0,0h0l0,0h0h0l0,0c0,0,0,0,0,0v0l0,0v0l0,0V76c0-0.3,0-0.7,0-1   s0-0.7,0-1v-0.1c-0.1,0.1-0.2,0.1-0.3,0.1c-0.1,0-0.2,0-0.3-0.1c-0.2-0.1-0.4-0.2-0.6-0.2C203.7,73.7,203.5,73.8,203.3,74L203.3,74   z M203.1,76.6h0.2c0,0,0-0.1-0.1-0.1l0,0l0,0l0,0l0,0l0,0l0,0l0,0c-0.1-0.1-0.1-0.2-0.2-0.2l0,0l0,0l0,0h0l0,0h0h0l0,0h0l0,0h0h0   l0,0h0h0h0h0h0l0,0h0l0,0c-0.2,0-0.4,0-0.6,0.1l0,0l0,0l0,0l0,0l0,0l0,0l0,0l0,0c-0.1,0.1-0.2,0.1-0.4,0.1h-0.1   c-0.2,0-0.3-0.1-0.4-0.2v0l0,0v0c0-0.7,0-1.4,0-2.1v0h-0.1v2.2c0.1,0.1,0.3,0.2,0.4,0.3c0.2,0,0.3,0,0.5-0.1c0.1,0,0.1-0.1,0.2-0.1   c0.1-0.1,0.2-0.1,0.4-0.2c0.1,0,0.2,0,0.2,0.1C203,76.4,203.1,76.5,203.1,76.6L203.1,76.6L203.1,76.6c-0.1,0-0.1,0-0.2,0.1   c0,0,0,0,0,0c0,0.1,0.1,0.1,0.1,0.1h0.3l0,0h0.3c0,0,0.1,0,0.1-0.1c0,0,0,0,0-0.1c0,0,0,0,0-0.1c0,0,0-0.1-0.1-0.1l0,0l0-0.1   c0-0.1,0.1-0.1,0.1-0.2c0.1,0,0.2-0.1,0.3,0c0.1,0,0.2,0.1,0.3,0.2c0.1,0.1,0.2,0.1,0.3,0.2c0.1,0,0.2,0,0.4,0   c0.1-0.1,0.3-0.1,0.4-0.2v-2.2h-0.1v2.1l0,0l0,0c-0.1,0.1-0.3,0.2-0.4,0.2h-0.1c-0.2,0-0.3-0.1-0.4-0.2c-0.1,0-0.1-0.1-0.2-0.1l0,0   h0l0,0h0l0,0h0l0,0h0l0,0h0h0l0,0h0l0,0h0h0h0h0h0h0l0,0h0h0l0,0h0l0,0h0l0,0h0h0h0l0,0c-0.1,0-0.1,0-0.2,0l0,0l0,0l0,0h0l0,0h0   l0,0h0h0l0,0h0l0,0h0l0,0h0l0,0h0c-0.1,0-0.1,0.1-0.1,0.1h0l0,0l0,0l0,0l0,0l0,0l0,0l0,0l0,0l0,0l0,0c-0.1,0.1-0.1,0.1-0.2,0.2h0.2   v0.1l-0.4,0L203.1,76.6z M201.8,74.4h0.2v0h0c0,0,0,0,0,0l0,0v0.5c0,0,0,0,0,0c0,0,0,0,0,0c0,0,0,0,0,0h0c0,0,0.1,0,0.1,0   c0,0,0,0,0.1,0c0,0,0-0.1,0.1-0.1l0,0l-0.1,0.2h-0.4v0h0c0,0,0,0,0,0l0,0c0,0,0,0,0,0L201.8,74.4C201.9,74.5,201.9,74.5,201.8,74.4   C201.9,74.4,201.9,74.4,201.8,74.4C201.8,74.4,201.8,74.4,201.8,74.4L201.8,74.4L201.8,74.4z M202.6,75L202.6,75L202.6,75l0.4,0   l0,0h0l0.1,0.2l0,0c0,0,0-0.1-0.1-0.1c0,0-0.1,0-0.1,0h0l0,0v0.4c0,0,0,0,0,0c0,0,0,0,0,0s0,0,0,0c0,0,0,0,0,0v0h-0.2v0   c0,0,0,0,0,0c0,0,0,0,0,0s0,0,0,0V75 M202.7,75C202.7,75,202.7,75,202.7,75C202.7,75,202.6,75,202.7,75c-0.1,0-0.1,0-0.1,0   c0,0,0,0,0,0.1l0,0L202.7,75z M202.6,74.1h0.2v0h0c0,0,0,0,0,0s0,0,0,0s0,0,0,0v0.4c0,0,0,0,0,0c0,0,0,0,0,0s0,0,0,0h0v0h-0.2v0h0   c0,0,0,0,0,0c0,0,0,0,0,0s0,0,0,0L202.6,74.1C202.7,74.1,202.7,74.1,202.6,74.1C202.7,74.1,202.7,74.1,202.6,74.1   C202.7,74.1,202.7,74.1,202.6,74.1L202.6,74.1L202.6,74.1z M202,75.6L202,75.6C202,75.5,202,75.5,202,75.6L202,75.6l-0.1-0.3   c0,0,0,0,0.1,0c0,0,0,0,0,0v0h-0.2v0h0c0,0,0,0,0,0c0,0,0,0,0,0.1v0.4c0,0,0,0,0,0.1c0,0,0,0-0.1,0h0v0h0.2v0h0c0,0,0,0,0,0   c0,0,0,0,0-0.1L202,75.6L202,75.6L202,75.6z M202.3,75.8h-0.1l-0.2-0.2v-0.1c0,0,0,0,0.1,0c0,0,0-0.1,0-0.1c0,0,0-0.1,0-0.1   c0,0,0,0-0.1,0v0c0,0,0.1,0,0.1,0c0,0,0.1,0,0.1,0c0,0,0,0.1,0,0.1c0,0,0,0.1,0,0.1c0,0-0.1,0-0.1,0.1l0.1,0.2   C202.2,75.7,202.2,75.7,202.3,75.8C202.3,75.8,202.3,75.8,202.3,75.8L202.3,75.8z M204.5,74.5h0.4l0,0.1l0,0c0,0,0,0,0-0.1   c0,0,0,0,0,0c0,0,0,0,0,0h-0.2v0.2h0.1c0,0,0,0,0.1,0c0,0,0,0,0,0c0,0,0,0,0,0l0,0h0v0.2h0v-0.1c0,0,0,0,0,0s0,0,0,0c0,0,0,0,0,0   h-0.1v0.2c0,0,0,0,0,0h0.1c0,0,0.1,0,0.1,0c0,0,0,0,0.1,0c0,0,0,0,0-0.1l0,0l-0.1,0.2h-0.4v0h0c0,0,0,0,0,0s0,0,0,0c0,0,0,0,0,0   L204.5,74.5C204.5,74.5,204.5,74.5,204.5,74.5C204.5,74.5,204.5,74.5,204.5,74.5L204.5,74.5L204.5,74.5z M204,74.7L204,74.7   L204,74.7c-0.1,0-0.1,0-0.1,0v-0.2h0c0,0,0,0,0,0c0,0,0,0,0,0v0h-0.1c0,0,0,0,0,0v-0.2c0,0,0,0,0.1,0c0,0,0,0,0,0v0h-0.3v0h0   c0,0,0,0,0.1,0c0,0,0,0,0,0.1v0.4c0,0,0,0,0,0.1c0,0,0,0-0.1,0h0v0L204,74.7L204,74.7z M204.1,74.4   C204.1,74.4,204.1,74.4,204.1,74.4c0.1,0.1,0.1,0.1,0.1,0.1c0,0,0,0.1,0,0.1c0,0,0,0-0.1,0.1c0,0-0.1,0-0.1,0v0c0,0,0.1,0,0.1,0   c0,0,0-0.1,0-0.1C204.1,74.5,204.1,74.5,204.1,74.4C204.1,74.5,204.1,74.5,204.1,74.4C204,74.4,204,74.4,204.1,74.4L204.1,74.4   C204,74.4,204,74.4,204.1,74.4C204.1,74.4,204.1,74.4,204.1,74.4c0-0.1,0-0.1,0-0.1c0,0,0-0.1,0-0.1c0,0,0,0-0.1,0v0c0,0,0,0,0.1,0   c0,0,0.1,0,0.1,0.1c0,0,0,0.1,0,0.1C204.2,74.3,204.2,74.4,204.1,74.4C204.1,74.4,204.1,74.4,204.1,74.4L204.1,74.4z M204.9,75.3   v0.2h0C204.9,75.4,204.9,75.4,204.9,75.3C204.9,75.4,204.8,75.3,204.9,75.3c-0.1,0-0.1,0-0.2,0c0,0,0,0-0.1,0c0,0,0,0,0,0.1   c0,0,0,0,0,0c0,0,0.1,0.1,0.1,0.1c0,0,0.1,0,0.1,0.1c0,0,0,0,0,0c0,0,0,0,0,0.1c0,0,0,0.1-0.1,0.1c0,0-0.1,0-0.1,0c0,0,0,0,0,0   l-0.1,0c0,0,0,0-0.1,0c0,0,0,0,0,0c0,0,0,0,0,0h0v-0.2h0c0,0,0,0.1,0,0.1c0,0,0,0,0.1,0c0,0,0.1,0,0.1,0c0,0,0.1,0,0.1,0   c0,0,0,0,0-0.1c0,0,0,0,0,0c0,0,0,0,0,0c0,0,0,0-0.1-0.1c0,0-0.1,0-0.1-0.1c0,0,0,0,0-0.1c0,0,0,0,0-0.1c0,0,0-0.1,0-0.1   c0,0,0.1,0,0.1,0C204.8,75.3,204.8,75.3,204.9,75.3C204.8,75.3,204.9,75.3,204.9,75.3C204.9,75.3,204.9,75.3,204.9,75.3   C204.9,75.3,204.9,75.3,204.9,75.3L204.9,75.3z M203.9,75.3L203.9,75.3L203.9,75.3v-0.2V75l-0.2,0.4c0,0,0,0.1,0,0.1c0,0,0,0,0,0v0   h0.1v0c0,0,0,0,0,0c0,0,0,0,0,0c0,0,0,0,0,0L203.9,75.3L203.9,75.3z M204,75.3L204,75.3L204,75.3L204,75.3l-0.1-0.2V75l0,0h0   L204,75.3c0.1,0.1,0.1,0.1,0.1,0.1c0,0,0,0,0,0v0H204v0c0,0,0,0,0,0c0,0,0,0,0,0C204.1,75.5,204.1,75.4,204,75.3L204,75.3z    M201.4,78.3L201.4,78.3L201.4,78.3L201.4,78.3z M203.4,78.2L203.4,78.2z M203.3,80.5v-2.3c-0.1-0.1-0.3-0.2-0.5-0.3   c-0.2,0-0.4,0-0.5,0.1c-0.1,0.1-0.2,0.1-0.4,0.2c-0.1,0-0.3,0-0.4-0.1v2.2l0,0l0,0l0,0l0,0l0,0l0,0l0,0c0.1,0.1,0.2,0.1,0.3,0.1   c0,0,0.1,0,0.1,0h0c0,0,0.1,0,0.1,0l0,0l0,0l0,0h0l0,0h0l0,0h0l0,0h0l0,0h0l0,0h0l0,0h0l0,0h0l0,0h0l0,0h0l0,0h0l0,0h0l0,0h0l0,0h0   h0l0,0h0l0,0h0l0,0l0,0l0,0l0,0l0,0l0,0l0,0l0,0l0,0l0,0l0,0l0,0l0,0l0,0c0.1-0.1,0.2-0.1,0.3-0.1h0.2h0l0,0h0l0,0h0h0l0,0h0l0,0h0   l0,0h0l0,0h0l0,0h0l0,0l0,0l0,0c0,0,0,0,0.1,0h0l0,0h0h0l0,0h0l0,0l0,0h0l0,0h0l0,0h0l0,0h0C203.2,80.4,203.3,80.4,203.3,80.5   L203.3,80.5z M203.3,80.9v-0.3c-0.1-0.1-0.1-0.2-0.2-0.2l0,0h0l0,0l0,0h0l0,0h0l0,0h0l0,0h0l0,0h0c-0.1,0-0.1-0.1-0.2-0.1l0,0h0   l0,0h0l0,0h0h0l0,0h0h0l0,0h0h-0.2h0l0,0h0l0,0h0l0,0h0l0,0h0l0,0h0l0,0h0l0,0h0l0,0h0l0,0h0l0,0h0l0,0h0l0,0h0l0,0h0   c-0.1,0-0.1,0.1-0.2,0.1c-0.1,0.1-0.3,0.1-0.4,0.1h0c-0.1,0-0.2,0-0.2-0.1l0,0l0,0l0,0l0,0l0,0l0,0l0,0l0,0l0,0l0,0l0,0l0,0l0,0   l0,0l0,0l0,0l0,0l0,0l0,0l0,0l0,0l0,0l0,0l0,0l0,0l0,0l0,0l0,0l0,0l0,0l0,0l0,0l0,0l0,0l0,0l0,0l0,0l0,0l0,0v-2.2l-0.1,0.1v0.1l0,2   l0,0c0.1,0.1,0.3,0.2,0.4,0.2h0.1c0.1,0,0.3-0.1,0.4-0.1c0,0,0.1,0,0.1-0.1l0,0l0,0l0,0l0,0l0,0c0.1-0.1,0.3-0.1,0.4-0.1l0,0   c0,0,0.1,0,0.1,0C203.2,80.6,203.3,80.7,203.3,80.9L203.3,80.9z M203.4,80.6v0.2c0.1-0.1,0.2-0.2,0.3-0.3l0,0l0,0l0,0h0l0,0h0l0,0   h0c0,0,0.1-0.1,0.1-0.1c0.1,0,0.1,0,0.2,0h0.1c0.1,0,0.2,0.1,0.3,0.1l0,0l0,0l0,0l0,0l0,0c0.1,0.1,0.3,0.2,0.4,0.2h0   c0.1,0,0.1,0,0.2-0.1l0,0h0l0,0l0,0h0l0,0l0,0l0,0h0l0,0h0l0,0h0l0,0c0.1,0,0.1-0.1,0.2-0.1v-2.2l-0.1-0.1c0,0.3,0,0.7,0,1.1   c0,0.2,0,0.3,0,0.5l0,0v0l0,0v0.5l0,0v0l0,0v0l0,0l0,0l0,0c-0.1,0.1-0.1,0.1-0.2,0.1l0,0l0,0l0,0h0h0h0l0,0h0l0,0h0h-0.1h0l0,0h0h0   l0,0h0l0,0c-0.1,0-0.2-0.1-0.3-0.1l0,0h0l0,0h0l0,0l0,0c-0.1,0-0.1-0.1-0.2-0.1l0,0h0l0,0h0l0,0h0l0,0c-0.1,0-0.2,0-0.3,0l-0.1,0   l0,0h0l0,0h0l0,0h0h0l0,0h0l0,0h0l0,0C203.6,80.4,203.5,80.5,203.4,80.6L203.4,80.6z M203.4,78.3v2.3c0.1-0.1,0.3-0.3,0.5-0.3l0,0   h0h0l0,0c0.1,0,0.3,0,0.4,0.1l0,0l0,0l0,0l0,0l0,0c0,0,0.1,0,0.1,0.1c0.1,0.1,0.2,0.1,0.3,0.2h0h0h0.1c0.1,0,0.1,0,0.2,0l0,0h0h0   l0,0h0h0l0,0h0h0l0,0h0l0,0c0,0,0.1,0,0.1-0.1v0l0,0v0l0,0v0l0,0v-0.1c0-0.3,0-0.7,0-1s0-0.7,0-1v-0.1c-0.1,0-0.2,0.1-0.3,0.1   c-0.1,0-0.2,0-0.3-0.1c-0.2-0.1-0.4-0.2-0.6-0.2C203.7,78,203.5,78.1,203.4,78.3L203.4,78.3z M203.1,80.9h0.2   c0-0.1-0.1-0.1-0.1-0.2l0,0l0,0l0,0l0,0l0,0l0,0l0,0l0,0l0,0l0,0l0,0l0,0l0,0l0,0l0,0c0-0.1-0.1-0.1-0.2-0.1l0,0h0l0,0h0h0h0h0h0   l0,0h0l0,0h0l0,0h0l0,0h0l0,0l0,0l0,0h0l0,0c0,0-0.1,0-0.1,0h0c-0.1,0-0.1,0-0.2,0l0,0h0l0,0l0,0l0,0h0l0,0h0l0,0l0,0l0,0l0,0l0,0   c-0.1,0-0.1,0.1-0.2,0.1c-0.1,0.1-0.2,0.1-0.3,0.1l0,0h0l0,0h0l0,0h0l0,0h0l0,0h0l0,0h0h0c0,0-0.1,0-0.1,0c0,0-0.1,0-0.1,0h0l0,0h0   l0,0h0l0,0c-0.1,0-0.1,0-0.2-0.1l0,0h0l0,0h0l0,0h0l0,0h0l0,0l0,0l0,0l0,0l0,0c0,0-0.1-0.1-0.1-0.1l0,0l0,0c0-0.4,0-0.7,0-1.1   c0-0.3,0-0.6,0-1v0h-0.1v2.1c0.1,0.1,0.2,0.2,0.4,0.3c0.2,0,0.3,0,0.5-0.1c0.1,0,0.1-0.1,0.2-0.1c0.1-0.1,0.2-0.1,0.4-0.2   c0.1,0,0.2,0,0.2,0.1C203,80.7,203.1,80.8,203.1,80.9L203.1,80.9L203.1,80.9c-0.1,0-0.1,0-0.1,0.1c0,0,0,0,0,0c0,0,0,0,0,0   c0,0,0.1,0.1,0.1,0.1h0.3l0,0h0.3c0,0,0.1,0,0.1-0.1c0,0,0,0,0-0.1c0,0,0,0,0-0.1c0,0,0-0.1-0.1-0.1l0,0l0-0.1   c0-0.1,0.1-0.1,0.1-0.2c0.1,0,0.2-0.1,0.3,0c0.1,0,0.2,0.1,0.3,0.2c0.1,0.1,0.2,0.1,0.3,0.2c0.1,0,0.2,0,0.4,0   c0.1-0.1,0.3-0.1,0.4-0.2v-2.2h-0.1v2.1l0,0l0,0l0,0l0,0l0,0l0,0c-0.1,0.1-0.3,0.2-0.5,0.2c-0.1,0-0.2,0-0.3-0.1l0,0l0,0l0,0h0l0,0   h0l0,0h0l0,0h0h0l0,0h0l0,0c0,0-0.1-0.1-0.1-0.1c-0.1-0.1-0.3-0.2-0.5-0.1h-0.1h0l0,0c0,0-0.1,0-0.1,0c0,0-0.1,0-0.1,0.1l0,0l0,0   l0,0l0,0c-0.1,0.1-0.2,0.2-0.3,0.3h0.2v0.1l-0.4,0L203.1,80.9z M201.8,78.7h0.2v0H202l0,0v0.5c0,0,0,0,0,0h0.1c0,0,0.1,0,0.1,0   c0,0,0,0,0.1,0c0,0,0-0.1,0.1-0.1l0,0l-0.1,0.2h-0.4v0h0c0,0,0,0,0,0s0,0,0,0s0,0,0,0L201.8,78.7C201.9,78.7,201.9,78.7,201.8,78.7   C201.9,78.7,201.9,78.7,201.8,78.7L201.8,78.7L201.8,78.7z M202.6,79.3L202.6,79.3L202.6,79.3l0.4,0l0,0h0l0.1,0.2l0,0   c0,0,0-0.1-0.1-0.1c0,0-0.1,0-0.1,0c0,0,0,0,0,0c0,0,0,0,0,0v0.4c0,0,0,0,0,0s0,0,0,0c0,0,0,0,0,0c0,0,0,0,0,0v0h-0.2v0   c0,0,0,0,0,0c0,0,0,0,0,0c0,0,0,0,0,0v-0.4c0,0,0,0,0,0c0,0,0,0,0,0c0,0,0,0,0,0C202.7,79.3,202.7,79.3,202.6,79.3   C202.6,79.3,202.6,79.3,202.6,79.3c0,0.1,0,0.1,0,0.2l0,0L202.6,79.3z M202.7,78.3h0.2v0h0c0,0,0,0,0,0c0,0,0,0,0,0c0,0,0,0,0,0   v0.4c0,0,0,0,0,0c0,0,0,0,0,0c0,0,0,0,0,0h0v0h-0.2v0h0c0,0,0,0,0,0c0,0,0,0,0,0s0,0,0,0L202.7,78.3   C202.7,78.4,202.7,78.4,202.7,78.3C202.7,78.4,202.7,78.4,202.7,78.3C202.7,78.4,202.7,78.4,202.7,78.3L202.7,78.3L202.7,78.3z    M202.1,79.9L202.1,79.9C202,79.8,202,79.8,202.1,79.9L202.1,79.9l-0.1-0.3c0,0,0,0,0.1,0c0,0,0,0,0,0v0c0,0,0,0,0,0h-0.2v0h0   c0,0,0,0,0,0c0,0,0,0,0,0.1V80c0,0,0,0,0,0.1c0,0,0,0-0.1,0h0v0h0.2v0h0c0,0,0,0,0,0c0,0,0,0,0-0.1L202.1,79.9L202.1,79.9   L202.1,79.9z M202.4,80.1h-0.2l-0.2-0.2v-0.1c0,0,0,0,0.1,0c0,0,0-0.1,0-0.1c0,0,0-0.1,0-0.1c0,0,0,0-0.1,0v0c0,0,0.1,0,0.1,0   c0,0,0.1,0,0.1,0c0,0,0,0.1,0,0.1c0,0,0,0.1,0,0.1c0,0-0.1,0-0.1,0.1l0.1,0.2C202.2,80,202.3,80,202.4,80.1   C202.3,80.1,202.3,80.1,202.4,80.1L202.4,80.1z M204.5,78.7h0.4l0,0.1l0,0c0,0,0,0,0-0.1c0,0,0,0,0,0c0,0,0,0,0,0c0,0-0.1,0-0.1,0   h-0.1V79h0.1c0,0,0,0,0.1,0c0,0,0,0,0,0c0,0,0,0,0,0v0h0v0.2h0v-0.1c0,0,0,0,0,0c0,0,0,0,0,0c0,0,0,0,0,0h-0.1v0.2c0,0,0,0,0,0   c0,0,0,0,0,0h0.1c0,0,0.1,0,0.1,0c0,0,0,0,0.1-0.1c0,0,0,0,0-0.1l0,0l-0.1,0.2h-0.4v0h0c0,0,0,0,0,0c0,0,0,0,0,0L204.5,78.7   C204.6,78.8,204.6,78.8,204.5,78.7C204.5,78.8,204.5,78.8,204.5,78.7L204.5,78.7L204.5,78.7z M204,79L204,79L204,79   c-0.1,0-0.1,0-0.1,0v-0.2h0.1v0h-0.1c0,0,0,0,0,0v-0.2c0,0,0,0,0.1,0c0,0,0,0,0,0v0h-0.3v0h0c0,0,0,0,0.1,0c0,0,0,0,0,0.1v0.4   c0,0,0,0,0,0.1c0,0,0,0-0.1,0h0v0L204,79L204,79z M204.1,78.7C204.1,78.7,204.2,78.7,204.1,78.7c0.1,0.1,0.1,0.1,0.1,0.1   c0,0,0,0.1,0,0.1c0,0,0,0-0.1,0.1c0,0-0.1,0-0.1,0v0c0,0,0.1,0,0.1,0c0,0,0,0,0-0.1C204.1,78.8,204.1,78.8,204.1,78.7   C204.1,78.8,204.1,78.7,204.1,78.7L204.1,78.7L204.1,78.7C204,78.7,204,78.7,204.1,78.7C204.1,78.7,204.1,78.6,204.1,78.7   c0-0.1,0-0.1,0-0.1c0,0,0-0.1,0-0.1c0,0,0,0-0.1,0v0c0,0,0.1,0,0.1,0c0,0,0.1,0,0.1,0.1c0,0,0,0.1,0,0.1   C204.2,78.6,204.2,78.6,204.1,78.7C204.2,78.7,204.1,78.7,204.1,78.7L204.1,78.7z M204.9,79.6v0.2h0   C204.9,79.7,204.9,79.7,204.9,79.6c-0.1,0.1-0.1,0.1-0.1,0.1c0,0,0,0-0.1,0c0,0,0,0-0.1,0c0,0,0,0,0,0.1c0,0,0,0,0,0   c0,0,0.1,0.1,0.1,0.1c0,0,0.1,0,0.1,0.1c0,0,0,0,0,0.1c0,0,0,0,0,0.1c0,0,0,0.1-0.1,0.1c0,0-0.1,0-0.1,0h0c0,0,0,0-0.1,0   c0,0,0,0-0.1,0c0,0,0,0,0,0c0,0,0,0,0,0h0v-0.2h0c0,0,0,0.1,0,0.1c0,0,0,0,0.1,0c0,0,0,0,0.1,0c0,0,0.1,0,0.1,0c0,0,0,0,0-0.1   c0,0,0,0,0,0c0,0,0,0,0,0c0,0,0,0-0.1,0s-0.1,0-0.1-0.1c0,0,0,0,0,0c0,0,0,0,0-0.1c0,0,0-0.1,0-0.1c0,0,0.1,0,0.1,0   C204.8,79.6,204.8,79.6,204.9,79.6C204.9,79.6,204.9,79.6,204.9,79.6L204.9,79.6C204.9,79.6,204.9,79.6,204.9,79.6L204.9,79.6z    M203.9,79.6L203.9,79.6L203.9,79.6v-0.2v-0.1l-0.2,0.4c0,0,0,0.1,0,0.1c0,0,0,0,0,0v0h0.1v0c0,0,0,0,0,0c0,0,0,0,0,0c0,0,0,0,0,0   L203.9,79.6L203.9,79.6z M204,79.6L204,79.6L204,79.6L204,79.6l-0.1-0.2v-0.1l0,0h0L204,79.6c0.1,0.1,0.1,0.1,0.1,0.1c0,0,0,0,0,0   v0H204v0c0,0,0,0,0,0c0,0,0,0,0,0C204.1,79.7,204.1,79.7,204,79.6L204,79.6z M209.2,80.5v-2.3c-0.1-0.1-0.3-0.2-0.5-0.3   c-0.2,0-0.4,0-0.5,0.1l0,0c-0.1,0.1-0.2,0.1-0.4,0.2c-0.1,0-0.3,0-0.4-0.1v0l0,0v2.2c0,0,0.1,0.1,0.1,0.1l0,0l0,0l0,0l0,0l0,0l0,0   l0,0l0,0l0,0l0,0l0,0l0,0l0,0l0,0l0,0l0,0l0,0l0,0h0c0,0,0.1,0,0.1,0c0,0,0.1,0,0.1,0h0c0.1,0,0.2-0.1,0.3-0.1c0,0,0.1,0,0.1-0.1   l0,0h0h0h0l0,0c0,0,0.1,0,0.1,0l0,0h0l0,0h0h0h0h0l0,0h0l0,0c0.1,0,0.2,0,0.3,0C208.9,80.2,209.1,80.4,209.2,80.5L209.2,80.5z    M209.2,80.9v-0.3c-0.1-0.2-0.3-0.3-0.5-0.3c-0.2,0-0.4,0-0.5,0.1l0,0l0,0l0,0l0,0l0,0l0,0l0,0l0,0l0,0c-0.1,0.1-0.2,0.1-0.3,0.1h0   h0c0,0-0.1,0-0.1,0h0c0,0-0.1,0-0.1,0l0,0l0,0l0,0h0l0,0l0,0l0,0l0,0l0,0l0,0l0,0l0,0l0,0l0,0l0,0l0,0l0,0h0l0,0c0,0-0.1,0-0.1-0.1   l0,0l0,0l0,0l0,0l0,0l0,0l0,0l0,0v-2.2l-0.2,0.1c0,0.4,0,0.7,0,1.1v0.4l0,0.7c0.1,0.1,0.3,0.2,0.4,0.2h0c0.2,0,0.3-0.1,0.4-0.2   c0.1-0.1,0.2-0.1,0.3-0.2l0,0l0,0h0l0,0h0l0,0h0l0,0h0l0,0h0l0,0h0h0h0l0,0c0.1,0,0.2,0,0.2,0c0.1,0,0.1,0.1,0.2,0.1l0,0l0,0l0,0   l0,0l0,0C209.1,80.7,209.2,80.8,209.2,80.9L209.2,80.9L209.2,80.9L209.2,80.9L209.2,80.9L209.2,80.9L209.2,80.9z M209.2,80.6v0.2   c0.1-0.1,0.1-0.2,0.2-0.3l0,0l0,0l0,0l0,0l0,0l0,0l0,0l0,0l0,0l0,0h0l0,0h0l0,0l0,0l0,0l0,0l0,0c0,0,0.1-0.1,0.1-0.1l0,0h0l0,0h0h0   l0,0c0.2-0.1,0.4,0,0.6,0.1l0,0l0,0l0,0l0,0c0.1,0.1,0.3,0.2,0.4,0.2h0h0c0.2,0,0.3-0.1,0.4-0.2v-2.2l-0.1-0.1v0.1l0,0v0l0,0v0l0,0   v0.2l0,0v0.2l0,0v0l0,0v0l0,0v0.2l0,0v0.2l0,0v0.1c0,0.3,0,0.6,0,0.9v0.1l0,0v0l0,0v0l0,0v0l0,0l0,0l0,0c0,0,0,0-0.1,0.1l0,0h0l0,0   h0h0h0h0l0,0c-0.1,0.1-0.2,0.1-0.3,0.1c0,0-0.1,0-0.1,0l0,0h0h0c-0.1,0-0.2-0.1-0.3-0.1c-0.1-0.1-0.2-0.1-0.2-0.1l0,0h0l0,0h0l0,0   h0l0,0h0h-0.2h0h0h0h0h0h0h0h0h0h0h0h0h0l0,0h0h0l0,0h0l0,0h0h0l0,0h0l0,0h0l0,0h0l0,0h0l0,0h0l0,0   C209.4,80.3,209.3,80.5,209.2,80.6L209.2,80.6z M209.2,78.3v2.3l0.1-0.1l0,0l0,0l0,0l0,0l0,0l0,0l0,0c0.1,0,0.1-0.1,0.2-0.1l0,0h0   l0,0h0l0,0h0l0,0h0l0,0h0l0,0h0l0,0c0.1,0,0.1-0.1,0.2-0.1l0,0l0,0h0l0,0h0l0,0c0.1,0,0.2,0,0.2,0l0,0l0,0l0,0h0l0,0h0l0,0h0h0l0,0   h0h0l0,0h0h0h0h0h0h0l0,0h0l0,0h0l0,0c0,0,0.1,0,0.1,0.1c0.1,0.1,0.2,0.1,0.4,0.2c0.1,0,0.2,0,0.2,0l0,0h0h0h0l0,0   c0,0,0.1,0,0.1-0.1v0l0,0v0l0,0v-0.5l0,0c0-0.2,0-0.3,0-0.5v-0.1c0-0.4,0-0.7,0-1.1c-0.1,0-0.2,0.1-0.3,0.1c-0.1,0-0.2,0-0.3-0.1   c-0.2-0.1-0.4-0.2-0.6-0.2C209.5,78,209.3,78.1,209.2,78.3L209.2,78.3z M209,80.9h0.2c-0.1-0.2-0.2-0.3-0.4-0.4   c-0.2-0.1-0.3,0-0.5,0.1l0,0l0,0l0,0c-0.1,0-0.1,0.1-0.2,0.1c0,0-0.1,0.1-0.1,0.1l0,0c-0.1,0.1-0.2,0.1-0.3,0.1   c-0.2,0-0.3-0.1-0.4-0.2l0,0l0,0l0,0l0,0l0,0l0,0l0,0l0,0l0,0l0,0v0v0c0-0.4,0-0.7,0-1.1l0-1h-0.1v2.2c0.1,0.1,0.2,0.2,0.4,0.3   c0.2,0,0.3,0,0.5-0.1c0.1,0,0.1-0.1,0.2-0.1c0.1-0.1,0.2-0.1,0.4-0.2c0.1,0,0.2,0,0.2,0.1C208.9,80.7,208.9,80.7,209,80.9L209,80.9   L209,80.9c-0.1,0-0.1,0-0.1,0.1c0,0,0,0,0,0c0,0,0,0,0,0c0,0,0.1,0.1,0.1,0.1h0.3l0,0h0.3c0,0,0.1,0,0.1-0.1c0,0,0,0,0-0.1   c0-0.1,0-0.1-0.1-0.1l0,0l0-0.1c0-0.1,0.1-0.1,0.1-0.2c0.1,0,0.2-0.1,0.3,0c0.1,0,0.2,0.1,0.3,0.2c0.1,0.1,0.2,0.1,0.3,0.2   c0.1,0,0.2,0,0.3,0c0.1-0.1,0.3-0.1,0.4-0.2v-2.2h-0.1v2.1l0,0l0,0c0,0-0.1,0.1-0.1,0.1l0,0h0l0,0c-0.1,0.1-0.2,0.1-0.3,0.1l0,0h0   c-0.2,0-0.3-0.1-0.4-0.2c-0.1-0.1-0.3-0.2-0.4-0.1h0c0,0-0.1,0-0.1,0c-0.1,0-0.1,0.1-0.2,0.1l0,0h0l0,0h0l0,0l0,0l0,0l0,0l0,0l0,0   l0,0l0,0l0,0l0,0l0,0l0,0l0,0l0,0l0,0c-0.1,0.1-0.1,0.1-0.2,0.2l0,0l0,0l0,0l0,0l0,0l0,0l0,0h0.2V81l-0.4,0L209,80.9z M207.9,79.1   L207.9,79.1L207.9,79.1v-0.2v-0.1l-0.2,0.4c0,0,0,0.1,0,0.1c0,0,0,0,0,0v0h0.1v0c0,0,0,0,0,0c0,0,0,0,0,0c0,0,0,0,0,0L207.9,79.1   L207.9,79.1z M208,79.1L208,79.1L208,79.1L208,79.1l-0.1-0.2v-0.1l0,0h0l0.2,0.4c0,0,0,0,0,0.1c0,0,0,0,0,0v0H208v0c0,0,0,0,0,0   c0,0,0,0,0,0C208,79.2,208,79.1,208,79.1L208,79.1z M208.7,79.8L208.7,79.8C208.7,79.7,208.6,79.7,208.7,79.8L208.7,79.8l-0.1-0.3   c0,0,0,0,0.1,0h0v0h-0.2v0h0c0,0,0,0,0,0c0,0,0,0,0,0.1v0.3c0,0,0,0,0,0.1c0,0,0,0,0,0h0v0h0.2v0h0c0,0,0,0,0,0c0,0,0,0,0-0.1   L208.7,79.8L208.7,79.8L208.7,79.8z M209,80h-0.1l-0.2-0.2v-0.1c0,0,0,0,0.1,0c0,0,0,0,0-0.1c0,0,0-0.1,0-0.1c0,0,0,0-0.1,0v0   c0,0,0.1,0,0.1,0c0,0,0.1,0,0.1,0c0,0,0,0,0,0.1c0,0,0,0.1,0,0.1c0,0-0.1,0-0.1,0l0.1,0.1C208.9,79.9,208.9,79.9,209,80   C208.9,79.9,209,79.9,209,80L209,80z M207.7,79.6L207.7,79.6L207.7,79.6l0.4,0v0h0l0.1,0.2l0,0c0,0,0-0.1-0.1-0.1c0,0-0.1,0-0.1,0   c0,0,0,0,0,0c0,0,0,0,0,0v0.4c0,0,0,0,0,0s0,0,0,0c0,0,0,0,0,0h0v0h-0.2v0h0c0,0,0,0,0,0c0,0,0,0,0,0v-0.4l0,0c0,0,0,0,0,0   C207.8,79.7,207.8,79.7,207.7,79.6c0,0.1,0,0.1,0,0.1c0,0,0,0,0,0.1l0,0L207.7,79.6z M209.9,79L209.9,79L209.9,79   c-0.1,0-0.1,0-0.1,0v-0.2h0.1v0h-0.1c0,0,0,0,0,0v-0.2c0,0,0,0,0.1,0c0,0,0,0,0,0v0h-0.3v0h0c0,0,0,0,0.1,0c0,0,0,0,0,0.1v0.3   c0,0,0,0,0,0.1c0,0,0,0-0.1,0h0v0L209.9,79L209.9,79z M210,78.7C210,78.8,210.1,78.8,210,78.7c0.1,0.1,0.1,0.1,0.1,0.1   c0,0,0,0.1,0,0.1c0,0,0,0-0.1,0.1c0,0-0.1,0-0.1,0v0c0,0,0.1,0,0.1,0c0,0,0,0,0-0.1C210,78.9,210,78.8,210,78.7   C210,78.8,210,78.8,210,78.7L210,78.7L210,78.7C209.9,78.7,210,78.7,210,78.7C210,78.7,210,78.7,210,78.7c0-0.1,0-0.1,0-0.1   c0,0,0-0.1,0-0.1c0,0,0,0-0.1,0v0c0,0,0,0,0.1,0c0,0,0.1,0,0.1,0.1c0,0,0,0.1,0,0.1C210.1,78.7,210.1,78.7,210,78.7   C210.1,78.7,210,78.7,210,78.7L210,78.7z M209.7,79.4h0.2v0h0c0,0,0,0,0,0l0,0c0,0,0,0,0,0v0.3c0,0,0,0,0,0l0,0c0,0,0,0,0,0h0v0   h-0.2v0h0c0,0,0,0,0,0c0,0,0,0,0,0L209.7,79.4C209.8,79.5,209.8,79.5,209.7,79.4C209.7,79.5,209.7,79.5,209.7,79.4L209.7,79.4   L209.7,79.4z M210.5,78.7h0.2v0h0c0,0,0,0,0,0c0,0,0,0,0,0c0,0,0,0,0,0v0.3c0,0,0,0,0,0c0,0,0,0,0,0c0,0,0,0,0,0h0v0h-0.2v0h0   c0,0,0,0,0,0c0,0,0,0,0,0L210.5,78.7C210.6,78.8,210.5,78.7,210.5,78.7C210.5,78.7,210.5,78.7,210.5,78.7L210.5,78.7L210.5,78.7z    M210.5,79.6h0.2v0h0c0,0,0,0,0,0l0,0c0,0,0,0,0,0v0.3c0,0,0,0,0,0c0,0,0,0,0,0c0,0,0,0,0,0h0v0h-0.2v0h0c0,0,0,0,0,0c0,0,0,0,0,0   c0,0,0,0,0,0L210.5,79.6C210.5,79.7,210.5,79.7,210.5,79.6C210.5,79.7,210.5,79.7,210.5,79.6C210.5,79.7,210.5,79.6,210.5,79.6   L210.5,79.6L210.5,79.6z M208.7,78.7L208.7,78.7C208.6,78.7,208.6,78.7,208.7,78.7L208.7,78.7l-0.1-0.3c0,0,0,0,0.1,0h0v0h-0.2v0h0   c0,0,0,0,0,0c0,0,0,0,0,0.1v0.3c0,0,0,0.1,0,0.1s0,0,0,0h0v0h0.2v0h0c0,0,0,0,0,0c0,0,0,0,0-0.1v-0.1L208.7,78.7L208.7,78.7z    M209,78.9h-0.1l-0.1-0.2v-0.1c0,0,0,0,0,0c0,0,0,0,0-0.1c0,0,0-0.1,0-0.1c0,0,0,0-0.1,0v0c0,0,0.1,0,0.1,0c0,0,0,0,0.1,0   c0,0,0,0,0,0.1c0,0,0,0.1,0,0.1c0,0-0.1,0-0.1,0l0.1,0.1C208.8,78.9,208.9,78.9,209,78.9C208.9,78.9,208.9,78.9,209,78.9L209,78.9z    M209,76.9L209,76.9z M208.6,76.2L208.6,76.2 M208.6,76.2c-0.2,0-0.3,0.1-0.5,0.2l0,0l0,0l0,0l0,0l0,0c-0.1,0.1-0.1,0.1-0.2,0.1   l0,0h0l0,0h0l0,0h0l0,0h0l0,0h0l0,0h0l0,0h0h0h0h-0.2c-0.1,0-0.2-0.1-0.3-0.2l0,0l0,0l0,0l0,0l0,0l0,0l0,0l0,0l0,0l0,0l0,0l0,0l0,0   l0,0l0,0l0,0l0-1.4l0-0.6h-0.1v2.2c0.1,0.1,0.2,0.2,0.4,0.3c0.2,0,0.3,0,0.5-0.1c0.1,0,0.1-0.1,0.2-0.1   C208.3,76.3,208.5,76.3,208.6,76.2c0,0.1,0.1,0.1,0.2,0.1c0.1,0,0.1,0.1,0.2,0.2l0.1,0.1H209c-0.1,0-0.1,0-0.1,0.1c0,0,0,0,0,0   c0,0,0,0,0,0c0,0.1,0.1,0.1,0.1,0.1h0.3l0,0h0.3c0,0,0.1,0,0.1-0.1c0,0,0,0,0-0.1c0,0,0,0,0-0.1c0,0,0-0.1-0.1-0.1l0,0l0-0.1   c0-0.1,0.1-0.1,0.2-0.2c0.1,0,0.2-0.1,0.3,0c0.1,0,0.2,0.1,0.3,0.2c0.1,0.1,0.2,0.1,0.3,0.2c0.1,0,0.2,0,0.4,0   c0.1-0.1,0.3-0.1,0.4-0.2v-2.1h-0.1v2.1l0,0l0,0l0,0c-0.1,0.1-0.2,0.2-0.4,0.2l0,0l0,0l0,0h0l0,0h0h-0.2h0l0,0   c-0.1,0-0.1,0-0.2-0.1l0,0h0l0,0h0l0,0h0l0,0h0l0,0h0l0,0c0,0,0,0-0.1-0.1c0,0,0,0-0.1,0l0,0l0,0l0,0c-0.1-0.1-0.2-0.1-0.4-0.1l0,0   h0h0h0l0,0h0l0,0h0l0,0l0,0l0,0h0l0,0h0l0,0h0l0,0h0l0,0h0h0l0,0h0l0,0h0l0,0c0,0-0.1,0-0.1,0.1h0l0,0h0l0,0l0,0l0,0l0,0l0,0l0,0   l0,0l0,0l0,0l0,0l0,0l0,0l0,0l0,0l0,0l0,0l0,0l0,0l0,0l0,0l0,0l0,0l0,0l0,0l0,0v0l0,0l0,0l0,0l0,0l0,0l0,0l0,0l0,0l0,0l0,0l0,0l0,0   l0,0l0,0v0l0,0v0l0,0v0l0,0l0,0l0,0l0,0l0,0c0,0,0,0.1-0.1,0.1h0.2v0.1l-0.4,0v-0.1h0.2v0c0,0-0.1-0.1-0.1-0.1l0,0l0,0l0,0l0,0l0,0   l0,0c-0.1-0.1-0.1-0.2-0.2-0.2l0,0h0l0,0h0l0,0h0l0,0l0,0c0,0,0,0-0.1,0l0,0h0l0,0h0l0,0h0L208.6,76.2 M209.3,76.2v-2.3   c-0.1-0.1-0.3-0.2-0.5-0.3c-0.2,0-0.4,0-0.5,0.1c-0.1,0.1-0.2,0.1-0.4,0.2c-0.1,0-0.3,0-0.4-0.1V76c0.1,0,0.1,0.1,0.2,0.1h0h0h0h0   h0h0h0c0.2,0,0.3-0.1,0.4-0.1c0.1-0.1,0.3-0.1,0.4-0.1h0c0.1,0,0.1,0,0.2,0l0,0l0,0h0l0,0C209,76,209.1,76.1,209.3,76.2L209.3,76.2   z M209.3,76.5v-0.3c-0.1-0.2-0.3-0.3-0.5-0.3h0l0,0h0l0,0h0h0h0h0h-0.1h0c0,0,0,0-0.1,0h-0.1h0h0l0,0l0,0h0l0,0h0l0,0h0l0,0h0l0,0   h0l0,0h0l0,0h0l0,0h0l0,0h0l0,0h0l0,0h0l0,0h0l0,0h0l0,0h0l0,0h0l0,0c-0.1,0-0.1,0.1-0.2,0.1l0,0l0,0l0,0l0,0l0,0l0,0h0l0,0h0l0,0   h0l0,0h0l0,0h0l0,0h0l0,0l0,0l0,0l0,0l0,0l0,0l0,0l0,0h0l0,0h0h0h0h0h0h0h0h-0.1c-0.1,0-0.2,0-0.2-0.1l0,0l0,0l0,0l0,0l0,0l0,0l0,0   l0,0l0,0l0,0l0,0l0,0l0,0l0,0l0,0l0,0l0,0l0,0l0,0l0,0l0,0l0,0l0,0V74l-0.2,0.1l0,2.1c0.1,0.1,0.2,0.1,0.3,0.2l0,0l0,0l0,0h0l0,0h0   l0,0h0l0,0h0l0,0h0l0,0h0h0.1c0.1,0,0.3-0.1,0.4-0.1l0,0h0l0,0l0,0l0,0l0,0l0,0l0,0l0,0l0,0l0,0l0,0l0,0l0,0l0,0   c0.2-0.1,0.3-0.1,0.5-0.1c0.1,0,0.1,0.1,0.2,0.1l0,0l0,0l0,0l0,0l0,0l0,0l0,0l0,0l0,0l0,0l0,0l0,0l0,0   C209.2,76.4,209.2,76.5,209.3,76.5L209.3,76.5L209.3,76.5L209.3,76.5L209.3,76.5L209.3,76.5z M209.3,76.3v0.2l0,0l0,0v0l0,0   c0.1-0.2,0.2-0.3,0.4-0.4l0,0h0l0,0h0h0h0l0,0c0,0,0.1,0,0.1,0h0.1c0.2,0,0.3,0.1,0.4,0.2l0,0c0,0,0.1,0,0.1,0.1h0l0,0h0l0,0   c0.1,0.1,0.2,0.1,0.3,0.1h0c0.2,0,0.3-0.1,0.4-0.2V74l0,0v0l-0.1-0.1c0,0.3,0,0.7,0,1c0,0.2,0,0.4,0,0.6v0c0,0.2,0,0.3,0,0.5v0l0,0   l0,0c-0.1,0.1-0.2,0.1-0.4,0.1h-0.1h0h0c-0.1,0-0.2-0.1-0.3-0.2c-0.1,0-0.1-0.1-0.2-0.1l0,0h0l0,0h0l0,0h0l0,0h0l0,0   c-0.1,0-0.2-0.1-0.3,0C209.6,76.1,209.4,76.2,209.3,76.3L209.3,76.3z M209.3,73.9v2.3l0.1-0.1l0,0l0,0c0.1-0.1,0.2-0.2,0.4-0.2l0,0   h0h0c0,0,0.1,0,0.1,0h0c0.1,0,0.2,0,0.3,0.1l0,0l0,0l0,0l0,0l0,0l0,0c0,0,0.1,0,0.1,0.1l0,0l0,0l0,0l0,0l0,0l0,0l0,0l0,0l0,0   c0.1,0,0.2,0.1,0.2,0.1c0.1,0,0.1,0,0.2,0h0c0.1,0,0.1-0.1,0.2-0.1c0-0.1,0-0.3,0-0.4l0,0c0-0.2,0-0.4,0-0.6c0-0.4,0-0.7,0-1.1v0   c-0.1,0.1-0.2,0.1-0.3,0.1c-0.1,0-0.2,0-0.3-0.1c-0.2-0.1-0.4-0.2-0.6-0.2C209.6,73.7,209.4,73.8,209.3,73.9L209.3,73.9z    M208.1,75.1h0.1l0.3,0.4v-0.3c0,0,0,0,0-0.1c0,0,0,0,0,0h0v0h0.2v0h-0.1c0,0,0,0-0.1,0c0,0,0,0,0,0.1v0.4h0l-0.3-0.4v0.3   c0,0,0,0.1,0,0.1c0,0,0,0,0,0h0v0h-0.2v0h0c0,0,0,0,0,0c0,0,0,0,0-0.1L208.1,75.1C208.1,75.1,208.1,75.1,208.1,75.1   C208.1,75.1,208.1,75.1,208.1,75.1C208.1,75.1,208.1,75.1,208.1,75.1L208.1,75.1z M208,74.3l0,0.2h0C208,74.4,208,74.4,208,74.3   c-0.1,0-0.1,0-0.2,0c0,0-0.1,0-0.1,0c0,0,0,0-0.1,0.1c0,0,0,0.1,0,0.1c0,0,0,0.1,0,0.1c0,0,0,0.1,0.1,0.1c0,0,0.1,0,0.1,0   c0,0,0.1,0,0.1,0c0,0,0.1-0.1,0.1-0.1l0,0c0,0-0.1,0.1-0.1,0.1c0,0-0.1,0-0.1,0c-0.1,0-0.1,0-0.2-0.1c0-0.1,0-0.1-0.1-0.2   c0-0.1,0-0.1,0-0.1c0,0,0-0.1,0.1-0.1c0,0,0.1,0,0.1,0C207.9,74.3,208,74.3,208,74.3C208,74.3,208,74.3,208,74.3   C208,74.3,208,74.3,208,74.3C208,74.3,208,74.3,208,74.3L208,74.3z M210.3,74l0,0.2h0C210.3,74.1,210.3,74.1,210.3,74   c-0.1,0-0.1,0-0.2,0c0,0-0.1,0-0.1,0c0,0,0,0.1-0.1,0.1c0,0,0,0.1,0,0.1c0,0,0,0.1,0,0.1c0,0,0,0.1,0.1,0.1c0,0,0.1,0,0.1,0   c0,0,0.1,0,0.1,0c0,0,0.1,0,0.1-0.1h0c0,0,0,0.1-0.1,0.1c0,0-0.1,0-0.1,0c-0.1,0-0.2,0-0.2-0.1c0,0-0.1-0.1-0.1-0.2   c0,0,0-0.1,0-0.1c0,0,0.1-0.1,0.1-0.1c0,0,0.1,0,0.1,0C210.2,74,210.2,74,210.3,74C210.3,74,210.3,74,210.3,74   C210.3,74,210.3,74,210.3,74C210.3,74,210.3,74,210.3,74L210.3,74z M209.8,74.3v0.2h0C209.7,74.4,209.7,74.4,209.8,74.3   C209.7,74.4,209.7,74.4,209.8,74.3c-0.1,0-0.1,0-0.2,0c0,0-0.1,0-0.1,0c0,0,0,0,0,0.1c0,0,0,0,0,0c0,0,0.1,0.1,0.1,0.1l0.1,0.1   c0,0,0,0,0,0.1c0,0,0,0,0,0.1c0,0,0,0.1,0,0.1c0,0-0.1,0-0.1,0c0,0,0,0,0,0c0,0,0,0-0.1,0l-0.1,0c0,0,0,0,0,0c0,0,0,0,0,0h0v-0.2h0   c0,0,0,0.1,0,0.1c0,0,0,0,0,0c0,0,0.1,0,0.1,0c0,0,0.1,0,0.1,0c0,0,0,0,0-0.1c0,0,0,0,0,0c0,0,0,0,0,0c0,0-0.1,0-0.1-0.1   c-0.1,0-0.1,0-0.1-0.1c0,0,0,0,0-0.1c0,0,0,0,0-0.1c0,0,0-0.1,0-0.1c0,0,0,0,0,0c0,0,0.1,0,0.1,0c0,0,0,0,0,0c0,0,0,0,0,0   c0,0,0,0,0,0L209.8,74.3z M207.6,75.2h0.4l0.1,0.1l0,0c0,0,0,0,0-0.1c0,0,0,0,0,0c0,0,0,0,0,0c0,0,0,0-0.1,0h-0.1v0.2h0.1   c0,0,0,0,0.1,0c0,0,0,0,0,0c0,0,0,0,0,0v0h0v0.2h0v0c0,0,0,0,0,0c0,0,0,0,0,0s0,0,0,0h-0.1v0.2l0,0h0.1c0,0,0.1,0,0.1,0   c0,0,0.1,0,0.1-0.1c0,0,0,0,0-0.1l0,0l-0.1,0.2h-0.4v0h0c0,0,0,0,0,0l0,0L207.6,75.2C207.7,75.3,207.7,75.3,207.6,75.2   C207.7,75.3,207.7,75.3,207.6,75.2C207.7,75.3,207.6,75.3,207.6,75.2L207.6,75.2z M210.4,75.4h0.4l0,0.1l0,0c0,0,0,0,0-0.1   c0,0,0,0,0,0c0,0,0,0,0,0c0,0,0,0-0.1,0h-0.1v0.2h0.1c0,0,0,0,0.1,0c0,0,0,0,0,0c0,0,0,0,0,0v0h0v0.2h0v0c0,0,0,0,0,0c0,0,0,0,0,0   c0,0,0,0,0,0c0,0,0,0,0,0h-0.1v0.2c0,0,0,0,0,0s0,0,0,0h0.1c0,0,0.1,0,0.1,0c0,0,0,0,0.1-0.1c0,0,0,0,0-0.1l0,0l-0.1,0.2h-0.4v0   h0.1c0,0,0,0,0,0s0,0,0,0L210.4,75.4C210.5,75.4,210.5,75.4,210.4,75.4C210.5,75.4,210.5,75.4,210.4,75.4   C210.5,75.4,210.4,75.4,210.4,75.4L210.4,75.4z M210.1,75.4L210.1,75.4L210.1,75.4v-0.2v-0.1l-0.2,0.4c0,0,0,0,0,0.1c0,0,0,0,0,0v0   h0.1v0c0,0,0,0,0,0c0,0,0,0,0,0c0,0,0,0,0,0L210.1,75.4L210.1,75.4z M210.2,75.4H210v0h0.1l-0.1-0.2V75l0,0h0L210.2,75.4   c0,0.1,0,0.1,0,0.1c0,0,0,0,0,0v0h-0.2v0c0,0,0,0,0,0c0,0,0,0,0,0C210.1,75.5,210.1,75.5,210.2,75.4L210.2,75.4z M208.4,74.5   L208.4,74.5c0,0-0.1,0-0.1-0.1c0-0.1-0.1-0.1-0.1-0.2c0-0.1,0-0.1,0.1-0.2c0,0,0.1-0.1,0.1-0.1v0c-0.1,0-0.1,0-0.2,0.1   c-0.1,0.1-0.1,0.1-0.1,0.2c0,0.1,0,0.1,0.1,0.2C208.2,74.5,208.2,74.5,208.4,74.5L208.4,74.5z M208.4,73.9c0.1,0,0.1,0,0.2,0.1   c0,0.1,0.1,0.1,0.1,0.2c0,0.1,0,0.1-0.1,0.2c0,0.1-0.1,0.1-0.2,0.1v0c0,0,0.1,0,0.1-0.1c0-0.1,0.1-0.1,0-0.2c0-0.1,0-0.1-0.1-0.2   C208.5,74,208.4,73.9,208.4,73.9L208.4,73.9L208.4,73.9z M208.6,74.4h0.1l0.3,0.4v-0.3c0,0,0,0,0-0.1c0,0,0,0,0,0h0v0h0.2v0h-0.1   c0,0,0,0-0.1,0c0,0,0,0,0,0.1v0.4h0l-0.3-0.4v0.3c0,0,0,0.1,0,0.1c0,0,0,0,0,0h0v0h-0.2v0h0c0,0,0,0,0,0c0,0,0,0,0-0.1L208.6,74.4   C208.6,74.4,208.6,74.4,208.6,74.4C208.6,74.4,208.6,74.4,208.6,74.4C208.6,74.4,208.6,74.4,208.6,74.4L208.6,74.4z M208.8,75.2   L208.8,75.2L208.8,75.2l0.4,0l0,0h0l0.1,0.2l0,0c0,0,0-0.1-0.1-0.1c0,0-0.1,0-0.1,0c0,0,0,0,0,0c0,0,0,0,0,0c0,0,0,0,0,0v0.4   c0,0,0,0,0,0c0,0,0,0,0,0c0,0,0,0,0,0v0h-0.2v0c0,0,0,0,0,0c0,0,0,0,0,0c0,0,0,0,0,0v-0.4c0,0,0,0,0,0c0,0,0,0,0,0   C208.9,75.3,208.9,75.3,208.8,75.2c0,0.1,0,0.1,0,0.1c0,0,0,0,0,0.1l0,0L208.8,75.2z M209.5,75.2h0.2v0h0c0,0,0,0,0,0c0,0,0,0,0,0   c0,0,0,0,0,0v0.3c0,0,0,0,0,0c0,0,0,0,0,0c0,0,0,0,0,0h0v0h-0.2v0h0c0,0,0,0,0,0l0,0c0,0,0,0,0,0L209.5,75.2   C209.5,75.3,209.5,75.3,209.5,75.2L209.5,75.2C209.5,75.3,209.5,75.3,209.5,75.2L209.5,75.2L209.5,75.2z M210.6,74.3h0.2v0h0   c0,0,0,0,0,0c0,0,0,0,0,0c0,0,0,0,0,0v0.3c0,0,0,0,0,0c0,0,0,0,0,0s0,0,0,0h0v0h-0.2v0h0c0,0,0,0,0,0s0,0,0,0s0,0,0,0L210.6,74.3   C210.7,74.4,210.7,74.4,210.6,74.3L210.6,74.3C210.7,74.4,210.6,74.4,210.6,74.3L210.6,74.3L210.6,74.3z M203.5,92   c0.1-0.4,0-0.6-0.2-0.7c0,0-0.1,0-0.1,0c-0.1,0-0.2,0-0.2,0c-0.2,0.1-0.3,0.3-0.2,0.7c0,0.1,0.1,0.2,0.2,0.3   c0.1,0.1,0.2,0.2,0.4,0.3l0,0c0.1,0,0.1,0.1,0.2,0.1h0c0.1,0,0.1,0,0.2,0.1c0,0,0.1,0,0.1,0l0,0c0.1,0,0.2,0,0.3-0.1   c0.2-0.1,0.3-0.4,0.2-0.7c0-0.1-0.1-0.1-0.2-0.2H204c0,0,0,0-0.1,0l0,0C203.7,91.8,203.6,91.8,203.5,92L203.5,92L203.5,92L203.5,92   L203.5,92z" fill="#ffffff"/>
	<path id="Path_1037" class="st0" d="M225.4,87.1c-0.5,1.2-0.5,2.5,0,3.7c0.3,1.2,0.8,2.3,1.2,3.4c0.7-0.2,1.4,0,1.9,0.3   c0.4,0.5,0.7,1,0.9,1.6c0.6,1.1,0.9,2.2,1.1,3.4c-0.1,0.7-0.5,1.3-1.1,1.7c-0.8,0.3-1.6,0.5-2.4,0.5c-0.7-0.1-1.5,0.3-1.7,1   c-0.1,0.3-0.2,0.6-0.2,0.9c0,0.1,0.1,0.2,0.2,0.2c0.6,0.6,2.2,0.7,4.1-0.7l0,0c2.7-2.3,1.8-5.6,0.5-9c-0.1-0.4-0.3-0.7-0.5-1.1   c-1.1-2.2-2.6-4.9-0.4-6.9h-2C226.4,86.1,225.8,86.5,225.4,87.1 M229.6,89.7c-0.1,0.3-0.1,0.5,0,0.8c0,0,0,0,0.1,0.1   c0.1,0.1,0.2,0,0.4-0.1c1-0.6,1.6-1.8,1.5-3c-0.3-1.4-1-2.8-1.9-3.9c-0.3-0.4-0.6-0.7-0.9-1.2c-0.9-1.2-1-2.8-0.3-4.2   c-0.9,0.7-1.5,1.7-1.6,2.8l-0.4,0c0-0.8-0.4-1.6-0.9-2.3c-0.1-0.1-0.1-0.1-0.2-0.2c0.1,0.4,0.2,0.9,0.2,1.3c0,0.5,0.1,1,0.1,1.5   c0.1,1.6,0.8,3.1,1.9,4.3c0.8,0,1.4,0.1,2.2,0.1l0.5,0c1.5,0.2,1.1,1.7,0.4,2.5C230.1,88.6,229.8,89.1,229.6,89.7L229.6,89.7z    M229.6,88.7c0.2-0.4,0.5-0.7,0.8-1.1c0.8-1.3,0.1-1.9-0.8-1.3c-0.4,0.3-0.8,0.8-1,1.2c-0.3,1-0.2,2.2,0.3,3.1h0.2   C228.9,89.9,229.1,89.2,229.6,88.7L229.6,88.7z M225.4,100.7c-0.5,0.6-0.7,1.4-0.5,2.2c0.1-0.4,0.2-0.8,0.5-1.1   c0.7-0.7,2-0.5,2.8-0.6c0.5-0.1,0.9-0.2,1.3-0.5c1.1-0.8,1-2.1,0-2.3c-0.5-0.1-1,0-1.4,0.3C227.1,99.1,226.2,99.8,225.4,100.7   L225.4,100.7z M217,103.8l0.2,0.2l0.2-2l0.7-0.3l0,0.1c-0.2,0.1-0.1,0.4,0,0.7l0.3,0.9c0.1,0.3,0.2,0.5,0.5,0.5l0,0.1l-1,0.4l0-0.1   c0.4-0.2,0.2-0.4,0.1-0.7l-0.3-0.6l-0.2,1.6l-0.3,0.1l-0.3-0.2l-1.1-0.8l0.3,0.7c0.1,0.3,0.1,0.6,0.6,0.5l0,0.1l-0.8,0.3l0-0.1   c0,0,0.1,0,0.1-0.1c-0.1-0.7-0.4-1.3-0.7-1.9c0-0.1-0.1-0.1-0.2-0.1l0-0.1l0.7-0.3L217,103.8z M211.9,103.1l0.1,0l0.9,2   c0,0.2,0.2,0.3,0.3,0.4v0.1h-1v-0.1c0.4,0,0.2-0.3,0-0.5h-1c-0.2,0.2-0.4,0.5,0.1,0.5v0.1l-0.9,0l0-0.1c0,0,0.1,0,0.1-0.1   C211.2,104.7,211.5,103.9,211.9,103.1L211.9,103.1z M224.8,99.2c0.6,0.1,1-0.6,0.2-0.7c-0.1,0-0.1,0-0.2,0c-0.2,0-0.4,0-0.6-0.1   c-0.3-0.2-0.4-0.6-0.3-0.9c0.2-0.3,0.8-0.4,1-0.5c0,0,0,0,0-0.1l0.1,0l0.3,0.8l-0.1,0c-0.2-0.2-0.2-0.3-0.3-0.3l0,0   c-0.6-0.2-0.9,0.5-0.2,0.7l0.2,0l0.2,0c0.2,0,0.3,0.1,0.5,0.1c0.1,0.1,0.2,0.2,0.3,0.3c0.1,0.2,0.1,0.5-0.1,0.7   c-0.1,0.1-0.1,0.1-0.2,0.2c-0.1,0.1-0.2,0.1-0.3,0.1c-0.1,0-0.2,0-0.3,0c-0.1,0-0.2,0.1-0.3,0.1l-0.1,0l-0.3-0.8l0.1,0   C224.4,99,224.6,99.2,224.8,99.2L224.8,99.2z M221,101.7c0.2,0.3,0.6,0.3,0.9,0.1c0.3-0.2,0.3-0.6,0.1-0.9c0,0,0,0,0-0.1l-0.4-0.6   c-0.2-0.2-0.2-0.4-0.6-0.3l0,0l0-0.1l0.1-0.1l0.7-0.5l0,0.1c0,0-0.1,0.1-0.1,0.1c-0.1,0.2,0.5,0.9,0.7,1.1c0.4,0.4,0.3,1-0.1,1.4   c-0.3,0.3-0.8,0.4-1.2,0.2c-0.1-0.1-0.2-0.1-0.3-0.2c-0.1-0.1-0.1-0.1-0.2-0.2l-0.3-0.5c-0.2-0.3-0.3-0.5-0.7-0.4l-0.1-0.1l0.9-0.6   l0,0.1c-0.3,0.2-0.1,0.4,0.1,0.7L221,101.7C220.9,101.7,221,101.7,221,101.7L221,101.7z M211.9,103.7L211.9,103.7l-0.5,1h0.9   L211.9,103.7z M203.1,100.9L203.1,100.9c0.2-0.4,0.3-0.4,0.1-0.6l0.1-0.1l0.9,0.6l-0.1,0.1c-0.4,0-0.4,0.1-0.6,0.4l-0.4,0.7l0,0.1   c-0.1,0.2-0.3,0.5-0.1,0.7l0,0.1l-0.9-0.6l0.1-0.1c0.3,0,0.4-0.2,0.5-0.4L203.1,100.9z M198.7,98.1l0.8-0.8   c0.2-0.2,0.3-0.2,0.2-0.6l0,0l0.8,0.8l0,0c-0.3-0.1-0.4-0.1-0.6,0.1c-0.3,0.3-0.6,0.5-0.8,0.8c-0.3,0.3-0.1,0.5,0.1,0.7   c0.3,0.3,0.4,0.3,0.7,0.2l0.1,0.1l-0.6,0.3l-0.7-0.7l-0.7-0.7l0.1-0.1c0.2,0.2,0.2,0.2,0.4,0L198.7,98.1z M206.9,102.6   c-0.4,0-0.7,0.3-0.8,0.6c-0.3,0.7,0,1.4,0.8,1.4c0,0,0.1,0,0.1,0c0.1-0.2,0.2-0.4,0.3-0.6c0-0.1,0-0.2-0.2-0.3l0-0.1l0.9,0.4l0,0.1   c-0.4-0.1-0.5,0.6-0.7,0.9c-0.1,0-0.3,0-0.4,0c-0.3,0-0.5-0.1-0.8-0.2c-0.6-0.4-0.8-1.1-0.5-1.7c0.2-0.5,0.7-0.8,1.3-0.8   c0.3,0,0.5,0.1,0.7,0.2c0.1,0.1,0.4,0.4,0.6,0.3l0.1,0.1l-0.3,0.7l-0.1-0.1C207.9,103,207.5,102.6,206.9,102.6   C207,102.6,207,102.6,206.9,102.6L206.9,102.6z M194.9,90.5c0.3,0,0.5-0.2,0.5-0.4c0-0.5-0.2-1-0.5-1.3c-0.2-0.2-0.4-0.4-0.6-0.6   c0,0-0.1,0-0.1-0.1c-0.9-0.8-1.5-2.5,0.2-2.5h2.5c0.9-0.9,1.5-2,1.7-3.2c0.3-1.5,0.3-3,0.4-3.7c-0.2,0.1-0.3,0.3-0.4,0.5   c-0.4,0.6-0.6,1.3-0.6,2h-0.4c-0.1-1.1-0.7-2.1-1.6-2.7c0.8,1.7,0.4,3.7-1,4.9c-0.1,0.1-0.1,0.1-0.2,0.2c-1,1-1.8,2.3-2,3.7   c-0.2,0.8,0,1.7,0.5,2.4C193.8,90.1,194.3,90.4,194.9,90.5z M194.9,86.2c-1-0.8-1.7,0.4-0.6,1.4c0.2,0.2,0.4,0.4,0.6,0.6   c0.8,0.8,1,1.3,0.9,1.7c0.2-0.6,0.3-1.1,0.2-1.7c-0.1-0.6-0.3-1.1-0.8-1.6C195.2,86.4,195.1,86.3,194.9,86.2z M198.7,91.5   c0.2-0.6,0.4-1.2,0.6-1.8c0.4-1,0.1-2.1-0.6-2.9c-0.4-0.4-0.9-0.6-1.5-0.8h-1.9c0.7,0.6,1.1,1.5,1.1,2.5c0,1.5-0.9,2.8-1.5,4.1l0,0   c-0.7,1.4-1.2,2.8-1.6,4.3c-0.5,1.9-0.5,4,0.9,5.5c0.2,0.2,0.4,0.4,0.7,0.6c0.8,0.7,1.8,1,2.9,1.1c0.3,0,0.6-0.1,0.9-0.3   c0.5-0.3,0.7-0.9,0.5-1.4c-0.1-0.2-0.3-0.4-0.5-0.5l0,0c-0.5-0.3-1-0.4-1.6-0.4c-0.7-0.1-1.4-0.2-2.1-0.5c-1-0.4-1.6-1.1-1-2.6   c0.3-0.8,0.7-1.7,1-2.5l0.2-0.6c0.5-0.9,1.5-1.4,2.5-1.1C198,93.3,198.4,92.4,198.7,91.5z M194.9,98.4c-0.5,0-0.9,0.5-0.9,1   c0,0,0,0,0,0.1c0,0.5,0.4,0.8,0.9,1.1c0.6,0.2,1.2,0.4,1.8,0.4c0.7,0,1.4,0.2,2,0.4c0.3,0.1,0.6,0.4,0.8,0.7c0-0.2-0.1-0.3-0.1-0.5   c0-0.1,0-0.3-0.1-0.4c-0.2-0.2-0.4-0.4-0.5-0.6c-0.8-0.9-1.8-1.6-2.9-2.1C195.5,98.4,195.2,98.3,194.9,98.4L194.9,98.4z M194.9,97   l-0.4,1c0.1,0,0.3,0,0.4-0.1c1.2-0.1,2.5,0.7,3.8,1.9c0.5,0.5,1,1,1.4,1.5c0.9,1,1.9,1.9,3,2.7c1.2,0.8,2.5,1.5,3.8,2   c1,0.4,2.1,0.6,3.2,0.7c0.6,0,1.2,0.1,1.8,0.1c1.7,0,3.4-0.2,5.1-0.7c1.4-0.4,2.7-1.1,4-1.9c1.4-1,2.7-2.1,3.8-3.4   c0.2-0.2,0.3-0.4,0.5-0.6l0.1-0.1c1-1.2,2.5-2,4.1-2.1h0.1l-0.1-0.3l-0.8-1.9c-0.9-1.5-2.2-1.1-3.4-0.4c-0.2,0.1-0.4,0.3-0.7,0.5   c-0.2,0.1-0.4,0.3-0.5,0.4c-1.1,1-2.2,1.9-3.3,2.6c-1.2,0.9-2.6,1.7-4,2.4c-0.2,0.1-0.5,0.2-0.7,0.3c-1.4,0.5-2.9,0.7-4.4,0.7   c-1.7,0-3.4-0.4-5-1.2c-1.4-0.6-2.7-1.4-3.8-2.3c-0.8-0.6-1.7-1.3-2.4-2.1c-0.6-0.6-1.3-1.1-2-1.5c-0.3-0.2-0.6-0.4-1-0.5   c-0.8-0.4-1.7-0.1-2.1,0.6c-0.1,0.1-0.1,0.2-0.1,0.3L194.9,97z" fill="#ffffff"/>
</g>
</svg>