<?xml version="1.0" encoding="utf-8"?>
<!-- Generator: Adobe Illustrator 27.9.0, SVG Export Plug-In . SVG Version: 6.00 Build 0)  -->
<svg version="1.1" id="Layer_1" xmlns="http://www.w3.org/2000/svg" xmlns:xlink="http://www.w3.org/1999/xlink" x="0px" y="0px"
	 viewBox="0 0 275.441 97.814" style="enable-background:new 0 0 275.441 97.814;" xml:space="preserve">
<style type="text/css">
	.st0{clip-path:url(#SVGID_00000048475757625457961900000000476125474100790413_);}
	.st1{fill:#0861AD;}
	.st2{fill:#E51E26;}
	.st3{clip-path:url(#SVGID_00000168086032247316374430000010690822323407902891_);}
</style>
<g id="Group_6" transform="translate(0)">
	<g>
		<defs>
			<rect id="SVGID_1_" x="1.81" y="0.929" width="96.544" height="95"/>
		</defs>
		<clipPath id="SVGID_00000106856533220044359930000002023467969992135081_">
			<use xlink:href="#SVGID_1_"  style="overflow:visible;"/>
		</clipPath>
		<g id="Group_5" style="clip-path:url(#SVGID_00000106856533220044359930000002023467969992135081_);">
			<path id="Path_7525" class="st1" d="M86.574,60.486c-0.51-7.87-0.532-15.765-0.067-23.638
				c2.468-22.811-4.136-27.114-23.645-24.586c-13.677,1.679-26.224-1.991-39.383-0.513c-13.946,0.359-8.282,22.217-9.022,34.933
				c0.154,11.387-3.135,31.895,4.9,35.72c5.742,3.108,11.824,1.965,18.879,1.556c11.5-1.215,22.021,0.609,32.961,0.973
				c18.149,0.737,16.052-10.248,15.382-24.444 M63.428,76.097c-8.327-0.978-16.735-1.068-25.081-0.269
				c-15.419,1.139-16.743,3.969-16.089-14.773c15.515,12.694,40.709,12.855,56.1,0.08c1.023,18.041,1.765,15.384-14.929,14.96
				 M37.655,20.121c9.582,0.682,14.5,0.521,19.544,0.528c21.88,0.032,22.435-6.762,21.122,14.918
				c-16.06-10.9-40.305-11.213-55.813,0.869C22.174,18.143,19.328,19.297,37.655,20.121 M77.048,45.709
				c1.185,1.989,1.064,4.495-0.306,6.361c-2.55,3.6-8.08,6.848-11.5,8.506c-10.547,4.078-22.134,2.927-33.029-2.069
				c-2.792-1.28-9.078-4.867-9.886-8.047c-0.406-2.23,0.245-4.523,1.762-6.207c1.805-2.145,3.923-4.006,6.284-5.518
				c7.74-4.292,19.581-5.819,29.887-3.449c6.971,1.6,13.564,5.339,16.783,10.422 M75.264,44.497
				c0.013,0.016,0.027,0.031,0.042,0.045C75.29,44.528,75.276,44.513,75.264,44.497"/>
			<path id="Path_7526" class="st2" d="M61.876,49.057c0,6.627-5.373,12-12,12s-12-5.373-12-12s5.373-12,12-12
				S61.876,42.429,61.876,49.057"/>
		</g>
	</g>
</g>
<g id="Group_9" transform="translate(94.543 12.176)">
	<g>
		<defs>
			<rect id="SVGID_00000025443480581288760350000007154862429331672476_" x="1.81" y="0.929" width="162.363" height="70.648"/>
		</defs>
		<clipPath id="SVGID_00000170262360060210554240000013706281129062614950_">
			<use xlink:href="#SVGID_00000025443480581288760350000007154862429331672476_"  style="overflow:visible;"/>
		</clipPath>
		<g id="Group_8" transform="translate(0 0)" style="clip-path:url(#SVGID_00000170262360060210554240000013706281129062614950_);">
			<path id="Path_7527" class="st1" d="M1.84,29.586V9.542c-0.035-5.585,3.101-8.378,9.409-8.378h9.745v4.509h-9.675
				c-3.105,0-4.658,1.304-4.658,3.911v8.836c2.013-1.964,3.982-2.997,5.908-3.1c6.992,0.417,10.584,5.144,10.775,14.18
				c-0.191,9.297-3.784,14.111-10.778,14.441C5.572,43.609,1.996,38.824,1.84,29.586 M6.662,29.499
				c0.191,6.378,2.157,9.732,5.9,10.062c3.78-0.329,5.765-3.683,5.956-10.062c-0.191-5.977-2.177-9.157-5.956-9.54
				C8.628,20.099,6.662,23.279,6.662,29.499"/>
			<path id="Path_7528" class="st1" d="M27.516,29.473l1.485-5.76l4.406,1.407l-1.042,4.249c0.192,6.464,2.188,9.861,5.988,10.191
				c3.763-0.329,5.739-3.735,5.929-10.218c0-5.178-1.695-10.391-5.086-15.64c-3.424-3.336-5.312-7.941-5.215-12.72h4.692
				c0.222,4.501,2.13,8.754,5.345,11.913c3.226,4.887,4.989,10.593,5.082,16.448c-0.191,9.4-3.764,14.267-10.717,14.6
				c-7.053-0.333-10.676-5.156-10.867-14.467"/>
			<path id="Path_7529" class="st1" d="M53.765,29.681V0.955h4.822v16.826c1.529-1.662,3.703-2.58,5.961-2.516
				c6.957,0.415,10.531,5.224,10.723,14.426c-0.191,9.168-3.767,13.917-10.726,14.247c-6.993-0.333-10.586-5.086-10.779-14.258
				 M58.588,29.68c0.174,6.255,2.151,9.548,5.93,9.879c3.763-0.329,5.739-3.622,5.93-9.879c-0.191-5.995-2.158-9.184-5.9-9.567
				c-3.971,0-5.957,3.189-5.957,9.567"/>
			<path id="Path_7530" class="st1" d="M79.414,29.473l1.486-5.76l4.406,1.407l-1.042,4.249c0.191,6.467,2.186,9.864,5.983,10.192
				c3.763-0.329,5.74-3.735,5.929-10.218c0-5.178-1.695-10.391-5.086-15.64c-3.421-3.338-5.306-7.943-5.207-12.721h4.692
				c0.222,4.501,2.13,8.754,5.345,11.913c3.225,4.887,4.988,10.593,5.082,16.448c-0.191,9.4-3.764,14.267-10.717,14.6
				c-7.053-0.333-10.675-5.156-10.867-14.467"/>
			<path id="Path_7531" class="st1" d="M105.143,22.915c-0.062-2.881,0.339-5.754,1.187-8.508c0.718-2.23,1.841-4.309,3.313-6.131
				c1.379-1.691,3.099-3.071,5.048-4.051c4.029-1.958,8.733-1.958,12.762,0c1.944,0.981,3.658,2.362,5.032,4.051
				c1.467,1.825,2.586,3.904,3.3,6.134c0.844,2.755,1.243,5.627,1.182,8.508c0.104,3.199-0.295,6.395-1.182,9.471
				c-0.719,2.214-1.838,4.278-3.3,6.089c-1.371,1.684-3.087,3.054-5.032,4.02c-4.036,1.925-8.726,1.925-12.762,0
				c-1.95-0.964-3.672-2.335-5.048-4.02c-1.468-1.81-2.591-3.874-3.313-6.089c-0.891-3.075-1.292-6.271-1.187-9.471 M109.965,22.918
				c-0.087,2.625,0.189,5.25,0.82,7.8c0.483,1.689,1.258,3.279,2.291,4.7c0.932,1.273,2.132,2.326,3.515,3.084
				c2.834,1.481,6.214,1.481,9.048,0c1.388-0.756,2.592-1.809,3.527-3.084c1.033-1.421,1.808-3.011,2.291-4.7
				c0.631-2.55,0.907-5.175,0.82-7.8c0.052-2.279-0.224-4.554-0.82-6.755c-0.483-1.689-1.258-3.279-2.291-4.7
				c-0.934-1.276-2.138-2.33-3.526-3.087c-2.834-1.481-6.214-1.481-9.048,0c-1.383,0.758-2.583,1.81-3.515,3.083
				c-1.033,1.421-1.808,3.011-2.291,4.7c-0.596,2.201-0.872,4.476-0.82,6.755 M118.802,1.029h4.561v26.118h-4.561V1.029z"/>
			<path id="Path_7532" class="st1" d="M141.428,29.012V13.851c0.173-8.439,3.761-12.746,10.765-12.922
				c7,0.176,10.588,4.483,10.765,12.921v15.162c0,8.439-2.867,13.414-8.6,14.927v-4.743c2.52-1.06,3.78-4.449,3.78-10.167V13.885
				c-0.174-5.439-2.155-8.255-5.943-8.446c-3.789,0.191-5.77,3.007-5.943,8.446v15.144c0,5.718,1.312,9.107,3.935,10.167v4.744
				c-5.839-1.533-8.758-6.509-8.757-14.927"/>
			<path id="Path_7533" class="st1" d="M1.81,63.127l0.03-11.234c-0.011-3.253,1.44-4.879,4.351-4.879
				c1.22,0,2.257,0.755,3.111,2.266c0.959-1.518,2.672-2.387,4.463-2.266v2.589c-2.02,0-3.059,0.885-3.118,2.656v1.115h-2.6v-1.119
				c0.01-1.761-0.609-2.652-1.856-2.671c-1.089,0.02-1.633,0.818-1.634,2.393v4.683c0.874-0.928,2.096-1.449,3.371-1.434
				c3.989,0.207,6.039,2.848,6.148,7.922c-0.109,5.411-2.153,8.211-6.133,8.4C3.973,71.349,1.928,68.542,1.81,63.127 M4.558,63.142
				c0.109,3.753,1.238,5.723,3.388,5.91c2.149-0.188,3.277-2.158,3.384-5.91c-0.106-3.247-1.254-4.965-3.443-5.153
				C5.668,57.989,4.559,59.706,4.558,63.142"/>
			<path id="Path_7534" class="st1" d="M16.601,63.042v-8.638c0.099-4.807,2.143-7.261,6.133-7.361
				c3.989,0.101,6.034,2.554,6.133,7.361v8.638c0,4.807-1.633,7.641-4.9,8.5v-2.7c1.435-0.604,2.153-2.535,2.154-5.792v-8.626
				c-0.099-3.099-1.228-4.703-3.386-4.812c-2.158,0.109-3.287,1.713-3.386,4.812v8.628c0,3.257,0.748,5.188,2.243,5.792v2.7
				c-3.327-0.872-4.99-3.705-4.99-8.5"/>
			<path id="Path_7535" class="st1" d="M31.72,63.37V51.95c-0.021-3.181,1.766-4.772,5.361-4.773h5.554v2.57h-5.514
				c-1.769,0-2.653,0.743-2.653,2.228v5.033c0.869-0.979,2.066-1.607,3.365-1.767c3.984,0.237,6.03,2.93,6.139,8.079
				c-0.109,5.297-2.156,8.039-6.141,8.228C33.846,71.359,31.809,68.633,31.72,63.37 M34.468,63.32
				c0.108,3.634,1.229,5.545,3.363,5.732c2.153-0.188,3.284-2.099,3.393-5.732c-0.108-3.405-1.239-5.217-3.393-5.435
				C35.589,57.964,34.468,59.776,34.468,63.32"/>
			<path id="Path_7536" class="st1" d="M46.347,63.306l0.847-3.282l2.509,0.8l-0.593,2.421c0.108,3.683,1.244,5.618,3.408,5.806
				c2.144-0.186,3.269-2.126,3.376-5.82c-0.076-3.189-1.085-6.287-2.9-8.91c-1.948-1.902-3.021-4.527-2.963-7.249h2.673
				c0.126,2.564,1.214,4.987,3.045,6.786c1.839,2.784,2.845,6.035,2.9,9.371c-0.109,5.356-2.142,8.128-6.1,8.316
				c-4.019-0.188-6.083-2.935-6.192-8.242"/>
			<path id="Path_7537" class="st1" d="M61.065,56.561c-0.04-6.145,1.854-9.317,5.683-9.518c1.628-0.073,3.159,0.774,3.962,2.193
				c1.134-1.498,2.947-2.323,4.821-2.193c4.187,0.109,6.33,3.084,6.429,8.925c-0.067,5.9-2.213,8.905-6.438,9.014
				c-4.184-0.189-6.305-3.16-6.364-8.912c-0.048-1.51,0.081-3.02,0.384-4.5c-0.425-1.175-1.54-1.958-2.79-1.958
				c-1.961,0.2-2.941,2.519-2.941,6.957c0,7.944,3.609,12.115,10.826,12.512h2.436v2.465h-1.722
				c-9.525-0.405-14.287-5.4-14.287-14.985 M71.831,55.976c0.109,4.103,1.339,6.249,3.691,6.438c2.351-0.099,3.581-2.245,3.69-6.438
				c-0.099-4.143-1.329-6.265-3.69-6.364C73.062,49.612,71.831,51.733,71.831,55.976"/>
			<path id="Path_7538" class="st1" d="M84.32,63.306l0.847-3.282l2.509,0.8l-0.593,2.421c0.109,3.683,1.245,5.618,3.409,5.806
				c2.143-0.188,3.269-2.128,3.378-5.821c-0.076-3.189-1.084-6.287-2.9-8.91c-1.95-1.901-3.025-4.525-2.969-7.247h2.673
				c0.127,2.564,1.214,4.987,3.046,6.786c1.839,2.784,2.845,6.035,2.9,9.371c-0.109,5.356-2.144,8.128-6.106,8.316
				c-4.018-0.188-6.082-2.935-6.191-8.242"/>
			<path id="Path_7539" class="st1" d="M99.038,56.561c-0.04-6.145,1.854-9.317,5.682-9.518c1.628-0.073,3.159,0.774,3.961,2.193
				c1.134-1.498,2.948-2.323,4.822-2.193c4.187,0.109,6.33,3.084,6.429,8.925c-0.067,5.9-2.213,8.905-6.438,9.014
				c-4.183-0.189-6.304-3.16-6.363-8.912c-0.048-1.51,0.081-3.02,0.384-4.5c-0.425-1.175-1.541-1.958-2.79-1.958
				c-1.961,0.2-2.941,2.519-2.941,6.957c0,7.944,3.609,12.115,10.826,12.512h2.435v2.465h-1.722
				C103.798,71.14,99.036,66.145,99.038,56.561 M109.804,55.976c0.109,4.103,1.339,6.249,3.69,6.438
				c2.351-0.099,3.582-2.245,3.691-6.438c-0.1-4.143-1.33-6.265-3.691-6.364C111.034,49.612,109.804,51.733,109.804,55.976"/>
			<path id="Path_7540" class="st1" d="M122.353,65.161c0.079-1.705,0.746-3.33,1.886-4.6l2.213,1.113
				c-0.734,1.033-1.199,2.232-1.352,3.49c0.089,2.406,1.218,3.703,3.386,3.891c2.148-0.188,3.277-1.485,3.386-3.891V52.597
				c0.041-1.624-1.243-2.973-2.867-3.013c-0.039-0.001-0.079-0.001-0.118-0.001c-1.733,0.207-2.654,0.93-2.762,2.168
				c-0.014,1.179,0.368,2.33,1.084,3.267l-2,1.248c-1.169-0.901-1.753-2.441-1.753-4.619c0.067-2.861,1.898-4.39,5.495-4.589
				c3.674,0.189,5.565,2.035,5.673,5.539v12.564c-0.109,4.06-2.169,6.198-6.178,6.415c-3.937-0.227-5.966-2.366-6.089-6.415"/>
			<path id="Path_7541" class="st1" d="M137.294,63.079c0.267-4.564,1.961-7.173,5.083-7.826c1.033-1.792,0.786-3.129-0.739-4.01
				c-1.571-0.8-2.548-2.425-2.518-4.188h2.881c0,1.03,0.707,2.04,2.121,3.029c1.413,0.871,1.733,2.594,0.962,5.168
				c2.626,0.653,4.103,3.262,4.432,7.826c-0.219,5.333-2.238,8.155-6.056,8.465c-3.953-0.277-6.008-3.098-6.165-8.465
				 M139.968,63.078c0.184,3.783,1.358,5.773,3.522,5.97c2.075-0.2,3.192-2.19,3.353-5.97c-0.12-3.505-1.228-5.326-3.323-5.465
				C141.326,57.741,140.141,59.563,139.968,63.078"/>
			<path id="Path_7542" class="st1" d="M151.876,63.306l0.847-3.282l2.509,0.8l-0.594,2.421c0.109,3.683,1.245,5.618,3.409,5.806
				c2.144-0.188,3.27-2.128,3.378-5.821c-0.076-3.189-1.084-6.287-2.9-8.91c-1.949-1.901-3.024-4.525-2.968-7.247h2.673
				c0.126,2.564,1.214,4.987,3.045,6.786c1.839,2.784,2.845,6.035,2.9,9.371c-0.109,5.356-2.144,8.128-6.106,8.316
				c-4.018-0.188-6.082-2.935-6.191-8.242"/>
		</g>
	</g>
</g>
</svg>
